ISO-10303-21;
HEADER;
FILE_DESCRIPTION (( 'STEP AP214' ),
    '1' );
FILE_NAME ('JK-RTF-01-02-02 Switch Plate.STEP',
    '2026-08-16T05:37:22',
    ( '' ),
    ( '' ),
    'SwSTEP 2.0',
    'SolidWorks 2025',
    '' );
FILE_SCHEMA (( 'AUTOMOTIVE_DESIGN' ));
ENDSEC;

DATA;
#1 = EDGE_CURVE ( 'NONE', #826, #774, #659, .T. ) ;
#2 = ORIENTED_EDGE ( 'NONE', *, *, #955, .T. ) ;
#3 = CARTESIAN_POINT ( 'NONE',  ( -9.000000000000000000, 17.99999999999999645, 3.000000000000000000 ) ) ;
#4 = ORIENTED_EDGE ( 'NONE', *, *, #11, .T. ) ;
#5 = ORIENTED_EDGE ( 'NONE', *, *, #295, .F. ) ;
#6 = CYLINDRICAL_SURFACE ( 'NONE', #986, 1.299999999999999156 ) ;
#7 = DIRECTION ( 'NONE',  ( 1.000000000000000000, 0.000000000000000000, 0.000000000000000000 ) ) ;
#8 = ORIENTED_EDGE ( 'NONE', *, *, #1201, .T. ) ;
#9 = DIRECTION ( 'NONE',  ( -0.000000000000000000, -0.000000000000000000, -1.000000000000000000 ) ) ;
#10 = ORIENTED_EDGE ( 'NONE', *, *, #397, .F. ) ;
#11 = EDGE_CURVE ( 'NONE', #195, #547, #888, .T. ) ;
#12 = DIRECTION ( 'NONE',  ( -1.000000000000000000, 0.000000000000000000, 0.000000000000000000 ) ) ;
#13 = CARTESIAN_POINT ( 'NONE',  ( 7.000000000000001776, -8.000000000000000000, 3.000000000000000000 ) ) ;
#14 = VERTEX_POINT ( 'NONE', #354 ) ;
#15 = EDGE_CURVE ( 'NONE', #752, #1198, #451, .T. ) ;
#16 = ORIENTED_EDGE ( 'NONE', *, *, #1350, .T. ) ;
#17 = LINE ( 'NONE', #871, #1240 ) ;
#18 = CIRCLE ( 'NONE', #1213, 2.999999999999999112 ) ;
#19 = ORIENTED_EDGE ( 'NONE', *, *, #133, .F. ) ;
#20 = VERTEX_POINT ( 'NONE', #896 ) ;
#21 = CARTESIAN_POINT ( 'NONE',  ( -14.00000000000000178, 0.000000000000000000, 0.000000000000000000 ) ) ;
#22 = EDGE_CURVE ( 'NONE', #219, #769, #1317, .T. ) ;
#23 = ORIENTED_EDGE ( 'NONE', *, *, #1201, .F. ) ;
#24 = EDGE_LOOP ( 'NONE', ( #434, #1049, #30, #445 ) ) ;
#25 = CIRCLE ( 'NONE', #1222, 2.500000000000000444 ) ;
#26 = ORIENTED_EDGE ( 'NONE', *, *, #651, .F. ) ;
#27 = FACE_BOUND ( 'NONE', #1174, .T. ) ;
#28 = EDGE_CURVE ( 'NONE', #202, #303, #18, .T. ) ;
#29 = ORIENTED_EDGE ( 'NONE', *, *, #934, .F. ) ;
#30 = ORIENTED_EDGE ( 'NONE', *, *, #1332, .F. ) ;
#31 = DIRECTION ( 'NONE',  ( 1.000000000000000000, 0.000000000000000000, 0.000000000000000000 ) ) ;
#32 = AXIS2_PLACEMENT_3D ( 'NONE', #702, #471, #899 ) ;
#33 = PLANE ( 'NONE',  #794 ) ;
#34 = ORIENTED_EDGE ( 'NONE', *, *, #71, .F. ) ;
#35 = EDGE_CURVE ( 'NONE', #192, #920, #152, .T. ) ;
#36 = ORIENTED_EDGE ( 'NONE', *, *, #1, .T. ) ;
#37 = EDGE_CURVE ( 'NONE', #325, #1114, #861, .T. ) ;
#38 = ORIENTED_EDGE ( 'NONE', *, *, #1166, .F. ) ;
#39 = LINE ( 'NONE', #138, #77 ) ;
#40 = VECTOR ( 'NONE', #1093, 1000.000000000000000 ) ;
#41 = DIRECTION ( 'NONE',  ( -0.000000000000000000, -0.000000000000000000, -1.000000000000000000 ) ) ;
#42 = CARTESIAN_POINT ( 'NONE',  ( 11.50000000000000533, -18.00000000000000355, 0.000000000000000000 ) ) ;
#43 = CARTESIAN_POINT ( 'NONE',  ( 9.000000000000000000, 18.00000000000000000, 1.500000000000000000 ) ) ;
#44 = VERTEX_POINT ( 'NONE', #654 ) ;
#45 = AXIS2_PLACEMENT_3D ( 'NONE', #1006, #63, #806 ) ;
#46 = ORIENTED_EDGE ( 'NONE', *, *, #1, .F. ) ;
#47 = EDGE_CURVE ( 'NONE', #519, #547, #609, .T. ) ;
#48 = CARTESIAN_POINT ( 'NONE',  ( 11.49999999999999822, 18.00000000000000000, 0.000000000000000000 ) ) ;
#49 = DIRECTION ( 'NONE',  ( -0.000000000000000000, 0.000000000000000000, -1.000000000000000000 ) ) ;
#50 = CARTESIAN_POINT ( 'NONE',  ( -8.999999999999996447, -18.00000000000000355, 3.000000000000000000 ) ) ;
#51 = MECHANICAL_DESIGN_GEOMETRIC_PRESENTATION_REPRESENTATION (  '', ( #868 ), #530 ) ;
#52 = CARTESIAN_POINT ( 'NONE',  ( 0.4999999999999996669, -15.00000000000000355, 0.000000000000000000 ) ) ;
#53 = EDGE_LOOP ( 'NONE', ( #228, #297 ) ) ;
#54 = AXIS2_PLACEMENT_3D ( 'NONE', #281, #723, #410 ) ;
#55 = ORIENTED_EDGE ( 'NONE', *, *, #1235, .T. ) ;
#56 = DIRECTION ( 'NONE',  ( 0.000000000000000000, 0.000000000000000000, -1.000000000000000000 ) ) ;
#57 = EDGE_CURVE ( 'NONE', #1268, #1060, #1013, .T. ) ;
#58 = LINE ( 'NONE', #456, #552 ) ;
#59 = CARTESIAN_POINT ( 'NONE',  ( 7.000000000000001776, 6.000000000000000000, 3.000000000000000000 ) ) ;
#60 = VERTEX_POINT ( 'NONE', #1239 ) ;
#61 = CARTESIAN_POINT ( 'NONE',  ( 0.4999999999999996669, -15.00000000000000355, 0.4000000000000000222 ) ) ;
#62 = DIRECTION ( 'NONE',  ( 1.000000000000000000, 0.000000000000000000, 0.000000000000000000 ) ) ;
#63 = DIRECTION ( 'NONE',  ( -0.000000000000000000, 0.000000000000000000, 1.000000000000000000 ) ) ;
#64 = ADVANCED_FACE ( 'NONE', ( #1042 ), #95, .F. ) ;
#65 = LINE ( 'NONE', #59, #463 ) ;
#66 = CARTESIAN_POINT ( 'NONE',  ( 7.700000000000005507, -18.00000000000000355, 0.000000000000000000 ) ) ;
#67 = ORIENTED_EDGE ( 'NONE', *, *, #359, .F. ) ;
#68 = FACE_BOUND ( 'NONE', #762, .T. ) ;
#69 = DIRECTION ( 'NONE',  ( -1.000000000000000000, 0.000000000000000000, 0.000000000000000000 ) ) ;
#70 = CARTESIAN_POINT ( 'NONE',  ( -0.5000000000000005551, -15.00000000000000355, 0.4000000000000000222 ) ) ;
#71 = EDGE_CURVE ( 'NONE', #288, #937, #969, .T. ) ;
#72 = DIRECTION ( 'NONE',  ( 1.000000000000000000, 0.000000000000000000, 0.000000000000000000 ) ) ;
#73 = DIRECTION ( 'NONE',  ( -0.000000000000000000, -0.000000000000000000, -1.000000000000000000 ) ) ;
#74 = EDGE_LOOP ( 'NONE', ( #1299, #160, #5, #430 ) ) ;
#75 = CARTESIAN_POINT ( 'NONE',  ( -9.000000000000000000, 17.99999999999999645, 1.500000000000000000 ) ) ;
#76 = CARTESIAN_POINT ( 'NONE',  ( 10.00000000000000178, 9.000000000000001776, 0.000000000000000000 ) ) ;
#77 = VECTOR ( 'NONE', #883, 1000.000000000000000 ) ;
#78 = ORIENTED_EDGE ( 'NONE', *, *, #874, .T. ) ;
#79 = DIRECTION ( 'NONE',  ( 1.000000000000000000, 0.000000000000000000, 0.000000000000000000 ) ) ;
#80 = ADVANCED_FACE ( 'NONE', ( #179 ), #298, .F. ) ;
#81 = EDGE_LOOP ( 'NONE', ( #128, #528, #1296, #103 ) ) ;
#82 = EDGE_CURVE ( 'NONE', #14, #826, #671, .T. ) ;
#83 = FACE_BOUND ( 'NONE', #1345, .T. ) ;
#84 = DIRECTION ( 'NONE',  ( -1.000000000000000000, 0.000000000000000000, 0.000000000000000000 ) ) ;
#85 = PRESENTATION_STYLE_ASSIGNMENT (( #1056 ) ) ;
#86 = ORIENTED_EDGE ( 'NONE', *, *, #496, .T. ) ;
#87 = DIRECTION ( 'NONE',  ( -1.000000000000000000, 0.000000000000000000, 0.000000000000000000 ) ) ;
#88 = AXIS2_PLACEMENT_3D ( 'NONE', #1061, #1279, #235 ) ;
#89 = DIRECTION ( 'NONE',  ( -0.000000000000000000, 0.000000000000000000, 1.000000000000000000 ) ) ;
#90 = EDGE_CURVE ( 'NONE', #1008, #1198, #1338, .T. ) ;
#91 = LINE ( 'NONE', #831, #749 ) ;
#92 = AXIS2_PLACEMENT_3D ( 'NONE', #216, #428, #938 ) ;
#93 = CARTESIAN_POINT ( 'NONE',  ( 0.000000000000000000, 0.000000000000000000, 1.500000000000000000 ) ) ;
#94 = ORIENTED_EDGE ( 'NONE', *, *, #764, .T. ) ;
#95 = PLANE ( 'NONE',  #190 ) ;
#96 = VERTEX_POINT ( 'NONE', #1025 ) ;
#97 = AXIS2_PLACEMENT_3D ( 'NONE', #480, #1309, #1337 ) ;
#98 = PLANE ( 'NONE',  #939 ) ;
#99 = DIRECTION ( 'NONE',  ( -0.000000000000000000, -0.000000000000000000, -1.000000000000000000 ) ) ;
#100 = EDGE_CURVE ( 'NONE', #826, #14, #1155, .T. ) ;
#101 = VECTOR ( 'NONE', #1028, 1000.000000000000000 ) ;
#102 = CARTESIAN_POINT ( 'NONE',  ( 0.000000000000000000, -22.99999999999999645, 3.000000000000000000 ) ) ;
#103 = ORIENTED_EDGE ( 'NONE', *, *, #1292, .F. ) ;
#104 = CARTESIAN_POINT ( 'NONE',  ( -9.999999999999998224, 8.999999999999998224, 1.500000000000000000 ) ) ;
#105 = EDGE_LOOP ( 'NONE', ( #467, #675, #1078, #1364 ) ) ;
#106 = LINE ( 'NONE', #611, #273 ) ;
#107 = VECTOR ( 'NONE', #270, 1000.000000000000000 ) ;
#108 = DIRECTION ( 'NONE',  ( -0.000000000000000000, -0.000000000000000000, -1.000000000000000000 ) ) ;
#109 = ADVANCED_FACE ( 'NONE', ( #720 ), #272, .F. ) ;
#110 = ORIENTED_EDGE ( 'NONE', *, *, #1125, .T. ) ;
#111 = CARTESIAN_POINT ( 'NONE',  ( -11.49999999999999822, 17.99999999999999645, 1.500000000000000000 ) ) ;
#112 = ORIENTED_EDGE ( 'NONE', *, *, #1188, .F. ) ;
#113 = VERTEX_POINT ( 'NONE', #193 ) ;
#114 = FACE_OUTER_BOUND ( 'NONE', #532, .T. ) ;
#115 = AXIS2_PLACEMENT_3D ( 'NONE', #1017, #141, #688 ) ;
#116 = CARTESIAN_POINT ( 'NONE',  ( -14.00000000000000178, 20.00000000000000000, 3.000000000000000000 ) ) ;
#117 = EDGE_CURVE ( 'NONE', #223, #781, #975, .T. ) ;
#118 = ORIENTED_EDGE ( 'NONE', *, *, #1125, .F. ) ;
#119 = LINE ( 'NONE', #341, #964 ) ;
#120 = AXIS2_PLACEMENT_3D ( 'NONE', #804, #1347, #505 ) ;
#121 = AXIS2_PLACEMENT_3D ( 'NONE', #436, #345, #1175 ) ;
#122 = ORIENTED_EDGE ( 'NONE', *, *, #516, .T. ) ;
#123 = CARTESIAN_POINT ( 'NONE',  ( 9.000000000000005329, -18.00000000000000355, 3.000000000000000000 ) ) ;
#124 = ORIENTED_EDGE ( 'NONE', *, *, #1018, .T. ) ;
#125 = ORIENTED_EDGE ( 'NONE', *, *, #285, .T. ) ;
#126 = DIRECTION ( 'NONE',  ( 1.000000000000000000, 0.000000000000000000, 0.000000000000000000 ) ) ;
#127 = EDGE_CURVE ( 'NONE', #719, #96, #691, .T. ) ;
#128 = ORIENTED_EDGE ( 'NONE', *, *, #28, .F. ) ;
#129 = DIRECTION ( 'NONE',  ( 0.000000000000000000, -0.000000000000000000, -1.000000000000000000 ) ) ;
#130 = CIRCLE ( 'NONE', #545, 1.299999999999999156 ) ;
#131 = ORIENTED_EDGE ( 'NONE', *, *, #1103, .T. ) ;
#132 = CARTESIAN_POINT ( 'NONE',  ( -11.00000000000000355, 20.00000000000000000, 3.000000000000000000 ) ) ;
#133 = EDGE_CURVE ( 'NONE', #1024, #1270, #713, .T. ) ;
#134 = DIRECTION ( 'NONE',  ( -1.734723475976806848E-16, 1.000000000000000000, 0.000000000000000000 ) ) ;
#135 = ORIENTED_EDGE ( 'NONE', *, *, #1183, .T. ) ;
#136 = ORIENTED_EDGE ( 'NONE', *, *, #594, .F. ) ;
#137 = ORIENTED_EDGE ( 'NONE', *, *, #22, .F. ) ;
#138 = CARTESIAN_POINT ( 'NONE',  ( 13.99999999999999467, 0.000000000000000000, 0.000000000000000000 ) ) ;
#139 = VECTOR ( 'NONE', #9, 1000.000000000000000 ) ;
#140 = DIRECTION ( 'NONE',  ( 0.000000000000000000, 0.000000000000000000, -1.000000000000000000 ) ) ;
#141 = DIRECTION ( 'NONE',  ( -0.000000000000000000, 0.000000000000000000, 1.000000000000000000 ) ) ;
#142 = EDGE_CURVE ( 'NONE', #742, #1059, #130, .T. ) ;
#143 = FACE_OUTER_BOUND ( 'NONE', #24, .T. ) ;
#144 = ORIENTED_EDGE ( 'NONE', *, *, #1207, .F. ) ;
#145 = CLOSED_SHELL ( 'NONE', ( #472, #109, #926, #194, #1047, #233, #487, #607, #537, #64, #901, #162, #479, #350, #337, #559, #882, #906, #1176, #617, #441, #550, #205, #860, #1136, #452, #867, #1074, #1226, #983, #771, #241, #214, #229, #1035, #1055, #344, #757, #588, #851, #80, #376, #1298, #268 ) ) ;
#146 = VERTEX_POINT ( 'NONE', #795 ) ;
#147 = DIRECTION ( 'NONE',  ( -0.000000000000000000, 0.000000000000000000, 1.000000000000000000 ) ) ;
#148 = AXIS2_PLACEMENT_3D ( 'NONE', #412, #1343, #1143 ) ;
#149 = DIRECTION ( 'NONE',  ( 0.000000000000000000, 0.000000000000000000, -1.000000000000000000 ) ) ;
#150 = LINE ( 'NONE', #911, #707 ) ;
#151 = DIRECTION ( 'NONE',  ( -1.000000000000000000, 0.000000000000000000, 0.000000000000000000 ) ) ;
#152 = LINE ( 'NONE', #1000, #1320 ) ;
#153 = EDGE_CURVE ( 'NONE', #848, #1219, #755, .T. ) ;
#154 = CIRCLE ( 'NONE', #282, 2.999999999999999112 ) ;
#155 = ORIENTED_EDGE ( 'NONE', *, *, #1244, .T. ) ;
#156 = FACE_OUTER_BOUND ( 'NONE', #966, .T. ) ;
#157 = CYLINDRICAL_SURFACE ( 'NONE', #318, 0.5000000000000001110 ) ;
#158 = CIRCLE ( 'NONE', #686, 2.499999999999998668 ) ;
#159 = DIRECTION ( 'NONE',  ( 0.000000000000000000, -0.000000000000000000, -1.000000000000000000 ) ) ;
#160 = ORIENTED_EDGE ( 'NONE', *, *, #785, .T. ) ;
#161 = FACE_BOUND ( 'NONE', #1031, .T. ) ;
#162 = ADVANCED_FACE ( 'NONE', ( #819 ), #809, .F. ) ;
#163 = FACE_OUTER_BOUND ( 'NONE', #650, .T. ) ;
#164 = ADVANCED_BREP_SHAPE_REPRESENTATION ( 'JK-RTF-01-02-02 Switch Plate', ( #1129, #1215 ), #674 ) ;
#165 = DIRECTION ( 'NONE',  ( 1.000000000000000000, 1.239088197126290817E-16, 0.000000000000000000 ) ) ;
#166 = CARTESIAN_POINT ( 'NONE',  ( -9.999999999999998224, -11.00000000000000355, 0.000000000000000000 ) ) ;
#167 = ORIENTED_EDGE ( 'NONE', *, *, #142, .F. ) ;
#168 = DIRECTION ( 'NONE',  ( 1.000000000000000000, 0.000000000000000000, -0.000000000000000000 ) ) ;
#169 = CYLINDRICAL_SURFACE ( 'NONE', #631, 1.299999999999999156 ) ;
#170 = EDGE_CURVE ( 'NONE', #44, #254, #25, .T. ) ;
#171 = CARTESIAN_POINT ( 'NONE',  ( 7.700000000000000178, 18.00000000000000000, 1.500000000000000000 ) ) ;
#172 = FACE_OUTER_BOUND ( 'NONE', #646, .T. ) ;
#173 = CARTESIAN_POINT ( 'NONE',  ( -10.29999999999999538, -18.00000000000000355, 0.000000000000000000 ) ) ;
#174 = VERTEX_POINT ( 'NONE', #1354 ) ;
#175 = LINE ( 'NONE', #196, #227 ) ;
#176 = DIRECTION ( 'NONE',  ( -0.000000000000000000, -0.000000000000000000, -1.000000000000000000 ) ) ;
#177 = LINE ( 'NONE', #603, #754 ) ;
#178 = ORIENTED_EDGE ( 'NONE', *, *, #993, .T. ) ;
#179 = FACE_OUTER_BOUND ( 'NONE', #510, .T. ) ;
#180 = CYLINDRICAL_SURFACE ( 'NONE', #1189, 2.499999999999998668 ) ;
#181 = DIRECTION ( 'NONE',  ( 1.000000000000000000, 0.000000000000000000, 0.000000000000000000 ) ) ;
#182 = AXIS2_PLACEMENT_3D ( 'NONE', #555, #357, #370 ) ;
#183 = CARTESIAN_POINT ( 'NONE',  ( 10.00000000000000355, -11.00000000000000178, 0.000000000000000000 ) ) ;
#184 = ORIENTED_EDGE ( 'NONE', *, *, #11, .F. ) ;
#185 = CARTESIAN_POINT ( 'NONE',  ( -9.000000000000000000, 17.99999999999999645, 0.000000000000000000 ) ) ;
#186 = EDGE_CURVE ( 'NONE', #44, #1289, #400, .T. ) ;
#187 = FACE_BOUND ( 'NONE', #982, .T. ) ;
#188 = CARTESIAN_POINT ( 'NONE',  ( 13.99999999999999467, 20.00000000000000000, 0.000000000000000000 ) ) ;
#189 = DIRECTION ( 'NONE',  ( 0.000000000000000000, -0.000000000000000000, -1.000000000000000000 ) ) ;
#190 = AXIS2_PLACEMENT_3D ( 'NONE', #511, #279, #706 ) ;
#191 = SURFACE_STYLE_FILL_AREA ( #627 ) ;
#192 = VERTEX_POINT ( 'NONE', #908 ) ;
#193 = CARTESIAN_POINT ( 'NONE',  ( -0.5000000000000005551, -15.00000000000000355, 0.4000000000000000222 ) ) ;
#194 = ADVANCED_FACE ( 'NONE', ( #1331 ), #735, .F. ) ;
#195 = VERTEX_POINT ( 'NONE', #621 ) ;
#196 = CARTESIAN_POINT ( 'NONE',  ( -9.999999999999998224, -11.00000000000000355, 0.000000000000000000 ) ) ;
#197 = CARTESIAN_POINT ( 'NONE',  ( -6.999999999999998224, 0.000000000000000000, 3.000000000000000000 ) ) ;
#198 = CARTESIAN_POINT ( 'NONE',  ( 9.000000000000000000, 18.00000000000000000, 1.500000000000000000 ) ) ;
#199 = LINE ( 'NONE', #1246, #1351 ) ;
#200 = ORIENTED_EDGE ( 'NONE', *, *, #796, .T. ) ;
#201 = LINE ( 'NONE', #13, #139 ) ;
#202 = VERTEX_POINT ( 'NONE', #240 ) ;
#203 = ORIENTED_EDGE ( 'NONE', *, *, #694, .T. ) ;
#204 = CARTESIAN_POINT ( 'NONE',  ( 9.912705577010330480E-16, -8.000000000000001776, 1.500000000000000000 ) ) ;
#205 = ADVANCED_FACE ( 'NONE', ( #642, #750 ), #954, .F. ) ;
#206 = LINE ( 'NONE', #406, #1111 ) ;
#207 = ORIENTED_EDGE ( 'NONE', *, *, #1280, .F. ) ;
#208 = FACE_OUTER_BOUND ( 'NONE', #676, .T. ) ;
#209 = ORIENTED_EDGE ( 'NONE', *, *, #721, .F. ) ;
#210 = VERTEX_POINT ( 'NONE', #116 ) ;
#211 = FACE_OUTER_BOUND ( 'NONE', #340, .T. ) ;
#212 = CIRCLE ( 'NONE', #766, 1.299999999999999156 ) ;
#213 = PRODUCT ( 'JK-RTF-01-02-02 Switch Plate', 'JK-RTF-01-02-02 Switch Plate', '', ( #839 ) ) ;
#214 = ADVANCED_FACE ( 'NONE', ( #1202 ), #346, .T. ) ;
#215 = EDGE_LOOP ( 'NONE', ( #630, #985, #1273, #956 ) ) ;
#216 = CARTESIAN_POINT ( 'NONE',  ( -8.999999999999996447, -18.00000000000000355, 0.000000000000000000 ) ) ;
#217 = PRODUCT_DEFINITION_FORMATION_WITH_SPECIFIED_SOURCE ( 'ANY', '', #213, .NOT_KNOWN. ) ;
#218 = ORIENTED_EDGE ( 'NONE', *, *, #1339, .T. ) ;
#219 = VERTEX_POINT ( 'NONE', #1050 ) ;
#220 = CARTESIAN_POINT ( 'NONE',  ( 9.000000000000000000, 18.00000000000000000, 0.000000000000000000 ) ) ;
#221 = AXIS2_PLACEMENT_3D ( 'NONE', #1048, #952, #936 ) ;
#222 = DIRECTION ( 'NONE',  ( -1.000000000000000000, -8.673617379884034239E-17, 0.000000000000000000 ) ) ;
#223 = VERTEX_POINT ( 'NONE', #980 ) ;
#224 = AXIS2_PLACEMENT_3D ( 'NONE', #43, #589, #999 ) ;
#225 = ORIENTED_EDGE ( 'NONE', *, *, #153, .F. ) ;
#226 = CARTESIAN_POINT ( 'NONE',  ( 10.99999999999999645, 23.00000000000000000, 0.000000000000000000 ) ) ;
#227 = VECTOR ( 'NONE', #941, 1000.000000000000000 ) ;
#228 = ORIENTED_EDGE ( 'NONE', *, *, #1065, .F. ) ;
#229 = ADVANCED_FACE ( 'NONE', ( #1071 ), #842, .F. ) ;
#230 = ORIENTED_EDGE ( 'NONE', *, *, #643, .F. ) ;
#231 = DIRECTION ( 'NONE',  ( -0.000000000000000000, -0.000000000000000000, -1.000000000000000000 ) ) ;
#232 = CARTESIAN_POINT ( 'NONE',  ( -11.00000000000000355, -19.99999999999999645, 3.000000000000000000 ) ) ;
#233 = ADVANCED_FACE ( 'NONE', ( #208 ), #662, .F. ) ;
#234 = ORIENTED_EDGE ( 'NONE', *, *, #683, .T. ) ;
#235 = DIRECTION ( 'NONE',  ( 1.000000000000000000, 0.000000000000000000, 0.000000000000000000 ) ) ;
#236 = ORIENTED_EDGE ( 'NONE', *, *, #1065, .T. ) ;
#237 = ORIENTED_EDGE ( 'NONE', *, *, #82, .T. ) ;
#238 = ORIENTED_EDGE ( 'NONE', *, *, #1196, .F. ) ;
#239 = CARTESIAN_POINT ( 'NONE',  ( 6.500000000000000888, 18.00000000000000000, 1.500000000000000000 ) ) ;
#240 = CARTESIAN_POINT ( 'NONE',  ( -14.00000000000000178, -19.99999999999999645, 3.000000000000000000 ) ) ;
#241 = ADVANCED_FACE ( 'NONE', ( #549 ), #33, .T. ) ;
#242 = CARTESIAN_POINT ( 'NONE',  ( -6.999999999999998224, 5.999999999999998224, 3.000000000000000000 ) ) ;
#243 = CARTESIAN_POINT ( 'NONE',  ( -0.5000000000000005551, -15.00000000000000355, 0.000000000000000000 ) ) ;
#244 = VERTEX_POINT ( 'NONE', #312 ) ;
#245 = CIRCLE ( 'NONE', #468, 2.500000000000000444 ) ;
#246 = EDGE_LOOP ( 'NONE', ( #521, #504 ) ) ;
#247 = DIRECTION ( 'NONE',  ( 0.000000000000000000, -0.000000000000000000, 1.000000000000000000 ) ) ;
#248 = AXIS2_PLACEMENT_3D ( 'NONE', #520, #409, #947 ) ;
#249 = DIRECTION ( 'NONE',  ( 0.000000000000000000, 0.000000000000000000, -1.000000000000000000 ) ) ;
#250 = EDGE_CURVE ( 'NONE', #1114, #937, #448, .T. ) ;
#251 = DIRECTION ( 'NONE',  ( -0.000000000000000000, -0.000000000000000000, -1.000000000000000000 ) ) ;
#252 = ORIENTED_EDGE ( 'NONE', *, *, #330, .T. ) ;
#253 = VECTOR ( 'NONE', #590, 1000.000000000000000 ) ;
#254 = VERTEX_POINT ( 'NONE', #527 ) ;
#255 = DIRECTION ( 'NONE',  ( -0.000000000000000000, -0.000000000000000000, -1.000000000000000000 ) ) ;
#256 = AXIS2_PLACEMENT_3D ( 'NONE', #70, #1229, #366 ) ;
#257 = PLANE ( 'NONE',  #981 ) ;
#258 = DIRECTION ( 'NONE',  ( 1.000000000000000000, 0.000000000000000000, 0.000000000000000000 ) ) ;
#259 = DIRECTION ( 'NONE',  ( 1.000000000000000000, 0.000000000000000000, 0.000000000000000000 ) ) ;
#260 = VERTEX_POINT ( 'NONE', #1363 ) ;
#261 = PLANE ( 'NONE',  #294 ) ;
#262 = VECTOR ( 'NONE', #960, 1000.000000000000000 ) ;
#263 = CYLINDRICAL_SURFACE ( 'NONE', #1173, 2.999999999999999112 ) ;
#264 = LINE ( 'NONE', #558, #862 ) ;
#265 = AXIS2_PLACEMENT_3D ( 'NONE', #1105, #251, #151 ) ;
#266 = CARTESIAN_POINT ( 'NONE',  ( 0.000000000000000000, 23.00000000000000000, 3.000000000000000000 ) ) ;
#267 = DIRECTION ( 'NONE',  ( -0.000000000000000000, -0.000000000000000000, -1.000000000000000000 ) ) ;
#268 = ADVANCED_FACE ( 'NONE', ( #1274 ), #1269, .T. ) ;
#269 = DIRECTION ( 'NONE',  ( -0.000000000000000000, -0.000000000000000000, -1.000000000000000000 ) ) ;
#270 = DIRECTION ( 'NONE',  ( -0.000000000000000000, -0.000000000000000000, -1.000000000000000000 ) ) ;
#271 = DIRECTION ( 'NONE',  ( 0.000000000000000000, 1.000000000000000000, 0.000000000000000000 ) ) ;
#272 = CYLINDRICAL_SURFACE ( 'NONE', #1328, 2.499999999999998668 ) ;
#273 = VECTOR ( 'NONE', #927, 1000.000000000000000 ) ;
#274 = ORIENTED_EDGE ( 'NONE', *, *, #82, .F. ) ;
#275 = LINE ( 'NONE', #924, #292 ) ;
#276 = FACE_OUTER_BOUND ( 'NONE', #571, .T. ) ;
#277 = PRODUCT_RELATED_PRODUCT_CATEGORY ( 'part', '', ( #213 ) ) ;
#278 = DIRECTION ( 'NONE',  ( -8.673617379884034239E-17, 1.000000000000000000, 0.000000000000000000 ) ) ;
#279 = DIRECTION ( 'NONE',  ( -1.239088197126290817E-16, 1.000000000000000000, 0.000000000000000000 ) ) ;
#280 = ORIENTED_EDGE ( 'NONE', *, *, #657, .T. ) ;
#281 = CARTESIAN_POINT ( 'NONE',  ( -8.999999999999996447, -18.00000000000000355, 1.500000000000000000 ) ) ;
#282 = AXIS2_PLACEMENT_3D ( 'NONE', #296, #1152, #725 ) ;
#283 = CARTESIAN_POINT ( 'NONE',  ( 10.00000000000000178, 9.000000000000001776, 1.500000000000000000 ) ) ;
#284 =( LENGTH_UNIT ( ) NAMED_UNIT ( * ) SI_UNIT ( .MILLI., .METRE. ) );
#285 = EDGE_CURVE ( 'NONE', #408, #319, #201, .T. ) ;
#286 = CIRCLE ( 'NONE', #97, 2.500000000000000444 ) ;
#287 = DIRECTION ( 'NONE',  ( 1.000000000000000000, 0.000000000000000000, 0.000000000000000000 ) ) ;
#288 = VERTEX_POINT ( 'NONE', #857 ) ;
#289 = DIRECTION ( 'NONE',  ( -1.000000000000000000, 0.000000000000000000, 0.000000000000000000 ) ) ;
#290 = ORIENTED_EDGE ( 'NONE', *, *, #934, .T. ) ;
#291 = LINE ( 'NONE', #1045, #648 ) ;
#292 = VECTOR ( 'NONE', #1037, 1000.000000000000000 ) ;
#293 = DIRECTION ( 'NONE',  ( 0.000000000000000000, 0.000000000000000000, 1.000000000000000000 ) ) ;
#294 = AXIS2_PLACEMENT_3D ( 'NONE', #909, #247, #168 ) ;
#295 = EDGE_CURVE ( 'NONE', #210, #202, #835, .T. ) ;
#296 = CARTESIAN_POINT ( 'NONE',  ( 10.99999999999999645, 20.00000000000000000, 3.000000000000000000 ) ) ;
#297 = ORIENTED_EDGE ( 'NONE', *, *, #37, .F. ) ;
#298 = PLANE ( 'NONE',  #1282 ) ;
#299 = ORIENTED_EDGE ( 'NONE', *, *, #955, .F. ) ;
#300 = DIRECTION ( 'NONE',  ( -0.000000000000000000, 0.000000000000000000, 1.000000000000000000 ) ) ;
#301 = CYLINDRICAL_SURFACE ( 'NONE', #1062, 1.299999999999999156 ) ;
#302 = CARTESIAN_POINT ( 'NONE',  ( -11.00000000000000355, 23.00000000000000000, 3.000000000000000000 ) ) ;
#303 = VERTEX_POINT ( 'NONE', #531 ) ;
#304 = CARTESIAN_POINT ( 'NONE',  ( 7.000000000000001776, 6.000000000000000000, 1.500000000000000000 ) ) ;
#305 = EDGE_LOOP ( 'NONE', ( #1080, #290, #200, #1096, #19, #320, #1177, #876 ) ) ;
#306 = EDGE_CURVE ( 'NONE', #195, #655, #1277, .T. ) ;
#307 = ORIENTED_EDGE ( 'NONE', *, *, #71, .T. ) ;
#308 = PLANE ( 'NONE',  #557 ) ;
#309 = APPLICATION_PROTOCOL_DEFINITION ( 'draft international standard', 'automotive_design', 1998, #599 ) ;
#310 = CARTESIAN_POINT ( 'NONE',  ( -6.499999999999995559, -18.00000000000000355, 0.000000000000000000 ) ) ;
#311 = ORIENTED_EDGE ( 'NONE', *, *, #15, .T. ) ;
#312 = CARTESIAN_POINT ( 'NONE',  ( 6.500000000000000888, 18.00000000000000000, 0.000000000000000000 ) ) ;
#313 = VERTEX_POINT ( 'NONE', #304 ) ;
#314 = EDGE_CURVE ( 'NONE', #864, #1008, #1281, .T. ) ;
#315 = DIRECTION ( 'NONE',  ( -1.239088197126290817E-16, 1.000000000000000000, 0.000000000000000000 ) ) ;
#316 = ORIENTED_EDGE ( 'NONE', *, *, #1026, .F. ) ;
#317 = DIRECTION ( 'NONE',  ( 0.000000000000000000, -1.000000000000000000, 0.000000000000000000 ) ) ;
#318 = AXIS2_PLACEMENT_3D ( 'NONE', #776, #41, #365 ) ;
#319 = VERTEX_POINT ( 'NONE', #415 ) ;
#320 = ORIENTED_EDGE ( 'NONE', *, *, #416, .T. ) ;
#321 = DIRECTION ( 'NONE',  ( 1.000000000000000000, 1.239088197126290817E-16, 0.000000000000000000 ) ) ;
#322 = VECTOR ( 'NONE', #570, 1000.000000000000000 ) ;
#323 = CARTESIAN_POINT ( 'NONE',  ( -6.500000000000000888, 17.99999999999999645, 1.500000000000000000 ) ) ;
#324 = CIRCLE ( 'NONE', #610, 1.299999999999999156 ) ;
#325 = VERTEX_POINT ( 'NONE', #323 ) ;
#326 = AXIS2_PLACEMENT_3D ( 'NONE', #123, #1193, #548 ) ;
#327 = ORIENTED_EDGE ( 'NONE', *, *, #1348, .T. ) ;
#328 = CARTESIAN_POINT ( 'NONE',  ( -11.00000000000000355, 23.00000000000000000, 3.000000000000000000 ) ) ;
#329 = VECTOR ( 'NONE', #1238, 1000.000000000000000 ) ;
#330 = EDGE_CURVE ( 'NONE', #1303, #146, #1336, .T. ) ;
#331 = AXIS2_PLACEMENT_3D ( 'NONE', #1064, #140, #1302 ) ;
#332 = ORIENTED_EDGE ( 'NONE', *, *, #1011, .F. ) ;
#333 = VECTOR ( 'NONE', #165, 1000.000000000000000 ) ;
#334 = ORIENTED_EDGE ( 'NONE', *, *, #1144, .F. ) ;
#335 = DIRECTION ( 'NONE',  ( -0.000000000000000000, 0.000000000000000000, 1.000000000000000000 ) ) ;
#336 = VECTOR ( 'NONE', #608, 1000.000000000000000 ) ;
#337 = ADVANCED_FACE ( 'NONE', ( #276 ), #1237, .T. ) ;
#338 = ORIENTED_EDGE ( 'NONE', *, *, #606, .T. ) ;
#339 = CIRCLE ( 'NONE', #693, 2.999999999999999112 ) ;
#340 = EDGE_LOOP ( 'NONE', ( #638, #167, #1146, #252 ) ) ;
#341 = CARTESIAN_POINT ( 'NONE',  ( -0.4999999999999998890, -13.00000000000000178, 0.4000000000000000222 ) ) ;
#342 = ORIENTED_EDGE ( 'NONE', *, *, #944, .T. ) ;
#343 = ORIENTED_EDGE ( 'NONE', *, *, #250, .T. ) ;
#344 = ADVANCED_FACE ( 'NONE', ( #163 ), #263, .T. ) ;
#345 = DIRECTION ( 'NONE',  ( 0.000000000000000000, 0.000000000000000000, -1.000000000000000000 ) ) ;
#346 = PLANE ( 'NONE',  #1043 ) ;
#347 = ORIENTED_EDGE ( 'NONE', *, *, #961, .F. ) ;
#348 = ORIENTED_EDGE ( 'NONE', *, *, #533, .T. ) ;
#349 = LINE ( 'NONE', #1098, #853 ) ;
#350 = ADVANCED_FACE ( 'NONE', ( #1321 ), #257, .T. ) ;
#351 = CYLINDRICAL_SURFACE ( 'NONE', #522, 2.499999999999998668 ) ;
#352 = LINE ( 'NONE', #1102, #499 ) ;
#353 = DIRECTION ( 'NONE',  ( 0.000000000000000000, 0.000000000000000000, -1.000000000000000000 ) ) ;
#354 = CARTESIAN_POINT ( 'NONE',  ( 6.500000000000000888, 18.00000000000000000, 1.500000000000000000 ) ) ;
#355 = AXIS2_PLACEMENT_3D ( 'NONE', #647, #335, #31 ) ;
#356 = ORIENTED_EDGE ( 'NONE', *, *, #1158, .F. ) ;
#357 = DIRECTION ( 'NONE',  ( -0.000000000000000000, -0.000000000000000000, -1.000000000000000000 ) ) ;
#358 = DIRECTION ( 'NONE',  ( 1.000000000000000000, 0.000000000000000000, 0.000000000000000000 ) ) ;
#359 = EDGE_CURVE ( 'NONE', #774, #244, #914, .T. ) ;
#360 = DIRECTION ( 'NONE',  ( -1.000000000000000000, 0.000000000000000000, 0.000000000000000000 ) ) ;
#361 = DIRECTION ( 'NONE',  ( -0.000000000000000000, 0.000000000000000000, 1.000000000000000000 ) ) ;
#362 = AXIS2_PLACEMENT_3D ( 'NONE', #1346, #1148, #913 ) ;
#363 = ORIENTED_EDGE ( 'NONE', *, *, #330, .F. ) ;
#364 = FACE_BOUND ( 'NONE', #708, .T. ) ;
#365 = DIRECTION ( 'NONE',  ( -1.000000000000000000, 0.000000000000000000, 0.000000000000000000 ) ) ;
#366 = DIRECTION ( 'NONE',  ( -3.252606517456510837E-16, -1.000000000000000000, 0.000000000000000000 ) ) ;
#367 = EDGE_CURVE ( 'NONE', #1283, #963, #581, .T. ) ;
#368 = LINE ( 'NONE', #793, #333 ) ;
#369 = DIRECTION ( 'NONE',  ( 1.000000000000000000, 0.000000000000000000, 0.000000000000000000 ) ) ;
#370 = DIRECTION ( 'NONE',  ( -1.000000000000000000, 0.000000000000000000, 0.000000000000000000 ) ) ;
#371 = AXIS2_PLACEMENT_3D ( 'NONE', #1032, #605, #1123 ) ;
#372 = CARTESIAN_POINT ( 'NONE',  ( 0.4999999999999996669, -15.00000000000000355, 0.4000000000000000222 ) ) ;
#373 = DIRECTION ( 'NONE',  ( 1.000000000000000000, 0.000000000000000000, 0.000000000000000000 ) ) ;
#374 = CARTESIAN_POINT ( 'NONE',  ( -14.00000000000000178, 20.00000000000000000, 0.000000000000000000 ) ) ;
#375 = DIRECTION ( 'NONE',  ( 1.000000000000000000, 0.000000000000000000, 0.000000000000000000 ) ) ;
#376 = ADVANCED_FACE ( 'NONE', ( #1005 ), #157, .F. ) ;
#377 = ORIENTED_EDGE ( 'NONE', *, *, #657, .F. ) ;
#378 = CARTESIAN_POINT ( 'NONE',  ( -10.29999999999999893, 17.99999999999999645, 0.000000000000000000 ) ) ;
#379 = VECTOR ( 'NONE', #1163, 1000.000000000000000 ) ;
#380 = FACE_OUTER_BOUND ( 'NONE', #422, .T. ) ;
#381 = DIRECTION ( 'NONE',  ( -0.000000000000000000, -0.000000000000000000, 1.000000000000000000 ) ) ;
#382 = LINE ( 'NONE', #243, #1115 ) ;
#383 = CARTESIAN_POINT ( 'NONE',  ( 9.000000000000000000, 18.00000000000000000, 3.000000000000000000 ) ) ;
#384 = ORIENTED_EDGE ( 'NONE', *, *, #90, .F. ) ;
#385 = FACE_BOUND ( 'NONE', #660, .T. ) ;
#386 = EDGE_CURVE ( 'NONE', #319, #313, #996, .T. ) ;
#387 = VECTOR ( 'NONE', #381, 1000.000000000000000 ) ;
#388 = LINE ( 'NONE', #933, #807 ) ;
#389 = SHAPE_DEFINITION_REPRESENTATION ( #450, #164 ) ;
#390 = PLANE ( 'NONE',  #1067 ) ;
#391 = ORIENTED_EDGE ( 'NONE', *, *, #516, .F. ) ;
#392 = DIRECTION ( 'NONE',  ( 1.000000000000000000, 0.000000000000000000, 0.000000000000000000 ) ) ;
#393 = ORIENTED_EDGE ( 'NONE', *, *, #832, .F. ) ;
#394 = DIRECTION ( 'NONE',  ( 1.000000000000000000, 0.000000000000000000, 0.000000000000000000 ) ) ;
#395 = AXIS2_PLACEMENT_3D ( 'NONE', #718, #705, #7 ) ;
#396 = PLANE ( 'NONE',  #945 ) ;
#397 = EDGE_CURVE ( 'NONE', #1249, #1060, #442, .T. ) ;
#398 = SURFACE_SIDE_STYLE ('',( #191 ) ) ;
#399 = ORIENTED_EDGE ( 'NONE', *, *, #1026, .T. ) ;
#400 = LINE ( 'NONE', #827, #1164 ) ;
#401 = ORIENTED_EDGE ( 'NONE', *, *, #874, .F. ) ;
#402 = CARTESIAN_POINT ( 'NONE',  ( 10.99999999999999645, 20.00000000000000000, 0.000000000000000000 ) ) ;
#403 = VECTOR ( 'NONE', #808, 1000.000000000000000 ) ;
#404 = CARTESIAN_POINT ( 'NONE',  ( 9.000000000000000000, 18.00000000000000000, 0.000000000000000000 ) ) ;
#405 = DIRECTION ( 'NONE',  ( 1.000000000000000000, 0.000000000000000000, 0.000000000000000000 ) ) ;
#406 = CARTESIAN_POINT ( 'NONE',  ( 10.30000000000000426, -18.00000000000000355, 0.000000000000000000 ) ) ;
#407 = EDGE_CURVE ( 'NONE', #254, #641, #58, .T. ) ;
#408 = VERTEX_POINT ( 'NONE', #905 ) ;
#409 = DIRECTION ( 'NONE',  ( 0.000000000000000000, 0.000000000000000000, -1.000000000000000000 ) ) ;
#410 = DIRECTION ( 'NONE',  ( -1.000000000000000000, 0.000000000000000000, 0.000000000000000000 ) ) ;
#411 = CYLINDRICAL_SURFACE ( 'NONE', #925, 2.999999999999999112 ) ;
#412 = CARTESIAN_POINT ( 'NONE',  ( -3.930973946280843214E-16, -15.00000000000000355, 0.4000000000000000222 ) ) ;
#413 =( NAMED_UNIT ( * ) PLANE_ANGLE_UNIT ( ) SI_UNIT ( $, .RADIAN. ) );
#414 = ORIENTED_EDGE ( 'NONE', *, *, #1157, .T. ) ;
#415 = CARTESIAN_POINT ( 'NONE',  ( 7.000000000000001776, -8.000000000000000000, 1.500000000000000000 ) ) ;
#416 = EDGE_CURVE ( 'NONE', #1024, #174, #1092, .T. ) ;
#417 = ORIENTED_EDGE ( 'NONE', *, *, #127, .F. ) ;
#418 = VERTEX_POINT ( 'NONE', #783 ) ;
#419 = CARTESIAN_POINT ( 'NONE',  ( -11.00000000000000355, 20.00000000000000000, 3.000000000000000000 ) ) ;
#420 =( NAMED_UNIT ( * ) SI_UNIT ( $, .STERADIAN. ) SOLID_ANGLE_UNIT ( ) );
#421 = CARTESIAN_POINT ( 'NONE',  ( -6.999999999999998224, 0.000000000000000000, 3.000000000000000000 ) ) ;
#422 = EDGE_LOOP ( 'NONE', ( #1353, #850, #399, #1162 ) ) ;
#423 = DIRECTION ( 'NONE',  ( 1.000000000000000000, 0.000000000000000000, 0.000000000000000000 ) ) ;
#424 = EDGE_LOOP ( 'NONE', ( #203, #959 ) ) ;
#425 = EDGE_LOOP ( 'NONE', ( #1041, #2, #1179, #1027 ) ) ;
#426 = CARTESIAN_POINT ( 'NONE',  ( -6.999999999999998224, 5.999999999999998224, 3.000000000000000000 ) ) ;
#427 = CIRCLE ( 'NONE', #182, 1.299999999999999156 ) ;
#428 = DIRECTION ( 'NONE',  ( -0.000000000000000000, -0.000000000000000000, -1.000000000000000000 ) ) ;
#429 = ORIENTED_EDGE ( 'NONE', *, *, #386, .T. ) ;
#430 = ORIENTED_EDGE ( 'NONE', *, *, #970, .T. ) ;
#431 = CARTESIAN_POINT ( 'NONE',  ( -9.999999999999998224, 8.999999999999998224, 1.500000000000000000 ) ) ;
#432 = EDGE_CURVE ( 'NONE', #113, #60, #670, .T. ) ;
#433 = AXIS2_PLACEMENT_3D ( 'NONE', #1218, #361, #259 ) ;
#434 = ORIENTED_EDGE ( 'NONE', *, *, #90, .T. ) ;
#435 = EDGE_LOOP ( 'NONE', ( #348, #136, #1199, #311 ) ) ;
#436 = CARTESIAN_POINT ( 'NONE',  ( -3.930973946280843214E-16, -15.00000000000000355, 0.000000000000000000 ) ) ;
#437 = EDGE_CURVE ( 'NONE', #841, #994, #1327, .T. ) ;
#438 = AXIS2_PLACEMENT_3D ( 'NONE', #1131, #495, #369 ) ;
#439 = VERTEX_POINT ( 'NONE', #574 ) ;
#440 = DIRECTION ( 'NONE',  ( -0.000000000000000000, -0.000000000000000000, -1.000000000000000000 ) ) ;
#441 = ADVANCED_FACE ( 'NONE', ( #695 ), #169, .F. ) ;
#442 = CIRCLE ( 'NONE', #1230, 1.299999999999999156 ) ;
#443 = ORIENTED_EDGE ( 'NONE', *, *, #703, .F. ) ;
#444 = AXIS2_PLACEMENT_3D ( 'NONE', #539, #760, #12 ) ;
#445 = ORIENTED_EDGE ( 'NONE', *, *, #314, .T. ) ;
#446 = DIRECTION ( 'NONE',  ( -0.000000000000000000, 0.000000000000000000, 1.000000000000000000 ) ) ;
#447 = UNCERTAINTY_MEASURE_WITH_UNIT (LENGTH_MEASURE( 1.000000000000000082E-05 ), #284, 'distance_accuracy_value', 'NONE');
#448 = LINE ( 'NONE', #111, #262 ) ;
#449 = AXIS2_PLACEMENT_3D ( 'NONE', #1016, #249, #69 ) ;
#450 = PRODUCT_DEFINITION_SHAPE ( 'NONE', 'NONE',  #563 ) ;
#451 = LINE ( 'NONE', #880, #922 ) ;
#452 = ADVANCED_FACE ( 'NONE', ( #380 ), #586, .F. ) ;
#453 = ORIENTED_EDGE ( 'NONE', *, *, #47, .T. ) ;
#454 = CIRCLE ( 'NONE', #326, 1.299999999999999156 ) ;
#455 = DIRECTION ( 'NONE',  ( 1.000000000000000000, 8.673617379884034239E-17, 0.000000000000000000 ) ) ;
#456 = CARTESIAN_POINT ( 'NONE',  ( 6.500000000000004441, -18.00000000000000355, 1.500000000000000000 ) ) ;
#457 = CARTESIAN_POINT ( 'NONE',  ( -6.999999999999998224, -8.000000000000001776, 1.500000000000000000 ) ) ;
#458 = CIRCLE ( 'NONE', #395, 1.299999999999999156 ) ;
#459 = CARTESIAN_POINT ( 'NONE',  ( -11.49999999999999822, 17.99999999999999645, 1.500000000000000000 ) ) ;
#460 = ORIENTED_EDGE ( 'NONE', *, *, #1263, .T. ) ;
#461 = ORIENTED_EDGE ( 'NONE', *, *, #1079, .F. ) ;
#462 = DIRECTION ( 'NONE',  ( 1.000000000000000000, 0.000000000000000000, 0.000000000000000000 ) ) ;
#463 = VECTOR ( 'NONE', #902, 1000.000000000000000 ) ;
#464 = DIRECTION ( 'NONE',  ( -0.000000000000000000, 0.000000000000000000, 1.000000000000000000 ) ) ;
#465 = CIRCLE ( 'NONE', #514, 0.5000000000000001110 ) ;
#466 = CARTESIAN_POINT ( 'NONE',  ( -6.999999999999998224, 0.000000000000000000, 1.500000000000000000 ) ) ;
#467 = ORIENTED_EDGE ( 'NONE', *, *, #35, .F. ) ;
#468 = AXIS2_PLACEMENT_3D ( 'NONE', #1295, #865, #1076 ) ;
#469 = ORIENTED_EDGE ( 'NONE', *, *, #832, .T. ) ;
#470 = DIRECTION ( 'NONE',  ( -0.000000000000000000, 0.000000000000000000, 1.000000000000000000 ) ) ;
#471 = DIRECTION ( 'NONE',  ( 0.000000000000000000, 1.000000000000000000, 0.000000000000000000 ) ) ;
#472 = ADVANCED_FACE ( 'NONE', ( #483 ), #351, .F. ) ;
#473 = DIRECTION ( 'NONE',  ( -0.000000000000000000, -0.000000000000000000, -1.000000000000000000 ) ) ;
#474 = CARTESIAN_POINT ( 'NONE',  ( -8.999999999999996447, -18.00000000000000355, 1.500000000000000000 ) ) ;
#475 = EDGE_LOOP ( 'NONE', ( #962, #1149, #461, #834 ) ) ;
#476 = FACE_BOUND ( 'NONE', #978, .T. ) ;
#477 = CARTESIAN_POINT ( 'NONE',  ( 7.000000000000001776, 0.000000000000000000, 1.500000000000000000 ) ) ;
#478 = CARTESIAN_POINT ( 'NONE',  ( 7.700000000000005507, -18.00000000000000355, 3.000000000000000000 ) ) ;
#479 = ADVANCED_FACE ( 'NONE', ( #1054 ), #308, .F. ) ;
#480 = CARTESIAN_POINT ( 'NONE',  ( 9.000000000000005329, -18.00000000000000355, 0.000000000000000000 ) ) ;
#481 = DIRECTION ( 'NONE',  ( 0.000000000000000000, 0.000000000000000000, -1.000000000000000000 ) ) ;
#482 = CARTESIAN_POINT ( 'NONE',  ( 9.000000000000005329, -18.00000000000000355, 0.000000000000000000 ) ) ;
#483 = FACE_OUTER_BOUND ( 'NONE', #658, .T. ) ;
#484 = LINE ( 'NONE', #792, #387 ) ;
#485 = DIRECTION ( 'NONE',  ( 1.000000000000000000, 0.000000000000000000, 0.000000000000000000 ) ) ;
#486 = DIRECTION ( 'NONE',  ( 0.000000000000000000, 0.000000000000000000, -1.000000000000000000 ) ) ;
#487 = ADVANCED_FACE ( 'NONE', ( #1046 ), #1168, .F. ) ;
#488 = DIRECTION ( 'NONE',  ( 0.000000000000000000, 0.000000000000000000, -1.000000000000000000 ) ) ;
#489 = CIRCLE ( 'NONE', #1147, 2.500000000000000444 ) ;
#490 = AXIS2_PLACEMENT_3D ( 'NONE', #1228, #1221, #62 ) ;
#491 = CARTESIAN_POINT ( 'NONE',  ( -9.000000000000000000, 17.99999999999999645, 0.000000000000000000 ) ) ;
#492 = DIRECTION ( 'NONE',  ( -1.000000000000000000, 0.000000000000000000, 0.000000000000000000 ) ) ;
#493 = FILL_AREA_STYLE_COLOUR ( '', #644 ) ;
#494 = ORIENTED_EDGE ( 'NONE', *, *, #142, .T. ) ;
#495 = DIRECTION ( 'NONE',  ( -0.000000000000000000, 0.000000000000000000, 1.000000000000000000 ) ) ;
#496 = EDGE_CURVE ( 'NONE', #1219, #841, #106, .T. ) ;
#497 = PLANE ( 'NONE',  #761 ) ;
#498 = AXIS2_PLACEMENT_3D ( 'NONE', #185, #1233, #1139 ) ;
#499 = VECTOR ( 'NONE', #998, 1000.000000000000000 ) ;
#500 = CARTESIAN_POINT ( 'NONE',  ( 0.000000000000000000, -22.99999999999999645, 3.000000000000000000 ) ) ;
#501 = VECTOR ( 'NONE', #745, 1000.000000000000000 ) ;
#502 = ORIENTED_EDGE ( 'NONE', *, *, #1183, .F. ) ;
#503 = CARTESIAN_POINT ( 'NONE',  ( 9.000000000000005329, -18.00000000000000355, 1.500000000000000000 ) ) ;
#504 = ORIENTED_EDGE ( 'NONE', *, *, #1085, .F. ) ;
#505 = DIRECTION ( 'NONE',  ( 0.000000000000000000, 0.000000000000000000, 1.000000000000000000 ) ) ;
#506 = VECTOR ( 'NONE', #287, 1000.000000000000000 ) ;
#507 = PLANE ( 'NONE',  #1236 ) ;
#508 = DIRECTION ( 'NONE',  ( 0.000000000000000000, 0.000000000000000000, 1.000000000000000000 ) ) ;
#509 = DIRECTION ( 'NONE',  ( -0.000000000000000000, 0.000000000000000000, 1.000000000000000000 ) ) ;
#510 = EDGE_LOOP ( 'NONE', ( #122, #623, #740, #628 ) ) ;
#511 = CARTESIAN_POINT ( 'NONE',  ( -7.434529182757744409E-16, 5.999999999999999112, 3.000000000000000000 ) ) ;
#512 = ORIENTED_EDGE ( 'NONE', *, *, #572, .F. ) ;
#513 = CARTESIAN_POINT ( 'NONE',  ( -7.434529182757744409E-16, 5.999999999999999112, 1.500000000000000000 ) ) ;
#514 = AXIS2_PLACEMENT_3D ( 'NONE', #692, #56, #1319 ) ;
#515 = CARTESIAN_POINT ( 'NONE',  ( 0.4999999999999996669, -15.00000000000000355, 0.000000000000000000 ) ) ;
#516 = EDGE_CURVE ( 'NONE', #439, #994, #602, .T. ) ;
#517 = CIRCLE ( 'NONE', #121, 0.5000000000000001110 ) ;
#518 =( LENGTH_UNIT ( ) NAMED_UNIT ( * ) SI_UNIT ( .MILLI., .METRE. ) );
#519 = VERTEX_POINT ( 'NONE', #1272 ) ;
#520 = CARTESIAN_POINT ( 'NONE',  ( -3.930973946280843214E-16, -15.00000000000000355, 0.4000000000000000222 ) ) ;
#521 = ORIENTED_EDGE ( 'NONE', *, *, #47, .F. ) ;
#522 = AXIS2_PLACEMENT_3D ( 'NONE', #1100, #149, #566 ) ;
#523 = ORIENTED_EDGE ( 'NONE', *, *, #777, .T. ) ;
#524 = DIRECTION ( 'NONE',  ( -1.000000000000000000, 0.000000000000000000, 0.000000000000000000 ) ) ;
#525 = CARTESIAN_POINT ( 'NONE',  ( -9.000000000000000000, 17.99999999999999645, 0.000000000000000000 ) ) ;
#526 = ORIENTED_EDGE ( 'NONE', *, *, #100, .F. ) ;
#527 = CARTESIAN_POINT ( 'NONE',  ( 6.500000000000004441, -18.00000000000000355, 1.500000000000000000 ) ) ;
#528 = ORIENTED_EDGE ( 'NONE', *, *, #785, .F. ) ;
#529 = CARTESIAN_POINT ( 'NONE',  ( 6.500000000000004441, -18.00000000000000355, 0.000000000000000000 ) ) ;
#530 =( GEOMETRIC_REPRESENTATION_CONTEXT ( 3 ) GLOBAL_UNCERTAINTY_ASSIGNED_CONTEXT ( ( #1090 ) ) GLOBAL_UNIT_ASSIGNED_CONTEXT ( ( #518, #413, #919 ) ) REPRESENTATION_CONTEXT ( 'NONE', 'WORKASPACE' ) );
#531 = CARTESIAN_POINT ( 'NONE',  ( -11.00000000000000355, -22.99999999999999645, 3.000000000000000000 ) ) ;
#532 = EDGE_LOOP ( 'NONE', ( #393, #948, #338, #562 ) ) ;
#533 = EDGE_CURVE ( 'NONE', #1198, #596, #1029, .T. ) ;
#534 = DIRECTION ( 'NONE',  ( -0.000000000000000000, 0.000000000000000000, 1.000000000000000000 ) ) ;
#535 = VECTOR ( 'NONE', #1333, 1000.000000000000000 ) ;
#536 = ORIENTED_EDGE ( 'NONE', *, *, #944, .F. ) ;
#537 = ADVANCED_FACE ( 'NONE', ( #1151 ), #507, .F. ) ;
#538 = ORIENTED_EDGE ( 'NONE', *, *, #1196, .T. ) ;
#539 = CARTESIAN_POINT ( 'NONE',  ( -9.000000000000000000, 17.99999999999999645, 3.000000000000000000 ) ) ;
#540 = AXIS2_PLACEMENT_3D ( 'NONE', #1257, #1325, #79 ) ;
#541 = ORIENTED_EDGE ( 'NONE', *, *, #651, .T. ) ;
#542 = ORIENTED_EDGE ( 'NONE', *, *, #1116, .F. ) ;
#543 = DIRECTION ( 'NONE',  ( -1.000000000000000000, 0.000000000000000000, 0.000000000000000000 ) ) ;
#544 = EDGE_CURVE ( 'NONE', #1271, #319, #724, .T. ) ;
#545 = AXIS2_PLACEMENT_3D ( 'NONE', #383, #267, #87 ) ;
#546 = ORIENTED_EDGE ( 'NONE', *, *, #844, .F. ) ;
#547 = VERTEX_POINT ( 'NONE', #814 ) ;
#548 = DIRECTION ( 'NONE',  ( -1.000000000000000000, 0.000000000000000000, 0.000000000000000000 ) ) ;
#549 = FACE_OUTER_BOUND ( 'NONE', #1310, .T. ) ;
#550 = ADVANCED_FACE ( 'NONE', ( #1252 ), #6, .F. ) ;
#551 = VERTEX_POINT ( 'NONE', #823 ) ;
#552 = VECTOR ( 'NONE', #1314, 1000.000000000000000 ) ;
#553 = ORIENTED_EDGE ( 'NONE', *, *, #1158, .T. ) ;
#554 = EDGE_LOOP ( 'NONE', ( #591, #923, #16, #1191 ) ) ;
#555 = CARTESIAN_POINT ( 'NONE',  ( 9.000000000000005329, -18.00000000000000355, 3.000000000000000000 ) ) ;
#556 = CARTESIAN_POINT ( 'NONE',  ( 9.000000000000000000, 18.00000000000000000, 0.000000000000000000 ) ) ;
#557 = AXIS2_PLACEMENT_3D ( 'NONE', #500, #1266, #1349 ) ;
#558 = CARTESIAN_POINT ( 'NONE',  ( -6.999999999999998224, -8.000000000000001776, 3.000000000000000000 ) ) ;
#559 = ADVANCED_FACE ( 'NONE', ( #1038 ), #396, .T. ) ;
#560 = CARTESIAN_POINT ( 'NONE',  ( 10.29999999999999893, 18.00000000000000000, 3.000000000000000000 ) ) ;
#561 = AXIS2_PLACEMENT_3D ( 'NONE', #50, #108, #492 ) ;
#562 = ORIENTED_EDGE ( 'NONE', *, *, #1244, .F. ) ;
#563 = PRODUCT_DEFINITION ( 'UNKNOWN', '', #217, #1301 ) ;
#564 = EDGE_LOOP ( 'NONE', ( #494, #414 ) ) ;
#565 = PLANE ( 'NONE',  #1359 ) ;
#566 = DIRECTION ( 'NONE',  ( -1.000000000000000000, 0.000000000000000000, 0.000000000000000000 ) ) ;
#567 = CARTESIAN_POINT ( 'NONE',  ( -11.00000000000000355, -22.99999999999999645, 3.000000000000000000 ) ) ;
#568 = AXIS2_PLACEMENT_3D ( 'NONE', #1137, #1254, #1352 ) ;
#569 = DIRECTION ( 'NONE',  ( -0.000000000000000000, 0.000000000000000000, -1.000000000000000000 ) ) ;
#570 = DIRECTION ( 'NONE',  ( 1.000000000000000000, 0.000000000000000000, 0.000000000000000000 ) ) ;
#571 = EDGE_LOOP ( 'NONE', ( #928, #8, #137, #1261 ) ) ;
#572 = EDGE_CURVE ( 'NONE', #1219, #439, #388, .T. ) ;
#573 = CARTESIAN_POINT ( 'NONE',  ( 0.000000000000000000, 0.000000000000000000, 1.500000000000000000 ) ) ;
#574 = CARTESIAN_POINT ( 'NONE',  ( 0.5000000000000003331, -13.00000000000000178, 0.000000000000000000 ) ) ;
#575 = CARTESIAN_POINT ( 'NONE',  ( 0.000000000000000000, 0.000000000000000000, 1.500000000000000000 ) ) ;
#576 = VECTOR ( 'NONE', #271, 1000.000000000000000 ) ;
#577 = LINE ( 'NONE', #266, #403 ) ;
#578 = ORIENTED_EDGE ( 'NONE', *, *, #306, .F. ) ;
#579 = FACE_BOUND ( 'NONE', #564, .T. ) ;
#580 = EDGE_CURVE ( 'NONE', #192, #719, #212, .T. ) ;
#581 = LINE ( 'NONE', #1010, #872 ) ;
#582 = DIRECTION ( 'NONE',  ( 0.000000000000000000, -0.000000000000000000, -1.000000000000000000 ) ) ;
#583 = DIRECTION ( 'NONE',  ( 0.000000000000000000, 0.000000000000000000, -1.000000000000000000 ) ) ;
#584 = ORIENTED_EDGE ( 'NONE', *, *, #976, .T. ) ;
#585 = CYLINDRICAL_SURFACE ( 'NONE', #1256, 0.5000000000000001110 ) ;
#586 = CYLINDRICAL_SURFACE ( 'NONE', #449, 2.500000000000000444 ) ;
#587 = DIRECTION ( 'NONE',  ( 0.000000000000000000, -0.000000000000000000, -1.000000000000000000 ) ) ;
#588 = ADVANCED_FACE ( 'NONE', ( #917 ), #411, .T. ) ;
#589 = DIRECTION ( 'NONE',  ( 0.000000000000000000, 0.000000000000000000, -1.000000000000000000 ) ) ;
#590 = DIRECTION ( 'NONE',  ( 0.000000000000000000, 1.000000000000000000, 0.000000000000000000 ) ) ;
#591 = ORIENTED_EDGE ( 'NONE', *, *, #386, .F. ) ;
#592 = FACE_OUTER_BOUND ( 'NONE', #554, .T. ) ;
#593 = DIRECTION ( 'NONE',  ( -0.000000000000000000, -0.000000000000000000, -1.000000000000000000 ) ) ;
#594 = EDGE_CURVE ( 'NONE', #765, #596, #1243, .T. ) ;
#595 = CARTESIAN_POINT ( 'NONE',  ( 0.5000000000000003331, -13.00000000000000178, 0.4000000000000000222 ) ) ;
#596 = VERTEX_POINT ( 'NONE', #76 ) ;
#597 = DIRECTION ( 'NONE',  ( 3.252606517456510837E-16, 1.000000000000000000, 0.000000000000000000 ) ) ;
#598 = EDGE_LOOP ( 'NONE', ( #957, #1053, #940, #86 ) ) ;
#599 = APPLICATION_CONTEXT ( 'automotive_design' ) ;
#600 = DIRECTION ( 'NONE',  ( -1.000000000000000000, 0.000000000000000000, 0.000000000000000000 ) ) ;
#601 = VECTOR ( 'NONE', #255, 1000.000000000000000 ) ;
#602 = LINE ( 'NONE', #515, #1341 ) ;
#603 = CARTESIAN_POINT ( 'NONE',  ( 10.99999999999999645, 23.00000000000000000, 3.000000000000000000 ) ) ;
#604 = ORIENTED_EDGE ( 'NONE', *, *, #1144, .T. ) ;
#605 = DIRECTION ( 'NONE',  ( 1.000000000000000000, 0.000000000000000000, -0.000000000000000000 ) ) ;
#606 = EDGE_CURVE ( 'NONE', #752, #765, #91, .T. ) ;
#607 = ADVANCED_FACE ( 'NONE', ( #618 ), #301, .F. ) ;
#608 = DIRECTION ( 'NONE',  ( -0.000000000000000000, -0.000000000000000000, -1.000000000000000000 ) ) ;
#609 = CIRCLE ( 'NONE', #786, 1.299999999999999156 ) ;
#610 = AXIS2_PLACEMENT_3D ( 'NONE', #1120, #587, #373 ) ;
#611 = CARTESIAN_POINT ( 'NONE',  ( 0.4999999999999996669, -15.00000000000000355, 0.4000000000000000222 ) ) ;
#612 = LINE ( 'NONE', #1039, #747 ) ;
#613 = LINE ( 'NONE', #102, #506 ) ;
#614 = VERTEX_POINT ( 'NONE', #188 ) ;
#615 = DIRECTION ( 'NONE',  ( 1.000000000000000000, 0.000000000000000000, 0.000000000000000000 ) ) ;
#616 = CARTESIAN_POINT ( 'NONE',  ( 0.000000000000000000, 0.000000000000000000, 0.000000000000000000 ) ) ;
#617 = ADVANCED_FACE ( 'NONE', ( #211 ), #1081, .F. ) ;
#618 = FACE_OUTER_BOUND ( 'NONE', #829, .T. ) ;
#619 = DIRECTION ( 'NONE',  ( 1.000000000000000000, 0.000000000000000000, 0.000000000000000000 ) ) ;
#620 = VERTEX_POINT ( 'NONE', #767 ) ;
#621 = CARTESIAN_POINT ( 'NONE',  ( -7.700000000000000178, 17.99999999999999645, 3.000000000000000000 ) ) ;
#622 = ORIENTED_EDGE ( 'NONE', *, *, #594, .T. ) ;
#623 = ORIENTED_EDGE ( 'NONE', *, *, #437, .F. ) ;
#624 = DIRECTION ( 'NONE',  ( 1.000000000000000000, 1.734723475976807094E-16, 0.000000000000000000 ) ) ;
#625 = EDGE_CURVE ( 'NONE', #1268, #1002, #454, .T. ) ;
#626 = VECTOR ( 'NONE', #317, 1000.000000000000000 ) ;
#627 = FILL_AREA_STYLE ('',( #493 ) ) ;
#628 = ORIENTED_EDGE ( 'NONE', *, *, #572, .T. ) ;
#629 = CARTESIAN_POINT ( 'NONE',  ( -9.999999999999998224, -11.00000000000000355, 1.500000000000000000 ) ) ;
#630 = ORIENTED_EDGE ( 'NONE', *, *, #703, .T. ) ;
#631 = AXIS2_PLACEMENT_3D ( 'NONE', #910, #1208, #1307 ) ;
#632 = ORIENTED_EDGE ( 'NONE', *, *, #961, .T. ) ;
#633 = CARTESIAN_POINT ( 'NONE',  ( 10.00000000000000178, 9.000000000000001776, 1.500000000000000000 ) ) ;
#634 = EDGE_CURVE ( 'NONE', #219, #1156, #1084, .T. ) ;
#635 = EDGE_LOOP ( 'NONE', ( #237, #36, #789, #1355 ) ) ;
#636 = DIRECTION ( 'NONE',  ( -1.000000000000000000, 0.000000000000000000, 0.000000000000000000 ) ) ;
#637 = ORIENTED_EDGE ( 'NONE', *, *, #1107, .T. ) ;
#638 = ORIENTED_EDGE ( 'NONE', *, *, #815, .F. ) ;
#639 = CARTESIAN_POINT ( 'NONE',  ( -6.999999999999998224, -8.000000000000001776, 3.000000000000000000 ) ) ;
#640 = AXIS2_PLACEMENT_3D ( 'NONE', #575, #1223, #990 ) ;
#641 = VERTEX_POINT ( 'NONE', #529 ) ;
#642 = FACE_OUTER_BOUND ( 'NONE', #1063, .T. ) ;
#643 = EDGE_CURVE ( 'NONE', #781, #223, #1286, .T. ) ;
#644 = COLOUR_RGB ( '',0.7921568627450980005, 0.8196078431372548767, 0.9333333333333333481 ) ;
#645 = EDGE_LOOP ( 'NONE', ( #356, #10 ) ) ;
#646 = EDGE_LOOP ( 'NONE', ( #1241, #1051, #1181, #869 ) ) ;
#647 = CARTESIAN_POINT ( 'NONE',  ( 10.99999999999999645, -19.99999999999999645, 3.000000000000000000 ) ) ;
#648 = VECTOR ( 'NONE', #837, 1000.000000000000000 ) ;
#649 = EDGE_LOOP ( 'NONE', ( #184, #377, #342, #453 ) ) ;
#650 = EDGE_LOOP ( 'NONE', ( #1264, #700, #144, #1294 ) ) ;
#651 = EDGE_CURVE ( 'NONE', #1258, #1283, #17, .T. ) ;
#652 = CARTESIAN_POINT ( 'NONE',  ( -10.29999999999999538, -18.00000000000000355, 3.000000000000000000 ) ) ;
#653 = EDGE_LOOP ( 'NONE', ( #1088, #810, #327, #712 ) ) ;
#654 = CARTESIAN_POINT ( 'NONE',  ( 11.50000000000000533, -18.00000000000000355, 1.500000000000000000 ) ) ;
#655 = VERTEX_POINT ( 'NONE', #877 ) ;
#656 = CARTESIAN_POINT ( 'NONE',  ( -11.00000000000000355, -19.99999999999999645, 3.000000000000000000 ) ) ;
#657 = EDGE_CURVE ( 'NONE', #655, #195, #813, .T. ) ;
#658 = EDGE_LOOP ( 'NONE', ( #236, #584, #334, #730 ) ) ;
#659 = LINE ( 'NONE', #763, #746 ) ;
#660 = EDGE_LOOP ( 'NONE', ( #460, #953 ) ) ;
#661 = LINE ( 'NONE', #239, #1313 ) ;
#662 = CYLINDRICAL_SURFACE ( 'NONE', #92, 1.299999999999999156 ) ;
#663 = FACE_OUTER_BOUND ( 'NONE', #1044, .T. ) ;
#664 = AXIS2_PLACEMENT_3D ( 'NONE', #656, #979, #543 ) ;
#665 = DIRECTION ( 'NONE',  ( 3.252606517456510344E-16, 1.000000000000000000, 0.000000000000000000 ) ) ;
#666 = AXIS2_PLACEMENT_3D ( 'NONE', #1184, #1134, #358 ) ;
#667 = CARTESIAN_POINT ( 'NONE',  ( -0.000000000000000000, 23.00000000000000000, 0.000000000000000000 ) ) ;
#668 = ORIENTED_EDGE ( 'NONE', *, *, #1216, .T. ) ;
#669 = CARTESIAN_POINT ( 'NONE',  ( -0.5000000000000005551, -15.00000000000000355, 0.4000000000000000222 ) ) ;
#670 = LINE ( 'NONE', #1214, #1126 ) ;
#671 = CIRCLE ( 'NONE', #362, 2.499999999999998668 ) ;
#672 = EDGE_CURVE ( 'NONE', #1066, #174, #958, .T. ) ;
#673 = CARTESIAN_POINT ( 'NONE',  ( 10.99999999999999645, 20.00000000000000000, 3.000000000000000000 ) ) ;
#674 =( GEOMETRIC_REPRESENTATION_CONTEXT ( 3 ) GLOBAL_UNCERTAINTY_ASSIGNED_CONTEXT ( ( #447 ) ) GLOBAL_UNIT_ASSIGNED_CONTEXT ( ( #284, #711, #420 ) ) REPRESENTATION_CONTEXT ( 'NONE', 'WORKASPACE' ) );
#675 = ORIENTED_EDGE ( 'NONE', *, *, #1339, .F. ) ;
#676 = EDGE_LOOP ( 'NONE', ( #1172, #852, #131, #417 ) ) ;
#677 = LINE ( 'NONE', #770, #601 ) ;
#678 = DIRECTION ( 'NONE',  ( -0.000000000000000000, -0.000000000000000000, -1.000000000000000000 ) ) ;
#679 = PLANE ( 'NONE',  #640 ) ;
#680 = CYLINDRICAL_SURFACE ( 'NONE', #224, 2.499999999999998668 ) ;
#681 = AXIS2_PLACEMENT_3D ( 'NONE', #1225, #486, #289 ) ;
#682 = VERTEX_POINT ( 'NONE', #426 ) ;
#683 = EDGE_CURVE ( 'NONE', #1156, #210, #339, .T. ) ;
#684 = ORIENTED_EDGE ( 'NONE', *, *, #117, .T. ) ;
#685 = CARTESIAN_POINT ( 'NONE',  ( -3.930973946280843214E-16, -15.00000000000000355, 0.4000000000000000222 ) ) ;
#686 = AXIS2_PLACEMENT_3D ( 'NONE', #690, #1019, #258 ) ;
#687 = CARTESIAN_POINT ( 'NONE',  ( 10.99999999999999645, -19.99999999999999645, 3.000000000000000000 ) ) ;
#688 = DIRECTION ( 'NONE',  ( 1.000000000000000000, 0.000000000000000000, 0.000000000000000000 ) ) ;
#689 = VECTOR ( 'NONE', #353, 1000.000000000000000 ) ;
#690 = CARTESIAN_POINT ( 'NONE',  ( -9.000000000000000000, 17.99999999999999645, 1.500000000000000000 ) ) ;
#691 = LINE ( 'NONE', #173, #731 ) ;
#692 = CARTESIAN_POINT ( 'NONE',  ( 2.192260049455927259E-16, -13.00000000000000178, 0.000000000000000000 ) ) ;
#693 = AXIS2_PLACEMENT_3D ( 'NONE', #132, #534, #126 ) ;
#694 = EDGE_CURVE ( 'NONE', #418, #1204, #873, .T. ) ;
#695 = FACE_OUTER_BOUND ( 'NONE', #105, .T. ) ;
#696 = PLANE ( 'NONE',  #256 ) ;
#697 = VECTOR ( 'NONE', #846, 1000.000000000000000 ) ;
#698 = CARTESIAN_POINT ( 'NONE',  ( 10.30000000000000426, -18.00000000000000355, 3.000000000000000000 ) ) ;
#699 = CARTESIAN_POINT ( 'NONE',  ( 0.4999999999999996669, -15.00000000000000355, 0.4000000000000000222 ) ) ;
#700 = ORIENTED_EDGE ( 'NONE', *, *, #1315, .F. ) ;
#701 = LINE ( 'NONE', #1357, #1004 ) ;
#702 = CARTESIAN_POINT ( 'NONE',  ( 0.000000000000000000, 23.00000000000000000, 3.000000000000000000 ) ) ;
#703 = EDGE_CURVE ( 'NONE', #994, #60, #517, .T. ) ;
#704 = APPLICATION_PROTOCOL_DEFINITION ( 'draft international standard', 'automotive_design', 1998, #1190 ) ;
#705 = DIRECTION ( 'NONE',  ( 0.000000000000000000, -0.000000000000000000, -1.000000000000000000 ) ) ;
#706 = DIRECTION ( 'NONE',  ( -1.000000000000000000, -1.239088197126290817E-16, 0.000000000000000000 ) ) ;
#707 = VECTOR ( 'NONE', #1329, 1000.000000000000000 ) ;
#708 = EDGE_LOOP ( 'NONE', ( #1318, #856 ) ) ;
#709 = CARTESIAN_POINT ( 'NONE',  ( -11.49999999999999822, 17.99999999999999645, 0.000000000000000000 ) ) ;
#710 = DIRECTION ( 'NONE',  ( 0.000000000000000000, 0.000000000000000000, -1.000000000000000000 ) ) ;
#711 =( NAMED_UNIT ( * ) PLANE_ANGLE_UNIT ( ) SI_UNIT ( $, .RADIAN. ) );
#712 = ORIENTED_EDGE ( 'NONE', *, *, #892, .F. ) ;
#713 = LINE ( 'NONE', #921, #866 ) ;
#714 = AXIS2_PLACEMENT_3D ( 'NONE', #1316, #360, #907 ) ;
#715 = ORIENTED_EDGE ( 'NONE', *, *, #170, .T. ) ;
#716 = PLANE ( 'NONE',  #120 ) ;
#717 = DIRECTION ( 'NONE',  ( -3.252606517456510344E-16, -1.000000000000000000, -0.000000000000000000 ) ) ;
#718 = CARTESIAN_POINT ( 'NONE',  ( 9.000000000000005329, -18.00000000000000355, 1.500000000000000000 ) ) ;
#719 = VERTEX_POINT ( 'NONE', #652 ) ;
#720 = FACE_OUTER_BOUND ( 'NONE', #635, .T. ) ;
#721 = EDGE_CURVE ( 'NONE', #729, #408, #1187, .T. ) ;
#722 = EDGE_LOOP ( 'NONE', ( #502, #546, #29, #23 ) ) ;
#723 = DIRECTION ( 'NONE',  ( 0.000000000000000000, 0.000000000000000000, -1.000000000000000000 ) ) ;
#724 = LINE ( 'NONE', #204, #743 ) ;
#725 = DIRECTION ( 'NONE',  ( 1.000000000000000000, 0.000000000000000000, 0.000000000000000000 ) ) ;
#726 = ORIENTED_EDGE ( 'NONE', *, *, #133, .T. ) ;
#727 = CARTESIAN_POINT ( 'NONE',  ( -9.999999999999998224, -11.00000000000000355, 1.500000000000000000 ) ) ;
#728 = EDGE_CURVE ( 'NONE', #1204, #418, #245, .T. ) ;
#729 = VERTEX_POINT ( 'NONE', #639 ) ;
#730 = ORIENTED_EDGE ( 'NONE', *, *, #250, .F. ) ;
#731 = VECTOR ( 'NONE', #73, 1000.000000000000000 ) ;
#732 = DIRECTION ( 'NONE',  ( -1.000000000000000000, 0.000000000000000000, 0.000000000000000000 ) ) ;
#733 = DIRECTION ( 'NONE',  ( 1.000000000000000000, 0.000000000000000000, 0.000000000000000000 ) ) ;
#734 = EDGE_LOOP ( 'NONE', ( #78, #512, #225, #973 ) ) ;
#735 = CYLINDRICAL_SURFACE ( 'NONE', #331, 2.500000000000000444 ) ;
#736 = EDGE_LOOP ( 'NONE', ( #55, #1311, #542, #984 ) ) ;
#737 = EDGE_LOOP ( 'NONE', ( #903, #230 ) ) ;
#738 = DIRECTION ( 'NONE',  ( -1.000000000000000000, -1.239088197126290817E-16, 0.000000000000000000 ) ) ;
#739 = EDGE_CURVE ( 'NONE', #551, #1192, #1290, .T. ) ;
#740 = ORIENTED_EDGE ( 'NONE', *, *, #496, .F. ) ;
#741 = CARTESIAN_POINT ( 'NONE',  ( 0.000000000000000000, 0.000000000000000000, 1.500000000000000000 ) ) ;
#742 = VERTEX_POINT ( 'NONE', #1285 ) ;
#743 = VECTOR ( 'NONE', #1142, 1000.000000000000000 ) ;
#744 = ORIENTED_EDGE ( 'NONE', *, *, #1116, .T. ) ;
#745 = DIRECTION ( 'NONE',  ( -0.000000000000000000, -0.000000000000000000, 1.000000000000000000 ) ) ;
#746 = VECTOR ( 'NONE', #977, 1000.000000000000000 ) ;
#747 = VECTOR ( 'NONE', #951, 1000.000000000000000 ) ;
#748 = EDGE_CURVE ( 'NONE', #848, #620, #119, .T. ) ;
#749 = VECTOR ( 'NONE', #624, 1000.000000000000000 ) ;
#750 = FACE_BOUND ( 'NONE', #645, .T. ) ;
#751 = EDGE_LOOP ( 'NONE', ( #773, #897, #541, #1247 ) ) ;
#752 = VERTEX_POINT ( 'NONE', #431 ) ;
#753 = CYLINDRICAL_SURFACE ( 'NONE', #664, 2.999999999999999112 ) ;
#754 = VECTOR ( 'NONE', #840, 1000.000000000000000 ) ;
#755 = CIRCLE ( 'NONE', #681, 0.5000000000000001110 ) ;
#756 = AXIS2_PLACEMENT_3D ( 'NONE', #1113, #159, #72 ) ;
#757 = ADVANCED_FACE ( 'NONE', ( #965 ), #753, .T. ) ;
#758 = EDGE_LOOP ( 'NONE', ( #632, #1073, #1211, #384 ) ) ;
#759 = ORIENTED_EDGE ( 'NONE', *, *, #314, .F. ) ;
#760 = DIRECTION ( 'NONE',  ( -0.000000000000000000, -0.000000000000000000, -1.000000000000000000 ) ) ;
#761 = AXIS2_PLACEMENT_3D ( 'NONE', #616, #300, #394 ) ;
#762 = EDGE_LOOP ( 'NONE', ( #363, #1108 ) ) ;
#763 = CARTESIAN_POINT ( 'NONE',  ( 11.49999999999999822, 18.00000000000000000, 1.500000000000000000 ) ) ;
#764 = EDGE_CURVE ( 'NONE', #20, #1283, #1075, .T. ) ;
#765 = VERTEX_POINT ( 'NONE', #633 ) ;
#766 = AXIS2_PLACEMENT_3D ( 'NONE', #1022, #593, #1260 ) ;
#767 = CARTESIAN_POINT ( 'NONE',  ( -0.4999999999999998890, -13.00000000000000178, 0.000000000000000000 ) ) ;
#768 = ORIENTED_EDGE ( 'NONE', *, *, #170, .F. ) ;
#769 = VERTEX_POINT ( 'NONE', #226 ) ;
#770 = CARTESIAN_POINT ( 'NONE',  ( 10.29999999999999893, 18.00000000000000000, 0.000000000000000000 ) ) ;
#771 = ADVANCED_FACE ( 'NONE', ( #114, #27 ), #261, .F. ) ;
#772 = CARTESIAN_POINT ( 'NONE',  ( 10.00000000000000355, -11.00000000000000178, 1.500000000000000000 ) ) ;
#773 = ORIENTED_EDGE ( 'NONE', *, *, #796, .F. ) ;
#774 = VERTEX_POINT ( 'NONE', #48 ) ;
#775 = CARTESIAN_POINT ( 'NONE',  ( -9.999999999999998224, -11.00000000000000355, 1.500000000000000000 ) ) ;
#776 = CARTESIAN_POINT ( 'NONE',  ( 2.192260049455927259E-16, -13.00000000000000178, 0.4000000000000000222 ) ) ;
#777 = EDGE_CURVE ( 'NONE', #1289, #641, #489, .T. ) ;
#778 = VECTOR ( 'NONE', #995, 1000.000000000000000 ) ;
#779 = DIRECTION ( 'NONE',  ( 0.000000000000000000, 0.000000000000000000, -1.000000000000000000 ) ) ;
#780 = ORIENTED_EDGE ( 'NONE', *, *, #739, .T. ) ;
#781 = VERTEX_POINT ( 'NONE', #1306 ) ;
#782 = FACE_OUTER_BOUND ( 'NONE', #1210, .T. ) ;
#783 = CARTESIAN_POINT ( 'NONE',  ( -11.49999999999999645, -18.00000000000000355, 0.000000000000000000 ) ) ;
#784 = FACE_BOUND ( 'NONE', #246, .T. ) ;
#785 = EDGE_CURVE ( 'NONE', #174, #202, #1109, .T. ) ;
#786 = AXIS2_PLACEMENT_3D ( 'NONE', #1082, #129, #615 ) ;
#787 = FACE_OUTER_BOUND ( 'NONE', #722, .T. ) ;
#788 = DIRECTION ( 'NONE',  ( -0.000000000000000000, -0.000000000000000000, -1.000000000000000000 ) ) ;
#789 = ORIENTED_EDGE ( 'NONE', *, *, #1263, .F. ) ;
#790 = CARTESIAN_POINT ( 'NONE',  ( -14.00000000000000178, -19.99999999999999645, 3.000000000000000000 ) ) ;
#791 = DIRECTION ( 'NONE',  ( 0.000000000000000000, -0.000000000000000000, -1.000000000000000000 ) ) ;
#792 = CARTESIAN_POINT ( 'NONE',  ( 10.99999999999999645, -22.99999999999999645, 3.000000000000000000 ) ) ;
#793 = CARTESIAN_POINT ( 'NONE',  ( -7.434529182757744409E-16, 5.999999999999999112, 3.000000000000000000 ) ) ;
#794 = AXIS2_PLACEMENT_3D ( 'NONE', #629, #1058, #222 ) ;
#795 = CARTESIAN_POINT ( 'NONE',  ( 10.29999999999999893, 18.00000000000000000, 1.500000000000000000 ) ) ;
#796 = EDGE_CURVE ( 'NONE', #614, #963, #39, .T. ) ;
#797 = CARTESIAN_POINT ( 'NONE',  ( 13.99999999999999467, 20.00000000000000000, 3.000000000000000000 ) ) ;
#798 = DIRECTION ( 'NONE',  ( 1.000000000000000000, 0.000000000000000000, 0.000000000000000000 ) ) ;
#799 = DIRECTION ( 'NONE',  ( -0.000000000000000000, 0.000000000000000000, -1.000000000000000000 ) ) ;
#800 = CARTESIAN_POINT ( 'NONE',  ( -11.00000000000000355, -22.99999999999999645, 0.000000000000000000 ) ) ;
#801 = DIRECTION ( 'NONE',  ( -0.000000000000000000, -0.000000000000000000, -1.000000000000000000 ) ) ;
#802 = AXIS2_PLACEMENT_3D ( 'NONE', #3, #1178, #636 ) ;
#803 = EDGE_CURVE ( 'NONE', #1002, #1268, #427, .T. ) ;
#804 = CARTESIAN_POINT ( 'NONE',  ( 7.000000000000001776, 0.000000000000000000, 3.000000000000000000 ) ) ;
#805 = DIRECTION ( 'NONE',  ( 0.000000000000000000, -0.000000000000000000, 1.000000000000000000 ) ) ;
#806 = DIRECTION ( 'NONE',  ( 1.000000000000000000, 0.000000000000000000, 0.000000000000000000 ) ) ;
#807 = VECTOR ( 'NONE', #176, 1000.000000000000000 ) ;
#808 = DIRECTION ( 'NONE',  ( 1.000000000000000000, 0.000000000000000000, 0.000000000000000000 ) ) ;
#809 = PLANE ( 'NONE',  #371 ) ;
#810 = ORIENTED_EDGE ( 'NONE', *, *, #815, .T. ) ;
#811 = FACE_OUTER_BOUND ( 'NONE', #305, .T. ) ;
#812 = EDGE_CURVE ( 'NONE', #113, #848, #1227, .T. ) ;
#813 = CIRCLE ( 'NONE', #444, 1.299999999999999156 ) ;
#814 = CARTESIAN_POINT ( 'NONE',  ( -7.699999999999999289, 17.99999999999999645, 1.500000000000000000 ) ) ;
#815 = EDGE_CURVE ( 'NONE', #1059, #146, #677, .T. ) ;
#816 = CARTESIAN_POINT ( 'NONE',  ( 0.000000000000000000, 0.000000000000000000, 0.000000000000000000 ) ) ;
#817 = DIRECTION ( 'NONE',  ( -0.000000000000000000, -0.000000000000000000, -1.000000000000000000 ) ) ;
#818 = ORIENTED_EDGE ( 'NONE', *, *, #976, .F. ) ;
#819 = FACE_OUTER_BOUND ( 'NONE', #74, .T. ) ;
#820 = AXIS2_PLACEMENT_3D ( 'NONE', #525, #509, #1161 ) ;
#821 = ORIENTED_EDGE ( 'NONE', *, *, #1085, .T. ) ;
#822 = CARTESIAN_POINT ( 'NONE',  ( 0.000000000000000000, 0.000000000000000000, 3.000000000000000000 ) ) ;
#823 = CARTESIAN_POINT ( 'NONE',  ( 10.00000000000000355, -11.00000000000000178, 1.500000000000000000 ) ) ;
#824 = PRESENTATION_LAYER_ASSIGNMENT (  '', '', ( #868 ) ) ;
#825 = EDGE_CURVE ( 'NONE', #14, #244, #661, .T. ) ;
#826 = VERTEX_POINT ( 'NONE', #1124 ) ;
#827 = CARTESIAN_POINT ( 'NONE',  ( 11.50000000000000533, -18.00000000000000355, 1.500000000000000000 ) ) ;
#828 = AXIS2_PLACEMENT_3D ( 'NONE', #402, #1159, #916 ) ;
#829 = EDGE_LOOP ( 'NONE', ( #578, #4, #821, #536 ) ) ;
#830 = FACE_OUTER_BOUND ( 'NONE', #915, .T. ) ;
#831 = CARTESIAN_POINT ( 'NONE',  ( -9.999999999999998224, 8.999999999999998224, 1.500000000000000000 ) ) ;
#832 = EDGE_CURVE ( 'NONE', #864, #551, #349, .T. ) ;
#833 = FACE_OUTER_BOUND ( 'NONE', #649, .T. ) ;
#834 = ORIENTED_EDGE ( 'NONE', *, *, #970, .F. ) ;
#835 = LINE ( 'NONE', #1262, #626 ) ;
#836 = VERTEX_POINT ( 'NONE', #1009 ) ;
#837 = DIRECTION ( 'NONE',  ( -0.000000000000000000, -0.000000000000000000, -1.000000000000000000 ) ) ;
#838 = DIRECTION ( 'NONE',  ( 0.000000000000000000, -0.000000000000000000, 1.000000000000000000 ) ) ;
#839 = PRODUCT_CONTEXT ( 'NONE', #1190, 'mechanical' ) ;
#840 = DIRECTION ( 'NONE',  ( -0.000000000000000000, 0.000000000000000000, -1.000000000000000000 ) ) ;
#841 = VERTEX_POINT ( 'NONE', #61 ) ;
#842 = PLANE ( 'NONE',  #1112 ) ;
#843 = ORIENTED_EDGE ( 'NONE', *, *, #1216, .F. ) ;
#844 = EDGE_CURVE ( 'NONE', #614, #1258, #891, .T. ) ;
#845 = ORIENTED_EDGE ( 'NONE', *, *, #748, .F. ) ;
#846 = DIRECTION ( 'NONE',  ( 1.000000000000000000, 1.734723475976807094E-16, 0.000000000000000000 ) ) ;
#847 = FACE_OUTER_BOUND ( 'NONE', #53, .T. ) ;
#848 = VERTEX_POINT ( 'NONE', #1015 ) ;
#849 = DIRECTION ( 'NONE',  ( -0.000000000000000000, 0.000000000000000000, 1.000000000000000000 ) ) ;
#850 = ORIENTED_EDGE ( 'NONE', *, *, #643, .T. ) ;
#851 = ADVANCED_FACE ( 'NONE', ( #1200 ), #585, .F. ) ;
#852 = ORIENTED_EDGE ( 'NONE', *, *, #35, .T. ) ;
#853 = VECTOR ( 'NONE', #455, 1000.000000000000000 ) ;
#854 = CARTESIAN_POINT ( 'NONE',  ( -8.999999999999996447, -18.00000000000000355, 0.000000000000000000 ) ) ;
#855 = AXIS2_PLACEMENT_3D ( 'NONE', #556, #464, #1334 ) ;
#856 = ORIENTED_EDGE ( 'NONE', *, *, #803, .T. ) ;
#857 = CARTESIAN_POINT ( 'NONE',  ( -6.500000000000000888, 17.99999999999999645, 0.000000000000000000 ) ) ;
#858 = VERTEX_POINT ( 'NONE', #1312 ) ;
#859 = CARTESIAN_POINT ( 'NONE',  ( 9.912705577010330480E-16, -8.000000000000001776, 3.000000000000000000 ) ) ;
#860 = ADVANCED_FACE ( 'NONE', ( #782 ), #1089, .F. ) ;
#861 = CIRCLE ( 'NONE', #433, 2.499999999999998668 ) ;
#862 = VECTOR ( 'NONE', #473, 1000.000000000000000 ) ;
#863 = ORIENTED_EDGE ( 'NONE', *, *, #580, .T. ) ;
#864 = VERTEX_POINT ( 'NONE', #775 ) ;
#865 = DIRECTION ( 'NONE',  ( -0.000000000000000000, 0.000000000000000000, 1.000000000000000000 ) ) ;
#866 = VECTOR ( 'NONE', #392, 1000.000000000000000 ) ;
#867 = ADVANCED_FACE ( 'NONE', ( #156, #68 ), #565, .F. ) ;
#868 = STYLED_ITEM ( 'NONE', ( #85 ), #1129 ) ;
#869 = ORIENTED_EDGE ( 'NONE', *, *, #57, .F. ) ;
#870 = EDGE_LOOP ( 'NONE', ( #1170, #207, #1086, #125 ) ) ;
#871 = CARTESIAN_POINT ( 'NONE',  ( 13.99999999999999467, 0.000000000000000000, 3.000000000000000000 ) ) ;
#872 = VECTOR ( 'NONE', #893, 1000.000000000000000 ) ;
#873 = CIRCLE ( 'NONE', #1122, 2.500000000000000444 ) ;
#874 = EDGE_CURVE ( 'NONE', #620, #439, #465, .T. ) ;
#875 = ORIENTED_EDGE ( 'NONE', *, *, #993, .F. ) ;
#876 = ORIENTED_EDGE ( 'NONE', *, *, #1079, .T. ) ;
#877 = CARTESIAN_POINT ( 'NONE',  ( -10.29999999999999893, 17.99999999999999645, 3.000000000000000000 ) ) ;
#878 = DIRECTION ( 'NONE',  ( -1.000000000000000000, -1.734723475976806848E-16, 0.000000000000000000 ) ) ;
#879 = VECTOR ( 'NONE', #710, 1000.000000000000000 ) ;
#880 = CARTESIAN_POINT ( 'NONE',  ( -9.999999999999998224, 8.999999999999998224, 1.500000000000000000 ) ) ;
#881 = ORIENTED_EDGE ( 'NONE', *, *, #1292, .T. ) ;
#882 = ADVANCED_FACE ( 'NONE', ( #364, #161, #579, #476, #904, #1326 ), #98, .T. ) ;
#883 = DIRECTION ( 'NONE',  ( 0.000000000000000000, -1.000000000000000000, 0.000000000000000000 ) ) ;
#884 = CARTESIAN_POINT ( 'NONE',  ( 13.99999999999999467, 0.000000000000000000, 3.000000000000000000 ) ) ;
#885 = CIRCLE ( 'NONE', #820, 2.499999999999998668 ) ;
#886 = LINE ( 'NONE', #567, #1344 ) ;
#887 = LINE ( 'NONE', #991, #689 ) ;
#888 = LINE ( 'NONE', #1194, #1033 ) ;
#889 = CIRCLE ( 'NONE', #1001, 1.299999999999999156 ) ;
#890 = ORIENTED_EDGE ( 'NONE', *, *, #186, .F. ) ;
#891 = LINE ( 'NONE', #797, #894 ) ;
#892 = EDGE_CURVE ( 'NONE', #742, #1303, #291, .T. ) ;
#893 = DIRECTION ( 'NONE',  ( -0.000000000000000000, 0.000000000000000000, -1.000000000000000000 ) ) ;
#894 = VECTOR ( 'NONE', #898, 1000.000000000000000 ) ;
#895 = CARTESIAN_POINT ( 'NONE',  ( -9.999999999999998224, -11.00000000000000355, 0.000000000000000000 ) ) ;
#896 = CARTESIAN_POINT ( 'NONE',  ( 10.99999999999999645, -22.99999999999999645, 3.000000000000000000 ) ) ;
#897 = ORIENTED_EDGE ( 'NONE', *, *, #844, .T. ) ;
#898 = DIRECTION ( 'NONE',  ( 0.000000000000000000, -0.000000000000000000, 1.000000000000000000 ) ) ;
#899 = DIRECTION ( 'NONE',  ( 0.000000000000000000, -0.000000000000000000, 1.000000000000000000 ) ) ;
#900 = CARTESIAN_POINT ( 'NONE',  ( 13.99999999999999467, 20.00000000000000000, 3.000000000000000000 ) ) ;
#901 = ADVANCED_FACE ( 'NONE', ( #592 ), #716, .T. ) ;
#902 = DIRECTION ( 'NONE',  ( -0.000000000000000000, -0.000000000000000000, -1.000000000000000000 ) ) ;
#903 = ORIENTED_EDGE ( 'NONE', *, *, #117, .F. ) ;
#904 = FACE_OUTER_BOUND ( 'NONE', #1132, .T. ) ;
#905 = CARTESIAN_POINT ( 'NONE',  ( 7.000000000000001776, -8.000000000000000000, 3.000000000000000000 ) ) ;
#906 = ADVANCED_FACE ( 'NONE', ( #187, #932, #83, #385, #1259, #1365, #811 ), #497, .F. ) ;
#907 = DIRECTION ( 'NONE',  ( 0.000000000000000000, 0.000000000000000000, 1.000000000000000000 ) ) ;
#908 = CARTESIAN_POINT ( 'NONE',  ( -7.699999999999996625, -18.00000000000000355, 3.000000000000000000 ) ) ;
#909 = CARTESIAN_POINT ( 'NONE',  ( 0.000000000000000000, 0.000000000000000000, 1.500000000000000000 ) ) ;
#910 = CARTESIAN_POINT ( 'NONE',  ( -8.999999999999996447, -18.00000000000000355, 0.000000000000000000 ) ) ;
#911 = CARTESIAN_POINT ( 'NONE',  ( 10.00000000000000355, -11.00000000000000178, 1.500000000000000000 ) ) ;
#912 = DIRECTION ( 'NONE',  ( 1.000000000000000000, 0.000000000000000000, 0.000000000000000000 ) ) ;
#913 = DIRECTION ( 'NONE',  ( 1.000000000000000000, 0.000000000000000000, 0.000000000000000000 ) ) ;
#914 = CIRCLE ( 'NONE', #855, 2.499999999999998668 ) ;
#915 = EDGE_LOOP ( 'NONE', ( #818, #1284, #343, #34 ) ) ;
#916 = DIRECTION ( 'NONE',  ( 1.000000000000000000, 0.000000000000000000, 0.000000000000000000 ) ) ;
#917 = FACE_OUTER_BOUND ( 'NONE', #475, .T. ) ;
#918 = DIRECTION ( 'NONE',  ( 1.000000000000000000, 0.000000000000000000, 0.000000000000000000 ) ) ;
#919 =( NAMED_UNIT ( * ) SI_UNIT ( $, .STERADIAN. ) SOLID_ANGLE_UNIT ( ) );
#920 = VERTEX_POINT ( 'NONE', #1150 ) ;
#921 = CARTESIAN_POINT ( 'NONE',  ( 0.000000000000000000, -22.99999999999999645, 0.000000000000000000 ) ) ;
#922 = VECTOR ( 'NONE', #1203, 1000.000000000000000 ) ;
#923 = ORIENTED_EDGE ( 'NONE', *, *, #285, .F. ) ;
#924 = CARTESIAN_POINT ( 'NONE',  ( -14.00000000000000178, 20.00000000000000000, 0.000000000000000000 ) ) ;
#925 = AXIS2_PLACEMENT_3D ( 'NONE', #419, #838, #181 ) ;
#926 = ADVANCED_FACE ( 'NONE', ( #1133 ), #1242, .F. ) ;
#927 = DIRECTION ( 'NONE',  ( -3.252606517456510344E-16, -1.000000000000000000, -0.000000000000000000 ) ) ;
#928 = ORIENTED_EDGE ( 'NONE', *, *, #1011, .T. ) ;
#929 = DIRECTION ( 'NONE',  ( -0.000000000000000000, 0.000000000000000000, 1.000000000000000000 ) ) ;
#930 = CIRCLE ( 'NONE', #1245, 2.999999999999999112 ) ;
#931 = AXIS2_PLACEMENT_3D ( 'NONE', #741, #849, #423 ) ;
#932 = FACE_BOUND ( 'NONE', #424, .T. ) ;
#933 = CARTESIAN_POINT ( 'NONE',  ( 0.5000000000000003331, -13.00000000000000178, 0.4000000000000000222 ) ) ;
#934 = EDGE_CURVE ( 'NONE', #769, #614, #1253, .T. ) ;
#935 = AXIS2_PLACEMENT_3D ( 'NONE', #1209, #582, #485 ) ;
#936 = DIRECTION ( 'NONE',  ( -1.000000000000000000, 0.000000000000000000, 0.000000000000000000 ) ) ;
#937 = VERTEX_POINT ( 'NONE', #709 ) ;
#938 = DIRECTION ( 'NONE',  ( -1.000000000000000000, 0.000000000000000000, 0.000000000000000000 ) ) ;
#939 = AXIS2_PLACEMENT_3D ( 'NONE', #822, #89, #1340 ) ;
#940 = ORIENTED_EDGE ( 'NONE', *, *, #153, .T. ) ;
#941 = DIRECTION ( 'NONE',  ( 1.000000000000000000, 8.673617379884034239E-17, 0.000000000000000000 ) ) ;
#942 = CARTESIAN_POINT ( 'NONE',  ( -9.999999999999998224, 8.999999999999998224, 0.000000000000000000 ) ) ;
#943 = CARTESIAN_POINT ( 'NONE',  ( -9.999999999999998224, 8.999999999999998224, 0.000000000000000000 ) ) ;
#944 = EDGE_CURVE ( 'NONE', #655, #519, #1141, .T. ) ;
#945 = AXIS2_PLACEMENT_3D ( 'NONE', #1342, #315, #738 ) ;
#946 = EDGE_LOOP ( 'NONE', ( #38, #1083, #1140, #553 ) ) ;
#947 = DIRECTION ( 'NONE',  ( -1.000000000000000000, 0.000000000000000000, -0.000000000000000000 ) ) ;
#948 = ORIENTED_EDGE ( 'NONE', *, *, #1332, .T. ) ;
#949 = EDGE_LOOP ( 'NONE', ( #112, #1068, #155, #622 ) ) ;
#950 = DIRECTION ( 'NONE',  ( -1.000000000000000000, 0.000000000000000000, 0.000000000000000000 ) ) ;
#951 = DIRECTION ( 'NONE',  ( 0.000000000000000000, 1.000000000000000000, -0.000000000000000000 ) ) ;
#952 = DIRECTION ( 'NONE',  ( -0.000000000000000000, -0.000000000000000000, -1.000000000000000000 ) ) ;
#953 = ORIENTED_EDGE ( 'NONE', *, *, #359, .T. ) ;
#954 = PLANE ( 'NONE',  #931 ) ;
#955 = EDGE_CURVE ( 'NONE', #836, #313, #1251, .T. ) ;
#956 = ORIENTED_EDGE ( 'NONE', *, *, #437, .T. ) ;
#957 = ORIENTED_EDGE ( 'NONE', *, *, #1360, .T. ) ;
#958 = LINE ( 'NONE', #21, #1232 ) ;
#959 = ORIENTED_EDGE ( 'NONE', *, *, #728, .T. ) ;
#960 = DIRECTION ( 'NONE',  ( 0.000000000000000000, 0.000000000000000000, -1.000000000000000000 ) ) ;
#961 = EDGE_CURVE ( 'NONE', #1008, #1192, #175, .T. ) ;
#962 = ORIENTED_EDGE ( 'NONE', *, *, #683, .F. ) ;
#963 = VERTEX_POINT ( 'NONE', #1234 ) ;
#964 = VECTOR ( 'NONE', #231, 1000.000000000000000 ) ;
#965 = FACE_OUTER_BOUND ( 'NONE', #81, .T. ) ;
#966 = EDGE_LOOP ( 'NONE', ( #274, #526 ) ) ;
#967 = ORIENTED_EDGE ( 'NONE', *, *, #1315, .T. ) ;
#968 = DIRECTION ( 'NONE',  ( -1.000000000000000000, 0.000000000000000000, 0.000000000000000000 ) ) ;
#969 = CIRCLE ( 'NONE', #498, 2.499999999999998668 ) ;
#970 = EDGE_CURVE ( 'NONE', #210, #1066, #275, .T. ) ;
#971 = ORIENTED_EDGE ( 'NONE', *, *, #407, .T. ) ;
#972 = EDGE_LOOP ( 'NONE', ( #1014, #1276 ) ) ;
#973 = ORIENTED_EDGE ( 'NONE', *, *, #748, .T. ) ;
#974 = DIRECTION ( 'NONE',  ( 0.000000000000000000, -1.000000000000000000, 0.000000000000000000 ) ) ;
#975 = CIRCLE ( 'NONE', #438, 2.500000000000000444 ) ;
#976 = EDGE_CURVE ( 'NONE', #325, #288, #701, .T. ) ;
#977 = DIRECTION ( 'NONE',  ( 0.000000000000000000, 0.000000000000000000, -1.000000000000000000 ) ) ;
#978 = EDGE_LOOP ( 'NONE', ( #280, #1087 ) ) ;
#979 = DIRECTION ( 'NONE',  ( -0.000000000000000000, 0.000000000000000000, -1.000000000000000000 ) ) ;
#980 = CARTESIAN_POINT ( 'NONE',  ( -11.49999999999999645, -18.00000000000000355, 1.500000000000000000 ) ) ;
#981 = AXIS2_PLACEMENT_3D ( 'NONE', #884, #988, #49 ) ;
#982 = EDGE_LOOP ( 'NONE', ( #118, #443, #391, #401 ) ) ;
#983 = ADVANCED_FACE ( 'NONE', ( #830 ), #180, .F. ) ;
#984 = ORIENTED_EDGE ( 'NONE', *, *, #407, .F. ) ;
#985 = ORIENTED_EDGE ( 'NONE', *, *, #432, .F. ) ;
#986 = AXIS2_PLACEMENT_3D ( 'NONE', #1358, #1366, #84 ) ;
#987 = DIRECTION ( 'NONE',  ( -1.000000000000000000, 0.000000000000000000, 0.000000000000000000 ) ) ;
#988 = DIRECTION ( 'NONE',  ( 1.000000000000000000, 0.000000000000000000, -0.000000000000000000 ) ) ;
#989 = CIRCLE ( 'NONE', #148, 0.5000000000000001110 ) ;
#990 = DIRECTION ( 'NONE',  ( 1.000000000000000000, 0.000000000000000000, 0.000000000000000000 ) ) ;
#991 = CARTESIAN_POINT ( 'NONE',  ( -6.499999999999995559, -18.00000000000000355, 1.500000000000000000 ) ) ;
#992 = DIRECTION ( 'NONE',  ( 1.000000000000000000, 0.000000000000000000, 0.000000000000000000 ) ) ;
#993 = EDGE_CURVE ( 'NONE', #1271, #836, #1231, .T. ) ;
#994 = VERTEX_POINT ( 'NONE', #52 ) ;
#995 = DIRECTION ( 'NONE',  ( 3.252606517456510344E-16, 1.000000000000000000, 0.000000000000000000 ) ) ;
#996 = LINE ( 'NONE', #477, #1052 ) ;
#997 = CIRCLE ( 'NONE', #115, 2.499999999999998668 ) ;
#998 = DIRECTION ( 'NONE',  ( 0.000000000000000000, 1.000000000000000000, 0.000000000000000000 ) ) ;
#999 = DIRECTION ( 'NONE',  ( -1.000000000000000000, 0.000000000000000000, 0.000000000000000000 ) ) ;
#1000 = CARTESIAN_POINT ( 'NONE',  ( -7.699999999999996625, -18.00000000000000355, 0.000000000000000000 ) ) ;
#1001 = AXIS2_PLACEMENT_3D ( 'NONE', #474, #1121, #912 ) ;
#1002 = VERTEX_POINT ( 'NONE', #698 ) ;
#1003 = DIRECTION ( 'NONE',  ( -1.000000000000000000, 0.000000000000000000, 0.000000000000000000 ) ) ;
#1004 = VECTOR ( 'NONE', #1021, 1000.000000000000000 ) ;
#1005 = FACE_OUTER_BOUND ( 'NONE', #734, .T. ) ;
#1006 = CARTESIAN_POINT ( 'NONE',  ( 9.000000000000005329, -18.00000000000000355, 1.500000000000000000 ) ) ;
#1007 = DIRECTION ( 'NONE',  ( -1.000000000000000000, 0.000000000000000000, 0.000000000000000000 ) ) ;
#1008 = VERTEX_POINT ( 'NONE', #895 ) ;
#1009 = CARTESIAN_POINT ( 'NONE',  ( -6.999999999999998224, 5.999999999999998224, 1.500000000000000000 ) ) ;
#1010 = CARTESIAN_POINT ( 'NONE',  ( 13.99999999999999467, -19.99999999999999645, 0.000000000000000000 ) ) ;
#1011 = EDGE_CURVE ( 'NONE', #1156, #858, #577, .T. ) ;
#1012 = CYLINDRICAL_SURFACE ( 'NONE', #265, 1.299999999999999156 ) ;
#1013 = LINE ( 'NONE', #66, #1099 ) ;
#1014 = ORIENTED_EDGE ( 'NONE', *, *, #1287, .F. ) ;
#1015 = CARTESIAN_POINT ( 'NONE',  ( -0.4999999999999998890, -13.00000000000000178, 0.4000000000000000222 ) ) ;
#1016 = CARTESIAN_POINT ( 'NONE',  ( -8.999999999999996447, -18.00000000000000355, 1.500000000000000000 ) ) ;
#1017 = CARTESIAN_POINT ( 'NONE',  ( 9.000000000000000000, 18.00000000000000000, 0.000000000000000000 ) ) ;
#1018 = EDGE_CURVE ( 'NONE', #781, #1204, #887, .T. ) ;
#1019 = DIRECTION ( 'NONE',  ( -0.000000000000000000, 0.000000000000000000, 1.000000000000000000 ) ) ;
#1020 = DIRECTION ( 'NONE',  ( -1.000000000000000000, 0.000000000000000000, 0.000000000000000000 ) ) ;
#1021 = DIRECTION ( 'NONE',  ( 0.000000000000000000, 0.000000000000000000, -1.000000000000000000 ) ) ;
#1022 = CARTESIAN_POINT ( 'NONE',  ( -8.999999999999996447, -18.00000000000000355, 3.000000000000000000 ) ) ;
#1023 = DIRECTION ( 'NONE',  ( 0.000000000000000000, -0.000000000000000000, -1.000000000000000000 ) ) ;
#1024 = VERTEX_POINT ( 'NONE', #800 ) ;
#1025 = CARTESIAN_POINT ( 'NONE',  ( -10.29999999999999538, -18.00000000000000355, 1.500000000000000000 ) ) ;
#1026 = EDGE_CURVE ( 'NONE', #223, #418, #1324, .T. ) ;
#1027 = ORIENTED_EDGE ( 'NONE', *, *, #1107, .F. ) ;
#1028 = DIRECTION ( 'NONE',  ( 1.000000000000000000, 1.239088197126290817E-16, 0.000000000000000000 ) ) ;
#1029 = LINE ( 'NONE', #942, #697 ) ;
#1030 = CARTESIAN_POINT ( 'NONE',  ( 10.99999999999999645, -19.99999999999999645, 0.000000000000000000 ) ) ;
#1031 = EDGE_LOOP ( 'NONE', ( #218, #863 ) ) ;
#1032 = CARTESIAN_POINT ( 'NONE',  ( -14.00000000000000178, 0.000000000000000000, 3.000000000000000000 ) ) ;
#1033 = VECTOR ( 'NONE', #1297, 1000.000000000000000 ) ;
#1034 = CIRCLE ( 'NONE', #1180, 1.299999999999999156 ) ;
#1035 = ADVANCED_FACE ( 'NONE', ( #143 ), #1130, .F. ) ;
#1036 = ORIENTED_EDGE ( 'NONE', *, *, #694, .F. ) ;
#1037 = DIRECTION ( 'NONE',  ( -0.000000000000000000, 0.000000000000000000, -1.000000000000000000 ) ) ;
#1038 = FACE_OUTER_BOUND ( 'NONE', #870, .T. ) ;
#1039 = CARTESIAN_POINT ( 'NONE',  ( 7.000000000000001776, 0.000000000000000000, 3.000000000000000000 ) ) ;
#1040 = DIRECTION ( 'NONE',  ( -0.000000000000000000, 0.000000000000000000, 1.000000000000000000 ) ) ;
#1041 = ORIENTED_EDGE ( 'NONE', *, *, #1323, .T. ) ;
#1042 = FACE_OUTER_BOUND ( 'NONE', #425, .T. ) ;
#1043 = AXIS2_PLACEMENT_3D ( 'NONE', #772, #1091, #1171 ) ;
#1044 = EDGE_LOOP ( 'NONE', ( #110, #845, #1293, #1057 ) ) ;
#1045 = CARTESIAN_POINT ( 'NONE',  ( 7.700000000000000178, 18.00000000000000000, 0.000000000000000000 ) ) ;
#1046 = FACE_OUTER_BOUND ( 'NONE', #653, .T. ) ;
#1047 = ADVANCED_FACE ( 'NONE', ( #172 ), #1012, .F. ) ;
#1048 = CARTESIAN_POINT ( 'NONE',  ( 9.000000000000000000, 18.00000000000000000, 3.000000000000000000 ) ) ;
#1049 = ORIENTED_EDGE ( 'NONE', *, *, #15, .F. ) ;
#1050 = CARTESIAN_POINT ( 'NONE',  ( -11.00000000000000355, 23.00000000000000000, 0.000000000000000000 ) ) ;
#1051 = ORIENTED_EDGE ( 'NONE', *, *, #1166, .T. ) ;
#1052 = VECTOR ( 'NONE', #1110, 1000.000000000000000 ) ;
#1053 = ORIENTED_EDGE ( 'NONE', *, *, #812, .T. ) ;
#1054 = FACE_OUTER_BOUND ( 'NONE', #1265, .T. ) ;
#1055 = ADVANCED_FACE ( 'NONE', ( #787 ), #1217, .T. ) ;
#1056 = SURFACE_STYLE_USAGE ( .BOTH. , #398 ) ;
#1057 = ORIENTED_EDGE ( 'NONE', *, *, #432, .T. ) ;
#1058 = DIRECTION ( 'NONE',  ( -8.673617379884034239E-17, 1.000000000000000000, 0.000000000000000000 ) ) ;
#1059 = VERTEX_POINT ( 'NONE', #560 ) ;
#1060 = VERTEX_POINT ( 'NONE', #1224 ) ;
#1061 = CARTESIAN_POINT ( 'NONE',  ( -8.999999999999996447, -18.00000000000000355, 1.500000000000000000 ) ) ;
#1062 = AXIS2_PLACEMENT_3D ( 'NONE', #491, #1160, #732 ) ;
#1063 = EDGE_LOOP ( 'NONE', ( #1097, #768 ) ) ;
#1064 = CARTESIAN_POINT ( 'NONE',  ( 9.000000000000005329, -18.00000000000000355, 1.500000000000000000 ) ) ;
#1065 = EDGE_CURVE ( 'NONE', #1114, #325, #158, .T. ) ;
#1066 = VERTEX_POINT ( 'NONE', #374 ) ;
#1067 = AXIS2_PLACEMENT_3D ( 'NONE', #93, #1040, #619 ) ;
#1068 = ORIENTED_EDGE ( 'NONE', *, *, #739, .F. ) ;
#1069 = CARTESIAN_POINT ( 'NONE',  ( 10.00000000000000355, -11.00000000000000178, 1.500000000000000000 ) ) ;
#1070 = EDGE_LOOP ( 'NONE', ( #684, #124, #1036, #316 ) ) ;
#1071 = FACE_OUTER_BOUND ( 'NONE', #435, .T. ) ;
#1072 = AXIS2_PLACEMENT_3D ( 'NONE', #1117, #1205, #987 ) ;
#1073 = ORIENTED_EDGE ( 'NONE', *, *, #1188, .T. ) ;
#1074 = ADVANCED_FACE ( 'NONE', ( #1330 ), #680, .F. ) ;
#1075 = CIRCLE ( 'NONE', #355, 2.999999999999999112 ) ;
#1076 = DIRECTION ( 'NONE',  ( 1.000000000000000000, 0.000000000000000000, 0.000000000000000000 ) ) ;
#1077 = ORIENTED_EDGE ( 'NONE', *, *, #100, .T. ) ;
#1078 = ORIENTED_EDGE ( 'NONE', *, *, #127, .T. ) ;
#1079 = EDGE_CURVE ( 'NONE', #1066, #219, #1291, .T. ) ;
#1080 = ORIENTED_EDGE ( 'NONE', *, *, #22, .T. ) ;
#1081 = CYLINDRICAL_SURFACE ( 'NONE', #1104, 1.299999999999999156 ) ;
#1082 = CARTESIAN_POINT ( 'NONE',  ( -9.000000000000000000, 17.99999999999999645, 1.500000000000000000 ) ) ;
#1083 = ORIENTED_EDGE ( 'NONE', *, *, #625, .F. ) ;
#1084 = LINE ( 'NONE', #328, #501 ) ;
#1085 = EDGE_CURVE ( 'NONE', #547, #519, #1250, .T. ) ;
#1086 = ORIENTED_EDGE ( 'NONE', *, *, #721, .T. ) ;
#1087 = ORIENTED_EDGE ( 'NONE', *, *, #306, .T. ) ;
#1088 = ORIENTED_EDGE ( 'NONE', *, *, #1157, .F. ) ;
#1089 = CYLINDRICAL_SURFACE ( 'NONE', #1072, 2.500000000000000444 ) ;
#1090 = UNCERTAINTY_MEASURE_WITH_UNIT (LENGTH_MEASURE( 1.000000000000000082E-05 ), #518, 'distance_accuracy_value', 'NONE');
#1091 = DIRECTION ( 'NONE',  ( -1.000000000000000000, -8.673617379884034239E-17, 0.000000000000000000 ) ) ;
#1092 = CIRCLE ( 'NONE', #490, 2.999999999999999112 ) ;
#1093 = DIRECTION ( 'NONE',  ( -0.000000000000000000, -0.000000000000000000, -1.000000000000000000 ) ) ;
#1094 = EDGE_CURVE ( 'NONE', #260, #313, #65, .T. ) ;
#1095 = CARTESIAN_POINT ( 'NONE',  ( -11.49999999999999645, -18.00000000000000355, 1.500000000000000000 ) ) ;
#1096 = ORIENTED_EDGE ( 'NONE', *, *, #1207, .T. ) ;
#1097 = ORIENTED_EDGE ( 'NONE', *, *, #1235, .F. ) ;
#1098 = CARTESIAN_POINT ( 'NONE',  ( -9.999999999999998224, -11.00000000000000355, 1.500000000000000000 ) ) ;
#1099 = VECTOR ( 'NONE', #801, 1000.000000000000000 ) ;
#1100 = CARTESIAN_POINT ( 'NONE',  ( -9.000000000000000000, 17.99999999999999645, 1.500000000000000000 ) ) ;
#1101 = CIRCLE ( 'NONE', #561, 1.299999999999999156 ) ;
#1102 = CARTESIAN_POINT ( 'NONE',  ( -9.999999999999998224, -11.00000000000000355, 1.500000000000000000 ) ) ;
#1103 = EDGE_CURVE ( 'NONE', #920, #96, #889, .T. ) ;
#1104 = AXIS2_PLACEMENT_3D ( 'NONE', #220, #440, #968 ) ;
#1105 = CARTESIAN_POINT ( 'NONE',  ( 9.000000000000005329, -18.00000000000000355, 0.000000000000000000 ) ) ;
#1106 = DIRECTION ( 'NONE',  ( -0.000000000000000000, 0.000000000000000000, 1.000000000000000000 ) ) ;
#1107 = EDGE_CURVE ( 'NONE', #682, #260, #368, .T. ) ;
#1108 = ORIENTED_EDGE ( 'NONE', *, *, #1348, .F. ) ;
#1109 = LINE ( 'NONE', #790, #535 ) ;
#1110 = DIRECTION ( 'NONE',  ( 0.000000000000000000, 1.000000000000000000, 0.000000000000000000 ) ) ;
#1111 = VECTOR ( 'NONE', #817, 1000.000000000000000 ) ;
#1112 = AXIS2_PLACEMENT_3D ( 'NONE', #104, #134, #878 ) ;
#1113 = CARTESIAN_POINT ( 'NONE',  ( -11.00000000000000355, 20.00000000000000000, 0.000000000000000000 ) ) ;
#1114 = VERTEX_POINT ( 'NONE', #459 ) ;
#1115 = VECTOR ( 'NONE', #665, 1000.000000000000000 ) ;
#1116 = EDGE_CURVE ( 'NONE', #641, #1289, #286, .T. ) ;
#1117 = CARTESIAN_POINT ( 'NONE',  ( 9.000000000000005329, -18.00000000000000355, 1.500000000000000000 ) ) ;
#1118 = VECTOR ( 'NONE', #779, 1000.000000000000000 ) ;
#1119 = DIRECTION ( 'NONE',  ( 1.000000000000000000, 0.000000000000000000, 0.000000000000000000 ) ) ;
#1120 = CARTESIAN_POINT ( 'NONE',  ( -8.999999999999996447, -18.00000000000000355, 1.500000000000000000 ) ) ;
#1121 = DIRECTION ( 'NONE',  ( 0.000000000000000000, -0.000000000000000000, -1.000000000000000000 ) ) ;
#1122 = AXIS2_PLACEMENT_3D ( 'NONE', #854, #446, #1300 ) ;
#1123 = DIRECTION ( 'NONE',  ( -0.000000000000000000, 0.000000000000000000, -1.000000000000000000 ) ) ;
#1124 = CARTESIAN_POINT ( 'NONE',  ( 11.49999999999999822, 18.00000000000000000, 1.500000000000000000 ) ) ;
#1125 = EDGE_CURVE ( 'NONE', #60, #620, #382, .T. ) ;
#1126 = VECTOR ( 'NONE', #678, 1000.000000000000000 ) ;
#1127 = CARTESIAN_POINT ( 'NONE',  ( 9.000000000000005329, -18.00000000000000355, 1.500000000000000000 ) ) ;
#1128 = CARTESIAN_POINT ( 'NONE',  ( 10.99999999999999645, -22.99999999999999645, 0.000000000000000000 ) ) ;
#1129 = MANIFOLD_SOLID_BREP ( 'Cut-Extrude3', #145 ) ;
#1130 = PLANE ( 'NONE',  #714 ) ;
#1131 = CARTESIAN_POINT ( 'NONE',  ( -8.999999999999996447, -18.00000000000000355, 1.500000000000000000 ) ) ;
#1132 = EDGE_LOOP ( 'NONE', ( #26, #135, #332, #234, #1186, #1153, #538, #94 ) ) ;
#1133 = FACE_OUTER_BOUND ( 'NONE', #1070, .T. ) ;
#1134 = DIRECTION ( 'NONE',  ( 0.000000000000000000, -0.000000000000000000, -1.000000000000000000 ) ) ;
#1135 = CIRCLE ( 'NONE', #45, 2.500000000000000444 ) ;
#1136 = ADVANCED_FACE ( 'NONE', ( #1145, #1361 ), #390, .F. ) ;
#1137 = CARTESIAN_POINT ( 'NONE',  ( -9.000000000000000000, 17.99999999999999645, 0.000000000000000000 ) ) ;
#1138 = ORIENTED_EDGE ( 'NONE', *, *, #544, .T. ) ;
#1139 = DIRECTION ( 'NONE',  ( 1.000000000000000000, 0.000000000000000000, 0.000000000000000000 ) ) ;
#1140 = ORIENTED_EDGE ( 'NONE', *, *, #57, .T. ) ;
#1141 = LINE ( 'NONE', #378, #336 ) ;
#1142 = DIRECTION ( 'NONE',  ( 1.000000000000000000, 1.239088197126290817E-16, 0.000000000000000000 ) ) ;
#1143 = DIRECTION ( 'NONE',  ( -1.000000000000000000, 0.000000000000000000, 0.000000000000000000 ) ) ;
#1144 = EDGE_CURVE ( 'NONE', #937, #288, #885, .T. ) ;
#1145 = FACE_OUTER_BOUND ( 'NONE', #737, .T. ) ;
#1146 = ORIENTED_EDGE ( 'NONE', *, *, #892, .T. ) ;
#1147 = AXIS2_PLACEMENT_3D ( 'NONE', #482, #470, #462 ) ;
#1148 = DIRECTION ( 'NONE',  ( -0.000000000000000000, 0.000000000000000000, 1.000000000000000000 ) ) ;
#1149 = ORIENTED_EDGE ( 'NONE', *, *, #634, .F. ) ;
#1150 = CARTESIAN_POINT ( 'NONE',  ( -7.699999999999995737, -18.00000000000000355, 1.500000000000000000 ) ) ;
#1151 = FACE_OUTER_BOUND ( 'NONE', #1278, .T. ) ;
#1152 = DIRECTION ( 'NONE',  ( -0.000000000000000000, 0.000000000000000000, 1.000000000000000000 ) ) ;
#1153 = ORIENTED_EDGE ( 'NONE', *, *, #28, .T. ) ;
#1154 = CARTESIAN_POINT ( 'NONE',  ( 9.000000000000000000, 18.00000000000000000, 1.500000000000000000 ) ) ;
#1155 = CIRCLE ( 'NONE', #540, 2.499999999999998668 ) ;
#1156 = VERTEX_POINT ( 'NONE', #302 ) ;
#1157 = EDGE_CURVE ( 'NONE', #1059, #742, #1304, .T. ) ;
#1158 = EDGE_CURVE ( 'NONE', #1060, #1249, #458, .T. ) ;
#1159 = DIRECTION ( 'NONE',  ( 0.000000000000000000, -0.000000000000000000, -1.000000000000000000 ) ) ;
#1160 = DIRECTION ( 'NONE',  ( -0.000000000000000000, -0.000000000000000000, -1.000000000000000000 ) ) ;
#1161 = DIRECTION ( 'NONE',  ( 1.000000000000000000, 0.000000000000000000, 0.000000000000000000 ) ) ;
#1162 = ORIENTED_EDGE ( 'NONE', *, *, #728, .F. ) ;
#1163 = DIRECTION ( 'NONE',  ( 0.000000000000000000, 0.000000000000000000, -1.000000000000000000 ) ) ;
#1164 = VECTOR ( 'NONE', #481, 1000.000000000000000 ) ;
#1165 = ORIENTED_EDGE ( 'NONE', *, *, #1350, .F. ) ;
#1166 = EDGE_CURVE ( 'NONE', #1002, #1249, #206, .T. ) ;
#1167 = ORIENTED_EDGE ( 'NONE', *, *, #825, .T. ) ;
#1168 = CYLINDRICAL_SURFACE ( 'NONE', #1367, 1.299999999999999156 ) ;
#1169 = LINE ( 'NONE', #421, #329 ) ;
#1170 = ORIENTED_EDGE ( 'NONE', *, *, #544, .F. ) ;
#1171 = DIRECTION ( 'NONE',  ( 8.673617379884034239E-17, -1.000000000000000000, 0.000000000000000000 ) ) ;
#1172 = ORIENTED_EDGE ( 'NONE', *, *, #580, .F. ) ;
#1173 = AXIS2_PLACEMENT_3D ( 'NONE', #687, #805, #1119 ) ;
#1174 = EDGE_LOOP ( 'NONE', ( #1138, #429, #299, #875 ) ) ;
#1175 = DIRECTION ( 'NONE',  ( -1.000000000000000000, 0.000000000000000000, 0.000000000000000000 ) ) ;
#1176 = ADVANCED_FACE ( 'NONE', ( #833 ), #1267, .F. ) ;
#1177 = ORIENTED_EDGE ( 'NONE', *, *, #672, .F. ) ;
#1178 = DIRECTION ( 'NONE',  ( -0.000000000000000000, -0.000000000000000000, -1.000000000000000000 ) ) ;
#1179 = ORIENTED_EDGE ( 'NONE', *, *, #1094, .F. ) ;
#1180 = AXIS2_PLACEMENT_3D ( 'NONE', #198, #189, #918 ) ;
#1181 = ORIENTED_EDGE ( 'NONE', *, *, #397, .T. ) ;
#1182 = DIRECTION ( 'NONE',  ( 0.000000000000000000, 0.000000000000000000, -1.000000000000000000 ) ) ;
#1183 = EDGE_CURVE ( 'NONE', #1258, #858, #154, .T. ) ;
#1184 = CARTESIAN_POINT ( 'NONE',  ( 9.000000000000000000, 18.00000000000000000, 1.500000000000000000 ) ) ;
#1185 = ORIENTED_EDGE ( 'NONE', *, *, #1280, .T. ) ;
#1186 = ORIENTED_EDGE ( 'NONE', *, *, #295, .T. ) ;
#1187 = LINE ( 'NONE', #859, #1275 ) ;
#1188 = EDGE_CURVE ( 'NONE', #1192, #596, #199, .T. ) ;
#1189 = AXIS2_PLACEMENT_3D ( 'NONE', #75, #488, #600 ) ;
#1190 = APPLICATION_CONTEXT ( 'automotive_design' ) ;
#1191 = ORIENTED_EDGE ( 'NONE', *, *, #1094, .T. ) ;
#1192 = VERTEX_POINT ( 'NONE', #183 ) ;
#1193 = DIRECTION ( 'NONE',  ( -0.000000000000000000, -0.000000000000000000, -1.000000000000000000 ) ) ;
#1194 = CARTESIAN_POINT ( 'NONE',  ( -7.700000000000000178, 17.99999999999999645, 0.000000000000000000 ) ) ;
#1195 = ORIENTED_EDGE ( 'NONE', *, *, #1323, .F. ) ;
#1196 = EDGE_CURVE ( 'NONE', #303, #20, #613, .T. ) ;
#1197 = DIRECTION ( 'NONE',  ( 0.000000000000000000, -1.000000000000000000, 0.000000000000000000 ) ) ;
#1198 = VERTEX_POINT ( 'NONE', #943 ) ;
#1199 = ORIENTED_EDGE ( 'NONE', *, *, #606, .F. ) ;
#1200 = FACE_OUTER_BOUND ( 'NONE', #215, .T. ) ;
#1201 = EDGE_CURVE ( 'NONE', #858, #769, #177, .T. ) ;
#1202 = FACE_OUTER_BOUND ( 'NONE', #949, .T. ) ;
#1203 = DIRECTION ( 'NONE',  ( 0.000000000000000000, 0.000000000000000000, -1.000000000000000000 ) ) ;
#1204 = VERTEX_POINT ( 'NONE', #310 ) ;
#1205 = DIRECTION ( 'NONE',  ( 0.000000000000000000, 0.000000000000000000, -1.000000000000000000 ) ) ;
#1206 = VECTOR ( 'NONE', #1182, 1000.000000000000000 ) ;
#1207 = EDGE_CURVE ( 'NONE', #963, #1270, #930, .T. ) ;
#1208 = DIRECTION ( 'NONE',  ( -0.000000000000000000, -0.000000000000000000, -1.000000000000000000 ) ) ;
#1209 = CARTESIAN_POINT ( 'NONE',  ( -9.000000000000000000, 17.99999999999999645, 1.500000000000000000 ) ) ;
#1210 = EDGE_LOOP ( 'NONE', ( #890, #715, #971, #1255 ) ) ;
#1211 = ORIENTED_EDGE ( 'NONE', *, *, #533, .F. ) ;
#1212 = DIRECTION ( 'NONE',  ( 1.000000000000000000, 0.000000000000000000, 0.000000000000000000 ) ) ;
#1213 = AXIS2_PLACEMENT_3D ( 'NONE', #232, #1106, #992 ) ;
#1214 = CARTESIAN_POINT ( 'NONE',  ( -0.5000000000000005551, -15.00000000000000355, 0.4000000000000000222 ) ) ;
#1215 = AXIS2_PLACEMENT_3D ( 'NONE', #816, #508, #405 ) ;
#1216 = EDGE_CURVE ( 'NONE', #729, #682, #1169, .T. ) ;
#1217 = CYLINDRICAL_SURFACE ( 'NONE', #1356, 2.999999999999999112 ) ;
#1218 = CARTESIAN_POINT ( 'NONE',  ( -9.000000000000000000, 17.99999999999999645, 1.500000000000000000 ) ) ;
#1219 = VERTEX_POINT ( 'NONE', #595 ) ;
#1220 = DIRECTION ( 'NONE',  ( 0.000000000000000000, 0.000000000000000000, -1.000000000000000000 ) ) ;
#1221 = DIRECTION ( 'NONE',  ( 0.000000000000000000, -0.000000000000000000, -1.000000000000000000 ) ) ;
#1222 = AXIS2_PLACEMENT_3D ( 'NONE', #503, #929, #375 ) ;
#1223 = DIRECTION ( 'NONE',  ( -0.000000000000000000, 0.000000000000000000, 1.000000000000000000 ) ) ;
#1224 = CARTESIAN_POINT ( 'NONE',  ( 7.700000000000005507, -18.00000000000000355, 1.500000000000000000 ) ) ;
#1225 = CARTESIAN_POINT ( 'NONE',  ( 2.192260049455927259E-16, -13.00000000000000178, 0.4000000000000000222 ) ) ;
#1226 = ADVANCED_FACE ( 'NONE', ( #847, #784 ), #679, .F. ) ;
#1227 = LINE ( 'NONE', #669, #778 ) ;
#1228 = CARTESIAN_POINT ( 'NONE',  ( -11.00000000000000355, -19.99999999999999645, 0.000000000000000000 ) ) ;
#1229 = DIRECTION ( 'NONE',  ( -1.000000000000000000, 3.252606517456510837E-16, 0.000000000000000000 ) ) ;
#1230 = AXIS2_PLACEMENT_3D ( 'NONE', #1127, #791, #798 ) ;
#1231 = LINE ( 'NONE', #466, #576 ) ;
#1232 = VECTOR ( 'NONE', #1197, 1000.000000000000000 ) ;
#1233 = DIRECTION ( 'NONE',  ( -0.000000000000000000, 0.000000000000000000, 1.000000000000000000 ) ) ;
#1234 = CARTESIAN_POINT ( 'NONE',  ( 13.99999999999999467, -19.99999999999999645, 0.000000000000000000 ) ) ;
#1235 = EDGE_CURVE ( 'NONE', #254, #44, #1135, .T. ) ;
#1236 = AXIS2_PLACEMENT_3D ( 'NONE', #197, #950, #293 ) ;
#1237 = PLANE ( 'NONE',  #32 ) ;
#1238 = DIRECTION ( 'NONE',  ( 0.000000000000000000, 1.000000000000000000, -0.000000000000000000 ) ) ;
#1239 = CARTESIAN_POINT ( 'NONE',  ( -0.5000000000000005551, -15.00000000000000355, 0.000000000000000000 ) ) ;
#1240 = VECTOR ( 'NONE', #974, 1000.000000000000000 ) ;
#1241 = ORIENTED_EDGE ( 'NONE', *, *, #803, .F. ) ;
#1242 = CYLINDRICAL_SURFACE ( 'NONE', #54, 2.500000000000000444 ) ;
#1243 = LINE ( 'NONE', #283, #879 ) ;
#1244 = EDGE_CURVE ( 'NONE', #551, #765, #150, .T. ) ;
#1245 = AXIS2_PLACEMENT_3D ( 'NONE', #1030, #1023, #733 ) ;
#1246 = CARTESIAN_POINT ( 'NONE',  ( 10.00000000000000355, -11.00000000000000178, 0.000000000000000000 ) ) ;
#1247 = ORIENTED_EDGE ( 'NONE', *, *, #367, .T. ) ;
#1248 = DIRECTION ( 'NONE',  ( 1.000000000000000000, -3.252606517456510837E-16, 0.000000000000000000 ) ) ;
#1249 = VERTEX_POINT ( 'NONE', #1335 ) ;
#1250 = CIRCLE ( 'NONE', #935, 1.299999999999999156 ) ;
#1251 = LINE ( 'NONE', #513, #101 ) ;
#1252 = FACE_OUTER_BOUND ( 'NONE', #946, .T. ) ;
#1253 = CIRCLE ( 'NONE', #828, 2.999999999999999112 ) ;
#1254 = DIRECTION ( 'NONE',  ( -0.000000000000000000, -0.000000000000000000, -1.000000000000000000 ) ) ;
#1255 = ORIENTED_EDGE ( 'NONE', *, *, #777, .F. ) ;
#1256 = AXIS2_PLACEMENT_3D ( 'NONE', #685, #269, #1003 ) ;
#1257 = CARTESIAN_POINT ( 'NONE',  ( 9.000000000000000000, 18.00000000000000000, 1.500000000000000000 ) ) ;
#1258 = VERTEX_POINT ( 'NONE', #900 ) ;
#1259 = FACE_BOUND ( 'NONE', #758, .T. ) ;
#1260 = DIRECTION ( 'NONE',  ( -1.000000000000000000, 0.000000000000000000, 0.000000000000000000 ) ) ;
#1261 = ORIENTED_EDGE ( 'NONE', *, *, #634, .T. ) ;
#1262 = CARTESIAN_POINT ( 'NONE',  ( -14.00000000000000178, 0.000000000000000000, 3.000000000000000000 ) ) ;
#1263 = EDGE_CURVE ( 'NONE', #244, #774, #997, .T. ) ;
#1264 = ORIENTED_EDGE ( 'NONE', *, *, #764, .F. ) ;
#1265 = EDGE_LOOP ( 'NONE', ( #726, #967, #238, #881 ) ) ;
#1266 = DIRECTION ( 'NONE',  ( 0.000000000000000000, 1.000000000000000000, 0.000000000000000000 ) ) ;
#1267 = CYLINDRICAL_SURFACE ( 'NONE', #568, 1.299999999999999156 ) ;
#1268 = VERTEX_POINT ( 'NONE', #478 ) ;
#1269 = PLANE ( 'NONE',  #248 ) ;
#1270 = VERTEX_POINT ( 'NONE', #1128 ) ;
#1271 = VERTEX_POINT ( 'NONE', #457 ) ;
#1272 = CARTESIAN_POINT ( 'NONE',  ( -10.29999999999999893, 17.99999999999999645, 1.500000000000000000 ) ) ;
#1273 = ORIENTED_EDGE ( 'NONE', *, *, #1360, .F. ) ;
#1274 = FACE_OUTER_BOUND ( 'NONE', #598, .T. ) ;
#1275 = VECTOR ( 'NONE', #321, 1000.000000000000000 ) ;
#1276 = ORIENTED_EDGE ( 'NONE', *, *, #1103, .F. ) ;
#1277 = CIRCLE ( 'NONE', #802, 1.299999999999999156 ) ;
#1278 = EDGE_LOOP ( 'NONE', ( #1185, #178, #1195, #843 ) ) ;
#1279 = DIRECTION ( 'NONE',  ( -0.000000000000000000, 0.000000000000000000, 1.000000000000000000 ) ) ;
#1280 = EDGE_CURVE ( 'NONE', #729, #1271, #264, .T. ) ;
#1281 = LINE ( 'NONE', #727, #379 ) ;
#1282 = AXIS2_PLACEMENT_3D ( 'NONE', #699, #1248, #597 ) ;
#1283 = VERTEX_POINT ( 'NONE', #1322 ) ;
#1284 = ORIENTED_EDGE ( 'NONE', *, *, #37, .T. ) ;
#1285 = CARTESIAN_POINT ( 'NONE',  ( 7.700000000000000178, 18.00000000000000000, 3.000000000000000000 ) ) ;
#1286 = CIRCLE ( 'NONE', #88, 2.500000000000000444 ) ;
#1287 = EDGE_CURVE ( 'NONE', #96, #920, #324, .T. ) ;
#1288 = EDGE_LOOP ( 'NONE', ( #668, #637, #1165, #209 ) ) ;
#1289 = VERTEX_POINT ( 'NONE', #42 ) ;
#1290 = LINE ( 'NONE', #1069, #1206 ) ;
#1291 = CIRCLE ( 'NONE', #756, 2.999999999999999112 ) ;
#1292 = EDGE_CURVE ( 'NONE', #303, #1024, #886, .T. ) ;
#1293 = ORIENTED_EDGE ( 'NONE', *, *, #812, .F. ) ;
#1294 = ORIENTED_EDGE ( 'NONE', *, *, #367, .F. ) ;
#1295 = CARTESIAN_POINT ( 'NONE',  ( -8.999999999999996447, -18.00000000000000355, 0.000000000000000000 ) ) ;
#1296 = ORIENTED_EDGE ( 'NONE', *, *, #416, .F. ) ;
#1297 = DIRECTION ( 'NONE',  ( -0.000000000000000000, -0.000000000000000000, -1.000000000000000000 ) ) ;
#1298 = ADVANCED_FACE ( 'NONE', ( #663 ), #696, .F. ) ;
#1299 = ORIENTED_EDGE ( 'NONE', *, *, #672, .T. ) ;
#1300 = DIRECTION ( 'NONE',  ( 1.000000000000000000, 0.000000000000000000, 0.000000000000000000 ) ) ;
#1301 = PRODUCT_DEFINITION_CONTEXT ( 'detailed design', #599, 'design' ) ;
#1302 = DIRECTION ( 'NONE',  ( -1.000000000000000000, 0.000000000000000000, 0.000000000000000000 ) ) ;
#1303 = VERTEX_POINT ( 'NONE', #171 ) ;
#1304 = CIRCLE ( 'NONE', #221, 1.299999999999999156 ) ;
#1305 = EDGE_LOOP ( 'NONE', ( #744, #523 ) ) ;
#1306 = CARTESIAN_POINT ( 'NONE',  ( -6.499999999999995559, -18.00000000000000355, 1.500000000000000000 ) ) ;
#1307 = DIRECTION ( 'NONE',  ( -1.000000000000000000, 0.000000000000000000, 0.000000000000000000 ) ) ;
#1308 = LINE ( 'NONE', #242, #40 ) ;
#1309 = DIRECTION ( 'NONE',  ( -0.000000000000000000, 0.000000000000000000, 1.000000000000000000 ) ) ;
#1310 = EDGE_LOOP ( 'NONE', ( #347, #759, #469, #780 ) ) ;
#1311 = ORIENTED_EDGE ( 'NONE', *, *, #186, .T. ) ;
#1312 = CARTESIAN_POINT ( 'NONE',  ( 10.99999999999999645, 23.00000000000000000, 3.000000000000000000 ) ) ;
#1313 = VECTOR ( 'NONE', #1220, 1000.000000000000000 ) ;
#1314 = DIRECTION ( 'NONE',  ( 0.000000000000000000, 0.000000000000000000, -1.000000000000000000 ) ) ;
#1315 = EDGE_CURVE ( 'NONE', #1270, #20, #484, .T. ) ;
#1316 = CARTESIAN_POINT ( 'NONE',  ( -9.999999999999998224, -11.00000000000000355, 1.500000000000000000 ) ) ;
#1317 = LINE ( 'NONE', #667, #322 ) ;
#1318 = ORIENTED_EDGE ( 'NONE', *, *, #625, .T. ) ;
#1319 = DIRECTION ( 'NONE',  ( -1.000000000000000000, 0.000000000000000000, 0.000000000000000000 ) ) ;
#1320 = VECTOR ( 'NONE', #788, 1000.000000000000000 ) ;
#1321 = FACE_OUTER_BOUND ( 'NONE', #751, .T. ) ;
#1322 = CARTESIAN_POINT ( 'NONE',  ( 13.99999999999999467, -19.99999999999999645, 3.000000000000000000 ) ) ;
#1323 = EDGE_CURVE ( 'NONE', #682, #836, #1308, .T. ) ;
#1324 = LINE ( 'NONE', #1095, #1118 ) ;
#1325 = DIRECTION ( 'NONE',  ( -0.000000000000000000, 0.000000000000000000, 1.000000000000000000 ) ) ;
#1326 = FACE_BOUND ( 'NONE', #1288, .T. ) ;
#1327 = LINE ( 'NONE', #372, #107 ) ;
#1328 = AXIS2_PLACEMENT_3D ( 'NONE', #1154, #583, #1020 ) ;
#1329 = DIRECTION ( 'NONE',  ( -8.673617379884034239E-17, 1.000000000000000000, 0.000000000000000000 ) ) ;
#1330 = FACE_OUTER_BOUND ( 'NONE', #1362, .T. ) ;
#1331 = FACE_OUTER_BOUND ( 'NONE', #736, .T. ) ;
#1332 = EDGE_CURVE ( 'NONE', #864, #752, #352, .T. ) ;
#1333 = DIRECTION ( 'NONE',  ( 0.000000000000000000, -0.000000000000000000, 1.000000000000000000 ) ) ;
#1334 = DIRECTION ( 'NONE',  ( 1.000000000000000000, 0.000000000000000000, 0.000000000000000000 ) ) ;
#1335 = CARTESIAN_POINT ( 'NONE',  ( 10.30000000000000426, -18.00000000000000355, 1.500000000000000000 ) ) ;
#1336 = CIRCLE ( 'NONE', #666, 1.299999999999999156 ) ;
#1337 = DIRECTION ( 'NONE',  ( 1.000000000000000000, 0.000000000000000000, 0.000000000000000000 ) ) ;
#1338 = LINE ( 'NONE', #166, #253 ) ;
#1339 = EDGE_CURVE ( 'NONE', #719, #192, #1101, .T. ) ;
#1340 = DIRECTION ( 'NONE',  ( 1.000000000000000000, 0.000000000000000000, 0.000000000000000000 ) ) ;
#1341 = VECTOR ( 'NONE', #717, 1000.000000000000000 ) ;
#1342 = CARTESIAN_POINT ( 'NONE',  ( 9.912705577010330480E-16, -8.000000000000001776, 3.000000000000000000 ) ) ;
#1343 = DIRECTION ( 'NONE',  ( 0.000000000000000000, 0.000000000000000000, -1.000000000000000000 ) ) ;
#1344 = VECTOR ( 'NONE', #799, 1000.000000000000000 ) ;
#1345 = EDGE_LOOP ( 'NONE', ( #604, #307 ) ) ;
#1346 = CARTESIAN_POINT ( 'NONE',  ( 9.000000000000000000, 18.00000000000000000, 1.500000000000000000 ) ) ;
#1347 = DIRECTION ( 'NONE',  ( -1.000000000000000000, 0.000000000000000000, 0.000000000000000000 ) ) ;
#1348 = EDGE_CURVE ( 'NONE', #146, #1303, #1034, .T. ) ;
#1349 = DIRECTION ( 'NONE',  ( 0.000000000000000000, -0.000000000000000000, 1.000000000000000000 ) ) ;
#1350 = EDGE_CURVE ( 'NONE', #408, #260, #612, .T. ) ;
#1351 = VECTOR ( 'NONE', #278, 1000.000000000000000 ) ;
#1352 = DIRECTION ( 'NONE',  ( -1.000000000000000000, 0.000000000000000000, 0.000000000000000000 ) ) ;
#1353 = ORIENTED_EDGE ( 'NONE', *, *, #1018, .F. ) ;
#1354 = CARTESIAN_POINT ( 'NONE',  ( -14.00000000000000178, -19.99999999999999645, 0.000000000000000000 ) ) ;
#1355 = ORIENTED_EDGE ( 'NONE', *, *, #825, .F. ) ;
#1356 = AXIS2_PLACEMENT_3D ( 'NONE', #673, #569, #1007 ) ;
#1357 = CARTESIAN_POINT ( 'NONE',  ( -6.500000000000000888, 17.99999999999999645, 1.500000000000000000 ) ) ;
#1358 = CARTESIAN_POINT ( 'NONE',  ( 9.000000000000005329, -18.00000000000000355, 0.000000000000000000 ) ) ;
#1359 = AXIS2_PLACEMENT_3D ( 'NONE', #573, #147, #1212 ) ;
#1360 = EDGE_CURVE ( 'NONE', #841, #113, #989, .T. ) ;
#1361 = FACE_BOUND ( 'NONE', #972, .T. ) ;
#1362 = EDGE_LOOP ( 'NONE', ( #46, #1077, #1167, #67 ) ) ;
#1363 = CARTESIAN_POINT ( 'NONE',  ( 7.000000000000001776, 6.000000000000000000, 3.000000000000000000 ) ) ;
#1364 = ORIENTED_EDGE ( 'NONE', *, *, #1287, .T. ) ;
#1365 = FACE_BOUND ( 'NONE', #1305, .T. ) ;
#1366 = DIRECTION ( 'NONE',  ( -0.000000000000000000, -0.000000000000000000, -1.000000000000000000 ) ) ;
#1367 = AXIS2_PLACEMENT_3D ( 'NONE', #404, #99, #524 ) ;
ENDSEC;
END-ISO-10303-21;
