  0
SECTION
  2
HEADER
  9
$ACADVER
  1
AC1006
  9
$EXTMIN
 10
0.000000
 20
0.000000
 30
0.000000
  9
$EXTMAX
 10
816.000000
 20
1722.000000
 30
0.000000
  0
ENDSEC
  0
SECTION
  2
ENTITIES
  0
POLYLINE
  8
0
 66
1
 70
1
  0
VERTEX
  8
0
 10
189.000000
 20
1713.000000
 42
0.000000
  0
VERTEX
  8
0
 10
187.726713
 20
1707.000000
 42
0.000000
  0
VERTEX
  8
0
 10
181.471144
 20
1707.000000
 42
0.000000
  0
VERTEX
  8
0
 10
175.215575
 20
1707.000000
 42
0.000000
  0
VERTEX
  8
0
 10
173.707039
 20
1712.750000
 42
0.000000
  0
VERTEX
  8
0
 10
172.198504
 20
1718.500000
 42
0.000000
  0
VERTEX
  8
0
 10
172.099252
 20
1709.379961
 42
0.000000
  0
VERTEX
  8
0
 10
172.000000
 20
1700.259922
 42
0.000000
  0
VERTEX
  8
0
 10
167.471323
 20
1698.991971
 42
-0.009310
  0
VERTEX
  8
0
 10
165.710302
 20
1698.534097
 42
-0.014336
  0
VERTEX
  8
0
 10
164.169833
 20
1698.210453
 42
-0.008660
  0
VERTEX
  8
0
 10
162.893891
 20
1698.003110
 42
-0.249798
  0
VERTEX
  8
0
 10
162.591624
 20
1698.112010
 42
-0.060751
  0
VERTEX
  8
0
 10
162.373763
 20
1698.421039
 42
-0.001458
  0
VERTEX
  8
0
 10
161.546007
 20
1699.973694
 42
-0.003172
  0
VERTEX
  8
0
 10
160.591033
 20
1701.805640
 42
-0.002148
  0
VERTEX
  8
0
 10
159.525002
 20
1703.904820
 42
0.018407
  0
VERTEX
  8
0
 10
157.498394
 20
1707.593360
 42
0.323626
  0
VERTEX
  8
0
 10
156.314663
 20
1708.101667
 42
0.287375
  0
VERTEX
  8
0
 10
155.343642
 20
1707.140984
 42
0.015930
  0
VERTEX
  8
0
 10
154.461219
 20
1702.770455
 42
-0.021654
  0
VERTEX
  8
0
 10
153.868293
 20
1699.997736
 42
-0.241330
  0
VERTEX
  8
0
 10
153.139477
 20
1699.179357
 42
-0.357548
  0
VERTEX
  8
0
 10
152.289999
 20
1699.458182
 42
-0.034852
  0
VERTEX
  8
0
 10
151.181954
 20
1701.500000
 42
0.054800
  0
VERTEX
  8
0
 10
150.478510
 20
1702.681498
 42
0.095008
  0
VERTEX
  8
0
 10
149.633832
 20
1703.444810
 42
0.090542
  0
VERTEX
  8
0
 10
148.536787
 20
1703.863767
 42
0.046085
  0
VERTEX
  8
0
 10
147.061881
 20
1704.000000
 42
0.000000
  0
VERTEX
  8
0
 10
144.080885
 20
1704.000000
 42
0.000000
  0
VERTEX
  8
0
 10
143.790442
 20
1695.847759
 42
0.000000
  0
VERTEX
  8
0
 10
143.500000
 20
1687.695519
 42
0.000000
  0
VERTEX
  8
0
 10
139.587310
 20
1686.343782
 42
-0.009996
  0
VERTEX
  8
0
 10
138.062622
 20
1685.850929
 42
-0.015324
  0
VERTEX
  8
0
 10
136.721752
 20
1685.491340
 42
-0.009760
  0
VERTEX
  8
0
 10
135.612342
 20
1685.252737
 42
-0.249418
  0
VERTEX
  8
0
 10
135.326633
 20
1685.340034
 42
-0.253580
  0
VERTEX
  8
0
 10
135.241014
 20
1685.628306
 42
-0.008836
  0
VERTEX
  8
0
 10
135.511357
 20
1686.805941
 42
-0.014540
  0
VERTEX
  8
0
 10
135.907658
 20
1688.224601
 42
-0.009426
  0
VERTEX
  8
0
 10
136.444146
 20
1689.841692
 42
0.000000
  0
VERTEX
  8
0
 10
137.909646
 20
1693.995363
 42
0.000000
  0
VERTEX
  8
0
 10
134.839921
 20
1695.582780
 42
0.029259
  0
VERTEX
  8
0
 10
133.611203
 20
1696.129647
 42
0.041185
  0
VERTEX
  8
0
 10
132.458282
 20
1696.458583
 42
0.047413
  0
VERTEX
  8
0
 10
131.525456
 20
1696.552973
 42
0.218472
  0
VERTEX
  8
0
 10
131.042891
 20
1696.335098
 42
0.081533
  0
VERTEX
  8
0
 10
130.631966
 20
1695.670556
 42
0.002481
  0
VERTEX
  8
0
 10
129.408404
 20
1692.660935
 42
0.004838
  0
VERTEX
  8
0
 10
128.014764
 20
1689.083781
 42
0.003319
  0
VERTEX
  8
0
 10
126.500000
 20
1685.000000
 42
-0.003405
  0
VERTEX
  8
0
 10
124.983979
 20
1680.914996
 42
-0.004950
  0
VERTEX
  8
0
 10
123.586469
 20
1677.333938
 42
-0.002581
  0
VERTEX
  8
0
 10
122.359339
 20
1674.324116
 42
-0.081611
  0
VERTEX
  8
0
 10
121.939656
 20
1673.647449
 42
-0.306995
  0
VERTEX
  8
0
 10
121.343069
 20
1673.490623
 42
-0.015763
  0
VERTEX
  8
0
 10
119.385146
 20
1674.250459
 42
-0.020594
  0
VERTEX
  8
0
 10
116.989985
 20
1675.386540
 42
-0.012997
  0
VERTEX
  8
0
 10
114.289282
 20
1676.897449
 42
0.003728
  0
VERTEX
  8
0
 10
111.597365
 20
1678.469652
 42
0.005628
  0
VERTEX
  8
0
 10
109.227591
 20
1679.794876
 42
0.002414
  0
VERTEX
  8
0
 10
107.190541
 20
1680.891401
 42
0.122858
  0
VERTEX
  8
0
 10
106.755242
 20
1681.000000
 42
0.486782
  0
VERTEX
  8
0
 10
106.578729
 20
1680.774788
 42
0.004603
  0
VERTEX
  8
0
 10
107.174041
 20
1678.448021
 42
0.010478
  0
VERTEX
  8
0
 10
107.982216
 20
1675.644278
 42
0.006092
  0
VERTEX
  8
0
 10
109.063409
 20
1672.312412
 42
-0.001020
  0
VERTEX
  8
0
 10
110.189113
 20
1668.959600
 42
-0.001622
  0
VERTEX
  8
0
 10
111.137376
 20
1666.085032
 42
-0.000330
  0
VERTEX
  8
0
 10
111.962097
 20
1663.551783
 42
-0.078681
  0
VERTEX
  8
0
 10
112.000000
 20
1663.312412
 42
-0.395571
  0
VERTEX
  8
0
 10
111.881521
 20
1663.186088
 42
-0.002741
  0
VERTEX
  8
0
 10
110.273468
 20
1663.091771
 42
-0.008294
  0
VERTEX
  8
0
 10
108.376139
 20
1663.022457
 42
-0.004982
  0
VERTEX
  8
0
 10
106.122445
 20
1663.000000
 42
0.016391
  0
VERTEX
  8
0
 10
103.471121
 20
1662.913061
 42
0.033955
  0
VERTEX
  8
0
 10
101.419060
 20
1662.637592
 42
0.044218
  0
VERTEX
  8
0
 10
99.921111
 20
1662.191068
 42
0.125653
  0
VERTEX
  8
0
 10
99.046333
 20
1661.555828
 42
-0.099070
  0
VERTEX
  8
0
 10
98.333987
 20
1660.979103
 42
-0.034580
  0
VERTEX
  8
0
 10
97.120648
 20
1660.446044
 42
-0.032731
  0
VERTEX
  8
0
 10
95.668227
 20
1660.029375
 42
-0.032733
  0
VERTEX
  8
0
 10
94.173888
 20
1659.805828
 42
0.000000
  0
VERTEX
  8
0
 10
90.500000
 20
1659.500000
 42
0.000000
  0
VERTEX
  8
0
 10
90.207936
 20
1651.750000
 42
0.000000
  0
VERTEX
  8
0
 10
89.915871
 20
1644.000000
 42
0.000000
  0
VERTEX
  8
0
 10
83.957936
 20
1644.000000
 42
0.000000
  0
VERTEX
  8
0
 10
78.000000
 20
1644.000000
 42
0.000000
  0
VERTEX
  8
0
 10
78.000000
 20
1639.500000
 42
0.000000
  0
VERTEX
  8
0
 10
78.000000
 20
1635.000000
 42
0.000000
  0
VERTEX
  8
0
 10
71.860709
 20
1635.000000
 42
0.000000
  0
VERTEX
  8
0
 10
65.721418
 20
1635.000000
 42
0.000000
  0
VERTEX
  8
0
 10
66.314707
 20
1630.250000
 42
0.001447
  0
VERTEX
  8
0
 10
66.591142
 20
1628.087690
 42
0.000847
  0
VERTEX
  8
0
 10
66.934033
 20
1625.500000
 42
0.000847
  0
VERTEX
  8
0
 10
67.285843
 20
1622.912377
 42
0.001441
  0
VERTEX
  8
0
 10
67.589922
 20
1620.750000
 42
0.000000
  0
VERTEX
  8
0
 10
68.271848
 20
1616.000000
 42
0.000000
  0
VERTEX
  8
0
 10
65.287758
 20
1616.000000
 42
0.107843
  0
VERTEX
  8
0
 10
63.433815
 20
1615.595425
 42
0.133102
  0
VERTEX
  8
0
 10
62.079311
 20
1614.467538
 42
0.048439
  0
VERTEX
  8
0
 10
60.654652
 20
1611.950131
 42
0.004292
  0
VERTEX
  8
0
 10
57.745743
 20
1605.250000
 42
-0.004642
  0
VERTEX
  8
0
 10
54.876567
 20
1598.654031
 42
-0.046410
  0
VERTEX
  8
0
 10
53.403009
 20
1596.034057
 42
-0.117533
  0
VERTEX
  8
0
 10
52.001212
 20
1594.775236
 42
-0.099522
  0
VERTEX
  8
0
 10
50.093908
 20
1594.186642
 42
0.031640
  0
VERTEX
  8
0
 10
48.356477
 20
1593.898767
 42
0.157947
  0
VERTEX
  8
0
 10
47.520462
 20
1593.396768
 42
0.154156
  0
VERTEX
  8
0
 10
47.126593
 20
1592.492591
 42
0.029719
  0
VERTEX
  8
0
 10
47.044368
 20
1590.686642
 42
-0.042947
  0
VERTEX
  8
0
 10
46.900631
 20
1588.691470
 42
-0.004293
  0
VERTEX
  8
0
 10
46.107982
 20
1583.970395
 42
-0.005373
  0
VERTEX
  8
0
 10
45.052691
 20
1578.352320
 42
-0.004246
  0
VERTEX
  8
0
 10
43.794368
 20
1572.297683
 42
0.000000
  0
VERTEX
  8
0
 10
40.500000
 20
1557.095367
 42
0.000000
  0
VERTEX
  8
0
 10
37.500000
 20
1556.797683
 42
0.038607
  0
VERTEX
  8
0
 10
35.880509
 20
1556.509541
 42
0.139401
  0
VERTEX
  8
0
 10
34.985417
 20
1555.984764
 42
0.133358
  0
VERTEX
  8
0
 10
34.478208
 20
1555.052682
 42
0.034124
  0
VERTEX
  8
0
 10
34.193596
 20
1553.343251
 42
-0.060264
  0
VERTEX
  8
0
 10
33.793830
 20
1551.531249
 42
-0.125512
  0
VERTEX
  8
0
 10
32.997948
 20
1550.335463
 42
-0.076472
  0
VERTEX
  8
0
 10
31.454082
 20
1549.321353
 42
-0.012885
  0
VERTEX
  8
0
 10
28.193596
 20
1547.932185
 42
0.002960
  0
VERTEX
  8
0
 10
21.026372
 20
1545.045208
 42
0.159841
  0
VERTEX
  8
0
 10
19.924428
 20
1544.105996
 42
0.489245
  0
VERTEX
  8
0
 10
20.229990
 20
1543.299239
 42
0.012043
  0
VERTEX
  8
0
 10
24.612523
 20
1542.064410
 42
0.000000
  0
VERTEX
  8
0
 10
30.725047
 20
1540.500000
 42
0.000000
  0
VERTEX
  8
0
 10
25.962969
 20
1532.216259
 42
0.046389
  0
VERTEX
  8
0
 10
20.595347
 20
1520.482237
 42
0.036297
  0
VERTEX
  8
0
 10
16.942357
 20
1506.954709
 42
0.036005
  0
VERTEX
  8
0
 10
15.259683
 20
1492.906382
 42
0.043244
  0
VERTEX
  8
0
 10
15.781158
 20
1479.611315
 42
0.018379
  0
VERTEX
  8
0
 10
17.251536
 20
1470.636473
 42
0.030237
  0
VERTEX
  8
0
 10
19.225464
 20
1463.204339
 42
0.036304
  0
VERTEX
  8
0
 10
21.670543
 20
1457.300294
 42
0.067478
  0
VERTEX
  8
0
 10
24.591453
 20
1453.030453
 42
-0.040307
  0
VERTEX
  8
0
 10
26.288241
 20
1450.817525
 42
-0.025064
  0
VERTEX
  8
0
 10
27.924384
 20
1447.982697
 42
-0.021870
  0
VERTEX
  8
0
 10
29.492582
 20
1444.559729
 42
-0.014977
  0
VERTEX
  8
0
 10
30.982190
 20
1440.552688
 42
0.018499
  0
VERTEX
  8
0
 10
32.423374
 20
1436.757935
 42
0.012036
  0
VERTEX
  8
0
 10
34.352782
 20
1432.483709
 42
0.012107
  0
VERTEX
  8
0
 10
36.439857
 20
1428.398385
 42
0.022471
  0
VERTEX
  8
0
 10
38.357964
 20
1425.209034
 42
-0.017389
  0
VERTEX
  8
0
 10
40.217631
 20
1422.186807
 42
-0.011975
  0
VERTEX
  8
0
 10
42.120446
 20
1418.644108
 42
-0.012087
  0
VERTEX
  8
0
 10
43.788979
 20
1415.143362
 42
-0.024006
  0
VERTEX
  8
0
 10
44.907525
 20
1412.281545
 42
-0.037917
  0
VERTEX
  8
0
 10
46.364219
 20
1406.547842
 42
-0.035585
  0
VERTEX
  8
0
 10
46.978676
 20
1400.536164
 42
-0.034691
  0
VERTEX
  8
0
 10
46.779407
 20
1395.381227
 42
-0.194934
  0
VERTEX
  8
0
 10
45.500000
 20
1393.000000
 42
0.055700
  0
VERTEX
  8
0
 10
44.309887
 20
1391.764746
 42
0.267197
  0
VERTEX
  8
0
 10
44.184890
 20
1390.832659
 42
0.174704
  0
VERTEX
  8
0
 10
44.961970
 20
1389.972679
 42
0.024350
  0
VERTEX
  8
0
 10
47.167422
 20
1388.930651
 42
0.019994
  0
VERTEX
  8
0
 10
49.089798
 20
1388.223007
 42
0.134599
  0
VERTEX
  8
0
 10
50.095334
 20
1388.177582
 42
0.160304
  0
VERTEX
  8
0
 10
50.894742
 20
1388.657150
 42
0.031752
  0
VERTEX
  8
0
 10
51.917422
 20
1390.005047
 42
-0.011285
  0
VERTEX
  8
0
 10
54.909818
 20
1394.303457
 42
-0.235368
  0
VERTEX
  8
0
 10
56.261965
 20
1395.003552
 42
-0.228155
  0
VERTEX
  8
0
 10
57.659785
 20
1394.357072
 42
-0.010608
  0
VERTEX
  8
0
 10
60.981481
 20
1390.144982
 42
0.015935
  0
VERTEX
  8
0
 10
63.472576
 20
1387.054413
 42
0.044207
  0
VERTEX
  8
0
 10
65.470315
 20
1385.108858
 42
0.055721
  0
VERTEX
  8
0
 10
67.491717
 20
1383.806115
 42
0.040338
  0
VERTEX
  8
0
 10
69.981481
 20
1382.810163
 42
-0.018965
  0
VERTEX
  8
0
 10
72.519305
 20
1381.918675
 42
-0.095160
  0
VERTEX
  8
0
 10
73.784780
 20
1381.115578
 42
-0.130875
  0
VERTEX
  8
0
 10
74.457599
 20
1380.031095
 42
-0.049333
  0
VERTEX
  8
0
 10
74.808961
 20
1378.265443
 42
0.034586
  0
VERTEX
  8
0
 10
75.098093
 20
1376.550152
 42
0.136306
  0
VERTEX
  8
0
 10
75.613455
 20
1375.622455
 42
0.138250
  0
VERTEX
  8
0
 10
76.528939
 20
1375.100691
 42
0.035971
  0
VERTEX
  8
0
 10
78.214808
 20
1374.808961
 42
-0.164536
  0
VERTEX
  8
0
 10
80.668614
 20
1373.696679
 42
-0.107086
  0
VERTEX
  8
0
 10
82.456465
 20
1371.115096
 42
-0.048426
  0
VERTEX
  8
0
 10
83.948555
 20
1366.214717
 42
-0.008554
  0
VERTEX
  8
0
 10
85.687104
 20
1356.751056
 42
0.005821
  0
VERTEX
  8
0
 10
86.638671
 20
1351.407057
 42
0.038438
  0
VERTEX
  8
0
 10
87.348239
 20
1348.789268
 42
0.094664
  0
VERTEX
  8
0
 10
88.123419
 20
1347.467163
 42
0.216210
  0
VERTEX
  8
0
 10
89.153265
 20
1347.000000
 42
0.176853
  0
VERTEX
  8
0
 10
90.121938
 20
1347.353688
 42
0.158609
  0
VERTEX
  8
0
 10
90.688442
 20
1348.265305
 42
0.054085
  0
VERTEX
  8
0
 10
90.945355
 20
1350.180279
 42
0.006325
  0
VERTEX
  8
0
 10
91.000000
 20
1354.500000
 42
-0.013253
  0
VERTEX
  8
0
 10
91.148000
 20
1360.082774
 42
-0.251749
  0
VERTEX
  8
0
 10
92.025147
 20
1361.525531
 42
-0.171552
  0
VERTEX
  8
0
 10
93.905490
 20
1361.890075
 42
-0.005762
  0
VERTEX
  8
0
 10
101.493945
 20
1360.666807
 42
-0.008156
  0
VERTEX
  8
0
 10
105.783095
 20
1359.852312
 42
-0.075385
  0
VERTEX
  8
0
 10
107.550868
 20
1359.198079
 42
-0.153611
  0
VERTEX
  8
0
 10
108.486610
 20
1358.215554
 42
-0.065741
  0
VERTEX
  8
0
 10
109.071759
 20
1356.478260
 42
0.000000
  0
VERTEX
  8
0
 10
109.655628
 20
1353.500000
 42
0.000000
  0
VERTEX
  8
0
 10
110.988329
 20
1356.250000
 42
-0.032139
  0
VERTEX
  8
0
 10
112.104300
 20
1358.219481
 42
-0.226856
  0
VERTEX
  8
0
 10
113.019981
 20
1358.774430
 42
-0.097204
  0
VERTEX
  8
0
 10
114.435360
 20
1358.639413
 42
-0.003738
  0
VERTEX
  8
0
 10
119.500000
 20
1357.092801
 42
0.002402
  0
VERTEX
  8
0
 10
122.108073
 20
1356.288740
 42
0.001803
  0
VERTEX
  8
0
 10
124.985938
 20
1355.427942
 42
0.001823
  0
VERTEX
  8
0
 10
127.699852
 20
1354.637579
 42
0.004186
  0
VERTEX
  8
0
 10
129.750000
 20
1354.067158
 42
-0.018921
  0
VERTEX
  8
0
 10
132.207290
 20
1353.304779
 42
-0.113367
  0
VERTEX
  8
0
 10
133.331672
 20
1352.592869
 42
-0.149954
  0
VERTEX
  8
0
 10
133.873829
 20
1351.558796
 42
-0.041346
  0
VERTEX
  8
0
 10
134.063954
 20
1349.711456
 42
0.000000
  0
VERTEX
  8
0
 10
134.127909
 20
1346.500000
 42
0.000000
  0
VERTEX
  8
0
 10
135.745381
 20
1349.750000
 42
-0.017099
  0
VERTEX
  8
0
 10
137.050024
 20
1352.161072
 42
-0.206607
  0
VERTEX
  8
0
 10
137.881005
 20
1352.770948
 42
-0.182416
  0
VERTEX
  8
0
 10
138.950161
 20
1352.625498
 42
-0.012877
  0
VERTEX
  8
0
 10
141.609766
 20
1351.096242
 42
-0.073154
  0
VERTEX
  8
0
 10
143.373599
 20
1349.629692
 42
-0.051363
  0
VERTEX
  8
0
 10
144.894068
 20
1347.537673
 42
-0.031344
  0
VERTEX
  8
0
 10
146.512747
 20
1344.296533
 42
-0.007986
  0
VERTEX
  8
0
 10
148.716915
 20
1338.849980
 42
0.004170
  0
VERTEX
  8
0
 10
151.409952
 20
1332.046559
 42
0.059218
  0
VERTEX
  8
0
 10
152.669814
 20
1329.759714
 42
0.150610
  0
VERTEX
  8
0
 10
154.068227
 20
1328.696679
 42
0.066602
  0
VERTEX
  8
0
 10
156.357149
 20
1328.189635
 42
0.000000
  0
VERTEX
  8
0
 10
160.000000
 20
1327.879269
 42
0.000000
  0
VERTEX
  8
0
 10
160.000000
 20
1332.439635
 42
0.000000
  0
VERTEX
  8
0
 10
160.000000
 20
1337.000000
 42
0.000000
  0
VERTEX
  8
0
 10
164.500000
 20
1337.000000
 42
-0.013657
  0
VERTEX
  8
0
 10
167.073111
 20
1336.929706
 42
-0.100929
  0
VERTEX
  8
0
 10
168.254369
 20
1336.620773
 42
-0.194622
  0
VERTEX
  8
0
 10
168.843938
 20
1335.961157
 42
-0.077943
  0
VERTEX
  8
0
 10
169.076078
 20
1334.750000
 42
0.031525
  0
VERTEX
  8
0
 10
169.171960
 20
1333.762873
 42
0.594957
  0
VERTEX
  8
0
 10
169.404478
 20
1333.681267
 42
0.113902
  0
VERTEX
  8
0
 10
169.753913
 20
1334.183266
 42
0.006139
  0
VERTEX
  8
0
 10
170.456451
 20
1336.000000
 42
-0.033253
  0
VERTEX
  8
0
 10
171.052534
 20
1337.323419
 42
-0.048754
  0
VERTEX
  8
0
 10
171.759321
 20
1338.385656
 42
-0.060458
  0
VERTEX
  8
0
 10
172.468134
 20
1339.066793
 42
-0.223320
  0
VERTEX
  8
0
 10
173.060169
 20
1339.190068
 42
-0.087866
  0
VERTEX
  8
0
 10
175.178195
 20
1338.270961
 42
-0.019320
  0
VERTEX
  8
0
 10
178.410590
 20
1335.946991
 42
-0.016830
  0
VERTEX
  8
0
 10
182.425784
 20
1332.594916
 42
-0.008563
  0
VERTEX
  8
0
 10
187.253870
 20
1328.129310
 42
0.000000
  0
VERTEX
  8
0
 10
194.007739
 20
1321.664405
 42
0.000000
  0
VERTEX
  8
0
 10
192.091351
 20
1327.234483
 42
0.005735
  0
VERTEX
  8
0
 10
191.275285
 20
1329.520828
 42
0.005760
  0
VERTEX
  8
0
 10
190.408119
 20
1331.784555
 42
0.005640
  0
VERTEX
  8
0
 10
189.607110
 20
1333.740864
 42
0.022877
  0
VERTEX
  8
0
 10
189.052298
 20
1334.902280
 42
-0.028699
  0
VERTEX
  8
0
 10
188.483516
 20
1336.129456
 42
-0.281572
  0
VERTEX
  8
0
 10
188.577210
 20
1336.667844
 42
-0.199791
  0
VERTEX
  8
0
 10
189.147163
 20
1336.946810
 42
-0.015198
  0
VERTEX
  8
0
 10
190.896722
 20
1337.000000
 42
-0.057297
  0
VERTEX
  8
0
 10
192.398200
 20
1336.827373
 42
-0.075771
  0
VERTEX
  8
0
 10
193.674709
 20
1336.317237
 42
-0.068186
  0
VERTEX
  8
0
 10
194.836742
 20
1335.401132
 42
-0.037080
  0
VERTEX
  8
0
 10
196.000000
 20
1334.000000
 42
0.038953
  0
VERTEX
  8
0
 10
197.049870
 20
1332.745021
 42
0.051826
  0
VERTEX
  8
0
 10
198.193558
 20
1331.795834
 42
0.059188
  0
VERTEX
  8
0
 10
199.362510
 20
1331.200674
 42
0.088403
  0
VERTEX
  8
0
 10
200.488639
 20
1331.000000
 42
-0.131952
  0
VERTEX
  8
0
 10
202.035581
 20
1330.584523
 42
-0.173793
  0
VERTEX
  8
0
 10
202.971674
 20
1329.477369
 42
-0.045568
  0
VERTEX
  8
0
 10
203.672726
 20
1326.910873
 42
-0.002515
  0
VERTEX
  8
0
 10
205.087129
 20
1318.698183
 42
0.009441
  0
VERTEX
  8
0
 10
205.741670
 20
1315.188969
 42
0.050240
  0
VERTEX
  8
0
 10
206.324469
 20
1313.329207
 42
0.119973
  0
VERTEX
  8
0
 10
206.997786
 20
1312.430288
 42
0.223103
  0
VERTEX
  8
0
 10
207.861679
 20
1312.209610
 42
0.218529
  0
VERTEX
  8
0
 10
208.711580
 20
1312.815352
 42
0.080759
  0
VERTEX
  8
0
 10
209.242385
 20
1314.225036
 42
0.035866
  0
VERTEX
  8
0
 10
209.572691
 20
1316.806675
 42
0.006110
  0
VERTEX
  8
0
 10
209.787526
 20
1321.761427
 42
0.000000
  0
VERTEX
  8
0
 10
210.075052
 20
1331.000000
 42
0.000000
  0
VERTEX
  8
0
 10
214.173450
 20
1331.000000
 42
0.000000
  0
VERTEX
  8
0
 10
218.271848
 20
1331.000000
 42
0.000000
  0
VERTEX
  8
0
 10
217.635924
 20
1326.500000
 42
0.000599
  0
VERTEX
  8
0
 10
217.346534
 20
1324.434322
 42
0.000337
  0
VERTEX
  8
0
 10
216.999998
 20
1321.926563
 42
0.000337
  0
VERTEX
  8
0
 10
216.653656
 20
1319.395037
 42
0.000551
  0
VERTEX
  8
0
 10
216.364071
 20
1317.250000
 42
0.000000
  0
VERTEX
  8
0
 10
215.728141
 20
1312.500000
 42
0.000000
  0
VERTEX
  8
0
 10
218.864071
 20
1315.437091
 42
0.029892
  0
VERTEX
  8
0
 10
220.064217
 20
1316.703955
 42
0.031752
  0
VERTEX
  8
0
 10
221.078821
 20
1318.080673
 42
0.033511
  0
VERTEX
  8
0
 10
221.790190
 20
1319.368612
 42
0.109848
  0
VERTEX
  8
0
 10
222.000000
 20
1320.312091
 42
-0.072341
  0
VERTEX
  8
0
 10
222.143939
 20
1321.301744
 42
-0.229089
  0
VERTEX
  8
0
 10
222.582937
 20
1321.783234
 42
-0.127241
  0
VERTEX
  8
0
 10
223.446143
 20
1321.894332
 42
-0.018070
  0
VERTEX
  8
0
 10
225.226006
 20
1321.604799
 42
-0.041926
  0
VERTEX
  8
0
 10
229.229851
 20
1320.448279
 42
-0.038293
  0
VERTEX
  8
0
 10
233.113911
 20
1318.612380
 42
-0.040168
  0
VERTEX
  8
0
 10
236.260057
 20
1316.467404
 42
-0.116671
  0
VERTEX
  8
0
 10
237.863082
 20
1314.401157
 42
-0.057442
  0
VERTEX
  8
0
 10
238.355351
 20
1312.878907
 42
-0.010563
  0
VERTEX
  8
0
 10
238.875769
 20
1309.967519
 42
-0.011222
  0
VERTEX
  8
0
 10
239.338419
 20
1306.517772
 42
-0.010003
  0
VERTEX
  8
0
 10
239.666616
 20
1302.915914
 42
0.000000
  0
VERTEX
  8
0
 10
240.299485
 20
1294.000000
 42
0.000000
  0
VERTEX
  8
0
 10
243.649743
 20
1294.000000
 42
0.000000
  0
VERTEX
  8
0
 10
247.000000
 20
1294.000000
 42
0.000000
  0
VERTEX
  8
0
 10
247.000000
 20
1300.067388
 42
-0.006155
  0
VERTEX
  8
0
 10
247.046179
 20
1303.818739
 42
-0.086057
  0
VERTEX
  8
0
 10
247.308624
 20
1305.138419
 42
-0.286670
  0
VERTEX
  8
0
 10
247.925499
 20
1305.601973
 42
-0.098667
  0
VERTEX
  8
0
 10
249.084297
 20
1305.473245
 42
-0.002825
  0
VERTEX
  8
0
 10
250.281308
 20
1305.085871
 42
-0.000503
  0
VERTEX
  8
0
 10
252.514382
 20
1304.346753
 42
-0.000544
  0
VERTEX
  8
0
 10
255.129477
 20
1303.475109
 42
-0.000491
  0
VERTEX
  8
0
 10
257.834297
 20
1302.567335
 42
0.000000
  0
VERTEX
  8
0
 10
264.500000
 20
1300.322954
 42
0.000000
  0
VERTEX
  8
0
 10
265.036023
 20
1292.875293
 42
0.013493
  0
VERTEX
  8
0
 10
265.437847
 20
1288.822794
 42
0.041851
  0
VERTEX
  8
0
 10
266.008696
 20
1286.137531
 42
0.053810
  0
VERTEX
  8
0
 10
266.926395
 20
1283.970811
 42
0.035878
  0
VERTEX
  8
0
 10
268.404712
 20
1281.713816
 42
0.011156
  0
VERTEX
  8
0
 10
269.541075
 20
1280.290951
 42
0.016159
  0
VERTEX
  8
0
 10
270.611839
 20
1279.090934
 42
0.011760
  0
VERTEX
  8
0
 10
271.540341
 20
1278.160523
 42
0.193073
  0
VERTEX
  8
0
 10
271.940550
 20
1278.000000
 42
0.067899
  0
VERTEX
  8
0
 10
272.404991
 20
1278.063362
 42
0.003984
  0
VERTEX
  8
0
 10
273.778707
 20
1278.457109
 42
0.005966
  0
VERTEX
  8
0
 10
275.410066
 20
1278.960041
 42
0.004355
  0
VERTEX
  8
0
 10
277.210671
 20
1279.556116
 42
-0.031619
  0
VERTEX
  8
0
 10
279.366634
 20
1280.141624
 42
-0.018954
  0
VERTEX
  8
0
 10
281.985778
 20
1280.575217
 42
-0.018800
  0
VERTEX
  8
0
 10
284.678377
 20
1280.814298
 42
-0.027201
  0
VERTEX
  8
0
 10
287.066410
 20
1280.806116
 42
0.000000
  0
VERTEX
  8
0
 10
292.355201
 20
1280.500000
 42
0.000000
  0
VERTEX
  8
0
 10
288.179465
 20
1277.615291
 42
0.037832
  0
VERTEX
  8
0
 10
285.996793
 20
1275.849632
 42
0.008174
  0
VERTEX
  8
0
 10
282.515830
 20
1272.459723
 42
0.008484
  0
VERTEX
  8
0
 10
278.607002
 20
1268.390802
 42
0.008018
  0
VERTEX
  8
0
 10
274.762806
 20
1264.115291
 42
-0.002485
  0
VERTEX
  8
0
 10
270.431853
 20
1259.189851
 42
-0.001297
  0
VERTEX
  8
0
 10
264.988779
 20
1253.093242
 42
-0.001290
  0
VERTEX
  8
0
 10
259.371830
 20
1246.867009
 42
-0.001972
  0
VERTEX
  8
0
 10
254.466138
 20
1241.500000
 42
0.005526
  0
VERTEX
  8
0
 10
233.207593
 20
1217.907825
 42
0.020773
  0
VERTEX
  8
0
 10
220.672031
 20
1202.432219
 42
0.028264
  0
VERTEX
  8
0
 10
211.515809
 20
1188.540852
 42
0.018174
  0
VERTEX
  8
0
 10
202.433704
 20
1171.509946
 42
0.007231
  0
VERTEX
  8
0
 10
199.056139
 20
1164.318835
 42
0.003404
  0
VERTEX
  8
0
 10
194.890868
 20
1154.937113
 42
0.003372
  0
VERTEX
  8
0
 10
190.660607
 20
1145.049843
 42
0.004743
  0
VERTEX
  8
0
 10
187.030553
 20
1136.169588
 42
-0.004242
  0
VERTEX
  8
0
 10
180.683971
 20
1120.599324
 42
-0.013930
  0
VERTEX
  8
0
 10
176.122079
 20
1110.476325
 42
-0.018218
  0
VERTEX
  8
0
 10
171.706575
 20
1102.151688
 42
-0.012484
  0
VERTEX
  8
0
 10
166.124039
 20
1093.027526
 42
0.021610
  0
VERTEX
  8
0
 10
162.611540
 20
1087.044099
 42
0.014214
  0
VERTEX
  8
0
 10
159.071814
 20
1079.885115
 42
0.009960
  0
VERTEX
  8
0
 10
154.881004
 20
1070.265211
 42
0.003374
  0
VERTEX
  8
0
 10
149.157897
 20
1056.108506
 42
0.002011
  0
VERTEX
  8
0
 10
144.772432
 20
1044.915188
 42
0.002259
  0
VERTEX
  8
0
 10
140.646311
 20
1034.113124
 42
0.002070
  0
VERTEX
  8
0
 10
137.214253
 20
1024.889268
 42
0.012175
  0
VERTEX
  8
0
 10
135.551985
 20
1020.000000
 42
-0.004258
  0
VERTEX
  8
0
 10
134.459211
 20
1016.610648
 42
-0.005183
  0
VERTEX
  8
0
 10
133.376129
 20
1013.456558
 42
-0.004393
  0
VERTEX
  8
0
 10
132.415313
 20
1010.823789
 42
-0.035862
  0
VERTEX
  8
0
 10
131.881291
 20
1009.660624
 42
0.073208
  0
VERTEX
  8
0
 10
130.793270
 20
1006.734089
 42
0.004624
  0
VERTEX
  8
0
 10
128.959740
 20
997.714032
 42
0.007134
  0
VERTEX
  8
0
 10
127.117749
 20
987.417622
 42
0.006985
  0
VERTEX
  8
0
 10
125.556217
 20
977.000000
 42
-0.001955
  0
VERTEX
  8
0
 10
121.502109
 20
947.963979
 42
-0.002999
  0
VERTEX
  8
0
 10
117.741132
 20
922.847303
 42
-0.003468
  0
VERTEX
  8
0
 10
114.239011
 20
901.360842
 42
-0.005946
  0
VERTEX
  8
0
 10
110.981524
 20
883.500000
 42
0.005324
  0
VERTEX
  8
0
 10
106.524757
 20
859.234529
 42
0.009040
  0
VERTEX
  8
0
 10
103.380544
 20
838.833394
 42
0.008646
  0
VERTEX
  8
0
 10
100.886692
 20
817.715066
 42
0.004392
  0
VERTEX
  8
0
 10
98.443120
 20
791.075072
 42
-0.003946
  0
VERTEX
  8
0
 10
97.720536
 20
783.119388
 42
-0.004101
  0
VERTEX
  8
0
 10
96.880896
 20
775.277915
 42
-0.003952
  0
VERTEX
  8
0
 10
96.045458
 20
768.507600
 42
-0.017791
  0
VERTEX
  8
0
 10
95.385550
 20
764.575072
 42
0.029046
  0
VERTEX
  8
0
 10
94.722763
 20
759.996531
 42
0.005070
  0
VERTEX
  8
0
 10
94.064247
 20
751.296146
 42
0.005042
  0
VERTEX
  8
0
 10
93.457976
 20
740.347714
 42
0.003140
  0
VERTEX
  8
0
 10
92.957252
 20
727.500000
 42
-0.001357
  0
VERTEX
  8
0
 10
92.541795
 20
715.764991
 42
-0.001929
  0
VERTEX
  8
0
 10
92.103946
 20
705.336418
 42
-0.001074
  0
VERTEX
  8
0
 10
91.681096
 20
696.527897
 42
-0.028290
  0
VERTEX
  8
0
 10
91.429361
 20
694.177168
 42
-0.107548
  0
VERTEX
  8
0
 10
90.564927
 20
691.997221
 42
-0.066485
  0
VERTEX
  8
0
 10
88.730461
 20
689.924792
 42
-0.029136
  0
VERTEX
  8
0
 10
85.152644
 20
687.175438
 42
-0.003837
  0
VERTEX
  8
0
 10
77.191024
 20
681.853068
 42
-0.008494
  0
VERTEX
  8
0
 10
71.109816
 20
678.001266
 42
-0.005969
  0
VERTEX
  8
0
 10
64.143613
 20
673.866252
 42
-0.006025
  0
VERTEX
  8
0
 10
57.379128
 20
670.067376
 42
-0.012542
  0
VERTEX
  8
0
 10
52.000000
 20
667.303988
 42
0.000015
  0
VERTEX
  8
0
 10
46.709777
 20
664.751694
 42
0.000008
  0
VERTEX
  8
0
 10
40.263518
 20
661.641298
 42
0.000008
  0
VERTEX
  8
0
 10
33.740830
 20
658.493760
 42
0.000013
  0
VERTEX
  8
0
 10
28.194953
 20
655.817289
 42
0.009217
  0
VERTEX
  8
0
 10
21.742005
 20
652.554856
 42
0.021672
  0
VERTEX
  8
0
 10
17.084900
 20
649.827018
 42
0.026114
  0
VERTEX
  8
0
 10
13.236733
 20
647.048174
 42
0.021135
  0
VERTEX
  8
0
 10
9.406172
 20
643.689201
 42
0.000000
  0
VERTEX
  8
0
 10
2.922437
 20
637.500000
 42
0.000000
  0
VERTEX
  8
0
 10
1.995895
 20
629.170096
 42
0.027601
  0
VERTEX
  8
0
 10
1.572613
 20
621.563110
 42
0.028206
  0
VERTEX
  8
0
 10
1.995960
 20
614.011203
 42
0.028840
  0
VERTEX
  8
0
 10
3.247488
 20
606.722993
 42
0.032287
  0
VERTEX
  8
0
 10
5.299217
 20
599.904228
 42
0.017541
  0
VERTEX
  8
0
 10
6.785955
 20
596.306871
 42
0.056873
  0
VERTEX
  8
0
 10
8.113189
 20
594.095769
 42
0.063824
  0
VERTEX
  8
0
 10
9.818268
 20
592.378066
 42
0.026336
  0
VERTEX
  8
0
 10
12.511388
 20
590.500000
 42
0.027039
  0
VERTEX
  8
0
 10
15.512800
 20
588.851641
 42
0.053620
  0
VERTEX
  8
0
 10
18.068614
 20
587.944614
 42
0.039854
  0
VERTEX
  8
0
 10
21.214204
 20
587.455617
 42
0.009349
  0
VERTEX
  8
0
 10
26.539533
 20
587.157851
 42
0.008944
  0
VERTEX
  8
0
 10
31.268634
 20
587.066702
 42
0.026887
  0
VERTEX
  8
0
 10
34.491816
 20
587.235679
 42
0.038946
  0
VERTEX
  8
0
 10
36.909301
 20
587.685564
 42
0.053904
  0
VERTEX
  8
0
 10
38.964393
 20
588.481587
 42
-0.018487
  0
VERTEX
  8
0
 10
40.237231
 20
589.081250
 42
-0.027428
  0
VERTEX
  8
0
 10
41.395596
 20
589.502078
 42
-0.026037
  0
VERTEX
  8
0
 10
42.335132
 20
589.733556
 42
-0.248669
  0
VERTEX
  8
0
 10
42.717064
 20
589.616269
 42
-0.317271
  0
VERTEX
  8
0
 10
42.796761
 20
589.154611
 42
-0.002360
  0
VERTEX
  8
0
 10
41.031347
 20
585.483300
 42
-0.007543
  0
VERTEX
  8
0
 10
38.884028
 20
581.235314
 42
-0.004629
  0
VERTEX
  8
0
 10
36.232506
 20
576.292533
 42
0.010621
  0
VERTEX
  8
0
 10
25.477752
 20
555.654412
 42
0.025149
  0
VERTEX
  8
0
 10
18.589556
 20
539.756724
 42
0.032591
  0
VERTEX
  8
0
 10
14.470527
 20
526.123915
 42
0.038414
  0
VERTEX
  8
0
 10
12.436749
 20
512.799983
 42
0.025097
  0
VERTEX
  8
0
 10
12.266519
 20
505.852862
 42
0.157750
  0
VERTEX
  8
0
 10
13.429569
 20
502.550324
 42
0.173276
  0
VERTEX
  8
0
 10
16.244443
 20
500.721656
 42
0.031717
  0
VERTEX
  8
0
 10
22.459347
 20
499.657585
 42
0.012888
  0
VERTEX
  8
0
 10
25.869877
 20
499.382845
 42
0.010082
  0
VERTEX
  8
0
 10
29.581913
 20
499.254930
 42
0.010219
  0
VERTEX
  8
0
 10
33.043638
 20
499.276231
 42
0.024432
  0
VERTEX
  8
0
 10
35.604688
 20
499.469813
 42
0.021887
  0
VERTEX
  8
0
 10
38.742319
 20
500.002157
 42
0.090185
  0
VERTEX
  8
0
 10
40.515479
 20
500.734577
 42
0.086201
  0
VERTEX
  8
0
 10
41.957583
 20
502.060827
 42
0.019007
  0
VERTEX
  8
0
 10
43.910376
 20
504.812228
 42
-0.008304
  0
VERTEX
  8
0
 10
45.451177
 20
507.084667
 42
-0.065130
  0
VERTEX
  8
0
 10
46.312348
 20
508.023048
 42
-0.404074
  0
VERTEX
  8
0
 10
46.757298
 20
507.991928
 42
-0.183870
  0
VERTEX
  8
0
 10
46.988237
 20
507.395217
 42
0.018924
  0
VERTEX
  8
0
 10
47.349015
 20
499.093923
 42
0.011039
  0
VERTEX
  8
0
 10
48.377075
 20
489.182489
 42
0.008159
  0
VERTEX
  8
0
 10
49.699858
 20
479.913316
 42
0.078624
  0
VERTEX
  8
0
 10
50.929338
 20
476.140092
 42
0.040124
  0
VERTEX
  8
0
 10
53.508509
 20
471.953339
 42
0.118806
  0
VERTEX
  8
0
 10
56.068288
 20
469.788657
 42
0.096582
  0
VERTEX
  8
0
 10
59.650662
 20
468.786037
 42
0.021366
  0
VERTEX
  8
0
 10
66.050376
 20
468.545279
 42
0.008566
  0
VERTEX
  8
0
 10
70.568076
 20
468.645833
 42
0.030605
  0
VERTEX
  8
0
 10
73.442454
 20
468.935909
 42
0.049221
  0
VERTEX
  8
0
 10
75.395108
 20
469.455630
 42
0.094548
  0
VERTEX
  8
0
 10
76.773786
 20
470.295279
 42
-0.129832
  0
VERTEX
  8
0
 10
79.780395
 20
471.850419
 42
-0.116984
  0
VERTEX
  8
0
 10
83.291194
 20
471.802027
 42
-0.071646
  0
VERTEX
  8
0
 10
87.759787
 20
469.966554
 42
-0.022210
  0
VERTEX
  8
0
 10
93.864122
 20
465.991583
 42
0.008250
  0
VERTEX
  8
0
 10
97.182469
 20
463.696395
 42
0.011475
  0
VERTEX
  8
0
 10
100.232516
 20
461.760027
 42
0.008080
  0
VERTEX
  8
0
 10
102.822155
 20
460.254686
 42
0.128295
  0
VERTEX
  8
0
 10
103.798398
 20
460.000000
 42
0.102414
  0
VERTEX
  8
0
 10
106.594802
 20
460.578851
 42
0.034216
  0
VERTEX
  8
0
 10
110.325090
 20
462.504956
 42
0.034617
  0
VERTEX
  8
0
 10
113.811593
 20
464.963841
 42
0.084566
  0
VERTEX
  8
0
 10
115.873165
 20
467.320952
 42
0.027232
  0
VERTEX
  8
0
 10
116.738679
 20
468.922604
 42
0.011151
  0
VERTEX
  8
0
 10
117.743996
 20
471.181780
 42
0.010994
  0
VERTEX
  8
0
 10
118.718277
 20
473.661333
 42
0.013827
  0
VERTEX
  8
0
 10
119.505642
 20
476.000000
 42
0.000016
  0
VERTEX
  8
0
 10
120.180609
 20
478.204849
 42
0.000019
  0
VERTEX
  8
0
 10
120.816085
 20
480.281207
 42
0.000016
  0
VERTEX
  8
0
 10
121.351602
 20
482.031391
 42
0.000123
  0
VERTEX
  8
0
 10
121.602108
 20
482.850917
 42
-0.438222
  0
VERTEX
  8
0
 10
122.138265
 20
483.108826
 42
-0.051215
  0
VERTEX
  8
0
 10
123.460538
 20
482.420413
 42
-0.030814
  0
VERTEX
  8
0
 10
125.415093
 20
480.953085
 42
-0.010333
  0
VERTEX
  8
0
 10
128.085404
 20
478.581416
 42
0.012406
  0
VERTEX
  8
0
 10
130.691951
 20
476.285647
 42
0.011133
  0
VERTEX
  8
0
 10
133.503417
 20
474.035224
 42
0.011238
  0
VERTEX
  8
0
 10
136.116744
 20
472.128723
 42
0.034026
  0
VERTEX
  8
0
 10
138.004859
 20
470.997521
 42
0.059388
  0
VERTEX
  8
0
 10
148.862338
 20
466.995957
 42
0.035519
  0
VERTEX
  8
0
 10
162.452722
 20
464.754433
 42
0.035098
  0
VERTEX
  8
0
 10
175.407531
 20
464.465642
 42
0.111057
  0
VERTEX
  8
0
 10
183.722196
 20
466.758615
 42
0.055358
  0
VERTEX
  8
0
 10
190.455596
 20
471.374047
 42
0.068482
  0
VERTEX
  8
0
 10
195.479263
 20
477.072494
 42
0.065648
  0
VERTEX
  8
0
 10
198.923599
 20
484.118262
 42
0.045706
  0
VERTEX
  8
0
 10
200.963843
 20
492.745064
 42
0.038725
  0
VERTEX
  8
0
 10
201.496446
 20
501.124714
 42
0.003771
  0
VERTEX
  8
0
 10
201.059909
 20
521.444377
 42
0.005262
  0
VERTEX
  8
0
 10
200.210927
 20
542.901384
 42
0.009343
  0
VERTEX
  8
0
 10
198.995396
 20
560.552513
 42
-0.013080
  0
VERTEX
  8
0
 10
197.319919
 20
587.858690
 42
-0.004773
  0
VERTEX
  8
0
 10
196.329287
 20
626.581728
 42
-0.004156
  0
VERTEX
  8
0
 10
196.037196
 20
664.418186
 42
-0.024093
  0
VERTEX
  8
0
 10
197.010500
 20
684.360222
 42
-0.014600
  0
VERTEX
  8
0
 10
197.590678
 20
688.935157
 42
-0.007630
  0
VERTEX
  8
0
 10
198.565957
 20
694.596314
 42
-0.007581
  0
VERTEX
  8
0
 10
199.743949
 20
700.377173
 42
-0.011505
  0
VERTEX
  8
0
 10
200.959131
 20
705.360222
 42
0.004213
  0
VERTEX
  8
0
 10
202.251574
 20
710.343232
 42
0.002732
  0
VERTEX
  8
0
 10
203.666086
 20
716.126258
 42
0.002747
  0
VERTEX
  8
0
 10
204.985697
 20
721.789461
 42
0.005206
  0
VERTEX
  8
0
 10
205.975950
 20
726.367463
 42
-0.030837
  0
VERTEX
  8
0
 10
208.811627
 20
736.846876
 42
-0.067990
  0
VERTEX
  8
0
 10
212.498298
 20
744.256434
 42
-0.100814
  0
VERTEX
  8
0
 10
216.909540
 20
748.554346
 42
-0.165472
  0
VERTEX
  8
0
 10
221.918910
 20
749.798639
 42
-0.059697
  0
VERTEX
  8
0
 10
223.969916
 20
749.374848
 42
-0.091027
  0
VERTEX
  8
0
 10
225.557086
 20
748.498343
 42
-0.057447
  0
VERTEX
  8
0
 10
227.187570
 20
746.816562
 42
-0.012038
  0
VERTEX
  8
0
 10
229.611165
 20
743.500000
 42
-0.029217
  0
VERTEX
  8
0
 10
237.258803
 20
730.986465
 42
-0.023949
  0
VERTEX
  8
0
 10
243.967298
 20
716.820303
 42
-0.024390
  0
VERTEX
  8
0
 10
249.139822
 20
702.454684
 42
-0.035711
  0
VERTEX
  8
0
 10
252.142478
 20
689.362506
 42
0.000000
  0
VERTEX
  8
0
 10
253.406128
 20
681.225012
 42
0.000000
  0
VERTEX
  8
0
 10
257.817724
 20
679.854983
 42
0.000000
  0
VERTEX
  8
0
 10
262.229321
 20
678.484954
 42
0.000000
  0
VERTEX
  8
0
 10
262.515914
 20
668.492477
 42
0.015866
  0
VERTEX
  8
0
 10
262.803152
 20
663.742831
 42
0.007424
  0
VERTEX
  8
0
 10
263.461042
 20
657.616540
 42
0.007347
  0
VERTEX
  8
0
 10
264.341494
 20
651.207351
 42
0.010221
  0
VERTEX
  8
0
 10
265.330918
 20
645.500000
 42
-0.007144
  0
VERTEX
  8
0
 10
267.479562
 20
633.543482
 42
-0.006938
  0
VERTEX
  8
0
 10
269.308440
 20
621.413294
 42
-0.005797
  0
VERTEX
  8
0
 10
271.053237
 20
607.434430
 42
-0.002861
  0
VERTEX
  8
0
 10
272.962477
 20
589.635600
 42
0.002691
  0
VERTEX
  8
0
 10
273.839444
 20
581.433801
 42
0.002666
  0
VERTEX
  8
0
 10
274.807213
 20
573.216535
 42
0.002614
  0
VERTEX
  8
0
 10
275.729865
 20
566.036016
 42
0.010338
  0
VERTEX
  8
0
 10
276.411576
 20
561.635600
 42
-0.028443
  0
VERTEX
  8
0
 10
277.122128
 20
555.616400
 42
-0.005833
  0
VERTEX
  8
0
 10
277.646242
 20
544.921778
 42
-0.004604
  0
VERTEX
  8
0
 10
278.071098
 20
529.803756
 42
-0.001599
  0
VERTEX
  8
0
 10
278.413243
 20
508.000000
 42
0.002164
  0
VERTEX
  8
0
 10
279.074624
 20
468.687560
 42
0.003950
  0
VERTEX
  8
0
 10
280.006732
 20
436.611178
 42
0.004763
  0
VERTEX
  8
0
 10
281.201316
 20
410.927362
 42
0.011545
  0
VERTEX
  8
0
 10
282.701488
 20
392.000000
 42
-0.015256
  0
VERTEX
  8
0
 10
283.609335
 20
379.355222
 42
-0.005935
  0
VERTEX
  8
0
 10
284.122942
 20
361.826290
 42
-0.003234
  0
VERTEX
  8
0
 10
284.422672
 20
334.462589
 42
-0.000582
  0
VERTEX
  8
0
 10
284.591928
 20
283.500000
 42
0.000688
  0
VERTEX
  8
0
 10
284.753774
 20
237.702158
 42
0.002505
  0
VERTEX
  8
0
 10
285.042274
 20
208.620855
 42
0.003299
  0
VERTEX
  8
0
 10
285.464773
 20
188.998868
 42
0.019726
  0
VERTEX
  8
0
 10
286.155308
 20
178.795465
 42
0.000000
  0
VERTEX
  8
0
 10
287.520171
 20
166.090930
 42
0.000000
  0
VERTEX
  8
0
 10
284.532437
 20
165.795465
 42
0.058181
  0
VERTEX
  8
0
 10
282.893784
 20
165.437961
 42
0.118280
  0
VERTEX
  8
0
 10
281.787970
 20
164.734614
 42
0.084519
  0
VERTEX
  8
0
 10
280.899504
 20
163.436479
 42
0.019962
  0
VERTEX
  8
0
 10
279.893319
 20
161.000000
 42
-0.019911
  0
VERTEX
  8
0
 10
278.754729
 20
158.242103
 42
-0.121411
  0
VERTEX
  8
0
 10
277.800655
 20
157.045213
 42
-0.119068
  0
VERTEX
  8
0
 10
276.391222
 20
156.417235
 42
-0.018839
  0
VERTEX
  8
0
 10
273.370968
 20
155.977878
 42
0.053486
  0
VERTEX
  8
0
 10
267.830626
 20
154.775820
 42
0.074984
  0
VERTEX
  8
0
 10
263.324058
 20
152.485437
 42
0.073129
  0
VERTEX
  8
0
 10
259.614435
 20
148.917732
 42
0.048132
  0
VERTEX
  8
0
 10
256.449750
 20
143.900216
 42
-0.011808
  0
VERTEX
  8
0
 10
254.351356
 20
139.967385
 42
-0.068524
  0
VERTEX
  8
0
 10
252.930335
 20
138.100379
 42
-0.094732
  0
VERTEX
  8
0
 10
251.263658
 20
136.973602
 42
-0.033158
  0
VERTEX
  8
0
 10
248.524455
 20
136.006847
 42
0.029204
  0
VERTEX
  8
0
 10
245.862064
 20
135.090794
 42
0.089829
  0
VERTEX
  8
0
 10
244.262995
 20
134.068202
 42
0.077328
  0
VERTEX
  8
0
 10
242.995659
 20
132.463001
 42
0.018025
  0
VERTEX
  8
0
 10
241.412117
 20
129.405814
 42
-0.040772
  0
VERTEX
  8
0
 10
239.151302
 20
125.487953
 42
-0.044592
  0
VERTEX
  8
0
 10
236.343706
 20
122.113782
 42
-0.046284
  0
VERTEX
  8
0
 10
233.088999
 20
119.399150
 42
-0.051484
  0
VERTEX
  8
0
 10
229.500000
 20
117.439449
 42
0.025814
  0
VERTEX
  8
0
 10
224.293180
 20
114.933713
 42
0.010435
  0
VERTEX
  8
0
 10
217.454624
 20
111.009013
 42
0.010530
  0
VERTEX
  8
0
 10
210.658357
 20
106.720202
 42
0.020940
  0
VERTEX
  8
0
 10
205.500000
 20
102.991669
 42
-0.014773
  0
VERTEX
  8
0
 10
199.213411
 20
98.328546
 42
-0.022637
  0
VERTEX
  8
0
 10
193.479762
 20
94.706654
 42
-0.022351
  0
VERTEX
  8
0
 10
187.388421
 20
91.586087
 42
-0.013927
  0
VERTEX
  8
0
 10
180.000000
 20
88.454578
 42
0.009822
  0
VERTEX
  8
0
 10
172.897742
 20
85.512906
 42
0.017680
  0
VERTEX
  8
0
 10
167.215632
 20
82.784396
 42
0.019430
  0
VERTEX
  8
0
 10
162.118991
 20
79.853458
 42
0.015431
  0
VERTEX
  8
0
 10
156.848058
 20
76.312019
 42
-0.026311
  0
VERTEX
  8
0
 10
154.386949
 20
74.735035
 42
-0.008670
  0
VERTEX
  8
0
 10
150.614321
 20
72.674510
 42
-0.008608
  0
VERTEX
  8
0
 10
146.343138
 20
70.529826
 42
-0.009652
  0
VERTEX
  8
0
 10
142.159342
 20
68.616968
 42
0.011006
  0
VERTEX
  8
0
 10
137.945583
 20
66.676597
 42
0.009356
  0
VERTEX
  8
0
 10
133.584119
 20
64.448703
 42
0.009464
  0
VERTEX
  8
0
 10
129.689032
 20
62.270464
 42
0.026105
  0
VERTEX
  8
0
 10
127.061285
 20
60.544987
 42
0.000000
  0
VERTEX
  8
0
 10
122.000000
 20
56.829663
 42
0.000000
  0
VERTEX
  8
0
 10
122.000000
 20
48.502800
 42
0.024556
  0
VERTEX
  8
0
 10
122.406367
 20
40.233612
 42
0.024851
  0
VERTEX
  8
0
 10
123.621523
 20
32.077422
 42
0.026150
  0
VERTEX
  8
0
 10
125.538700
 20
24.565339
 42
0.038601
  0
VERTEX
  8
0
 10
128.057144
 20
18.247701
 42
0.018963
  0
VERTEX
  8
0
 10
130.137757
 20
14.388086
 42
0.075905
  0
VERTEX
  8
0
 10
131.828727
 20
12.313426
 42
0.062011
  0
VERTEX
  8
0
 10
134.220519
 20
10.636209
 42
0.009982
  0
VERTEX
  8
0
 10
139.313794
 20
8.063519
 42
0.027182
  0
VERTEX
  8
0
 10
150.238321
 20
3.529221
 42
0.056096
  0
VERTEX
  8
0
 10
159.237768
 20
1.450571
 42
0.026930
  0
VERTEX
  8
0
 10
171.886540
 20
0.677112
 42
0.002363
  0
VERTEX
  8
0
 10
204.000000
 20
0.596845
 42
0.005942
  0
VERTEX
  8
0
 10
241.421769
 20
1.124901
 42
0.004108
  0
VERTEX
  8
0
 10
283.749224
 20
2.573457
 42
0.003545
  0
VERTEX
  8
0
 10
322.562944
 20
4.496900
 42
0.020489
  0
VERTEX
  8
0
 10
343.000000
 20
6.497442
 42
0.011650
  0
VERTEX
  8
0
 10
352.299714
 20
8.015859
 42
0.010592
  0
VERTEX
  8
0
 10
361.820444
 20
10.008621
 42
0.004758
  0
VERTEX
  8
0
 10
370.523991
 20
12.111132
 42
0.187649
  0
VERTEX
  8
0
 10
372.108951
 20
13.236747
 42
0.069125
  0
VERTEX
  8
0
 10
372.407031
 20
13.862983
 42
0.006648
  0
VERTEX
  8
0
 10
372.895273
 20
15.481810
 42
0.008360
  0
VERTEX
  8
0
 10
373.421730
 20
17.437874
 42
0.006507
  0
VERTEX
  8
0
 10
373.930668
 20
19.580796
 42
0.000000
  0
VERTEX
  8
0
 10
375.143432
 20
25.000000
 42
0.000000
  0
VERTEX
  8
0
 10
390.491714
 20
25.000000
 42
0.006625
  0
VERTEX
  8
0
 10
398.878900
 20
25.111143
 42
0.016098
  0
VERTEX
  8
0
 10
405.056407
 20
25.474154
 42
0.018440
  0
VERTEX
  8
0
 10
410.679091
 20
26.196473
 42
0.011690
  0
VERTEX
  8
0
 10
417.169998
 20
27.431483
 42
-0.019808
  0
VERTEX
  8
0
 10
431.533389
 20
29.923507
 42
-0.018258
  0
VERTEX
  8
0
 10
446.444880
 20
31.354387
 42
-0.009949
  0
VERTEX
  8
0
 10
467.816510
 20
32.193790
 42
-0.001691
  0
VERTEX
  8
0
 10
508.583208
 20
32.845211
 42
0.000000
  0
VERTEX
  8
0
 10
568.666416
 20
33.602092
 42
0.000000
  0
VERTEX
  8
0
 10
574.229826
 20
36.324014
 42
0.009901
  0
VERTEX
  8
0
 10
576.436352
 20
37.458254
 42
0.011861
  0
VERTEX
  8
0
 10
578.465325
 20
38.615491
 42
0.010636
  0
VERTEX
  8
0
 10
580.122420
 20
39.662108
 42
0.073500
  0
VERTEX
  8
0
 10
580.836100
 20
40.302513
 42
0.111498
  0
VERTEX
  8
0
 10
581.300451
 20
41.215193
 42
0.009224
  0
VERTEX
  8
0
 10
581.911856
 20
43.825041
 42
0.011969
  0
VERTEX
  8
0
 10
582.515408
 20
47.002110
 42
0.008941
  0
VERTEX
  8
0
 10
583.033797
 20
50.529545
 42
-0.013101
  0
VERTEX
  8
0
 10
583.616829
 20
54.279732
 42
-0.011786
  0
VERTEX
  8
0
 10
584.413324
 20
58.129731
 42
-0.011905
  0
VERTEX
  8
0
 10
585.291270
 20
61.548313
 42
-0.036070
  0
VERTEX
  8
0
 10
586.108383
 20
63.805710
 42
0.053216
  0
VERTEX
  8
0
 10
587.128967
 20
66.958349
 42
0.018549
  0
VERTEX
  8
0
 10
587.935631
 20
71.667463
 42
0.012244
  0
VERTEX
  8
0
 10
588.682540
 20
78.551824
 42
0.003462
  0
VERTEX
  8
0
 10
589.508553
 20
89.305710
 42
-0.002647
  0
VERTEX
  8
0
 10
590.146114
 20
97.787105
 42
-0.003197
  0
VERTEX
  8
0
 10
590.837772
 20
105.742927
 42
-0.002721
  0
VERTEX
  8
0
 10
591.499150
 20
112.431908
 42
-0.021702
  0
VERTEX
  8
0
 10
591.954674
 20
115.500000
 42
0.016287
  0
VERTEX
  8
0
 10
592.992302
 20
122.003258
 42
0.006031
  0
VERTEX
  8
0
 10
594.043594
 20
131.218653
 42
0.005311
  0
VERTEX
  8
0
 10
595.065008
 20
142.423758
 42
0.003497
  0
VERTEX
  8
0
 10
596.012887
 20
155.334132
 42
-0.004696
  0
VERTEX
  8
0
 10
596.609045
 20
163.195831
 42
-0.015956
  0
VERTEX
  8
0
 10
597.208917
 20
168.300148
 42
-0.023295
  0
VERTEX
  8
0
 10
597.892199
 20
171.750978
 42
-0.084492
  0
VERTEX
  8
0
 10
598.782072
 20
173.794803
 42
0.141582
  0
VERTEX
  8
0
 10
599.908210
 20
177.462127
 42
0.002127
  0
VERTEX
  8
0
 10
600.188147
 20
200.065541
 42
0.002422
  0
VERTEX
  8
0
 10
600.314068
 20
238.391043
 42
0.000200
  0
VERTEX
  8
0
 10
600.118667
 20
338.210671
 42
-0.000293
  0
VERTEX
  8
0
 10
600.008777
 20
400.248936
 42
-0.000488
  0
VERTEX
  8
0
 10
599.997873
 20
452.474385
 42
-0.000010
  0
VERTEX
  8
0
 10
600.035130
 20
499.792357
 42
-0.413977
  0
VERTEX
  8
0
 10
600.242941
 20
500.000000
 42
-0.078065
  0
VERTEX
  8
0
 10
600.591372
 20
499.945266
 42
-0.002772
  0
VERTEX
  8
0
 10
601.885395
 20
499.520501
 42
-0.005066
  0
VERTEX
  8
0
 10
603.411048
 20
498.993070
 42
-0.003519
  0
VERTEX
  8
0
 10
605.124273
 20
498.367662
 42
0.040898
  0
VERTEX
  8
0
 10
607.724073
 20
497.633278
 42
0.020067
  0
VERTEX
  8
0
 10
611.125911
 20
497.107213
 42
0.016490
  0
VERTEX
  8
0
 10
615.343856
 20
496.767693
 42
0.009173
  0
VERTEX
  8
0
 10
620.500000
 20
496.618130
 42
0.022824
  0
VERTEX
  8
0
 10
628.980859
 20
496.914958
 42
0.061145
  0
VERTEX
  8
0
 10
634.890303
 20
498.129866
 42
0.069151
  0
VERTEX
  8
0
 10
639.904159
 20
500.632625
 42
0.035928
  0
VERTEX
  8
0
 10
645.384238
 20
505.000059
 42
-0.018855
  0
VERTEX
  8
0
 10
648.794413
 20
507.913500
 42
-0.406441
  0
VERTEX
  8
0
 10
649.992219
 20
507.789940
 42
-0.151978
  0
VERTEX
  8
0
 10
650.682643
 20
506.130459
 42
-0.003733
  0
VERTEX
  8
0
 10
651.393153
 20
497.806537
 42
0.024590
  0
VERTEX
  8
0
 10
652.369695
 20
490.149784
 42
0.017274
  0
VERTEX
  8
0
 10
654.185850
 20
481.652680
 42
0.014956
  0
VERTEX
  8
0
 10
656.336678
 20
474.030378
 42
0.090642
  0
VERTEX
  8
0
 10
658.244769
 20
470.415956
 42
0.082237
  0
VERTEX
  8
0
 10
661.595796
 20
467.355091
 42
0.054627
  0
VERTEX
  8
0
 10
666.254315
 20
465.006710
 42
0.049043
  0
VERTEX
  8
0
 10
671.865056
 20
463.515492
 42
0.040140
  0
VERTEX
  8
0
 10
678.054219
 20
463.009769
 42
0.012500
  0
VERTEX
  8
0
 10
682.393245
 20
463.112649
 42
0.046375
  0
VERTEX
  8
0
 10
685.099343
 20
463.497831
 42
0.056914
  0
VERTEX
  8
0
 10
687.397527
 20
464.330952
 42
0.025929
  0
VERTEX
  8
0
 10
690.184775
 20
465.902227
 42
0.009550
  0
VERTEX
  8
0
 10
691.986763
 20
467.093871
 42
0.011816
  0
VERTEX
  8
0
 10
693.616111
 20
468.274395
 42
0.010234
  0
VERTEX
  8
0
 10
694.931962
 20
469.319248
 42
0.081593
  0
VERTEX
  8
0
 10
695.439573
 20
469.902227
 42
-0.118090
  0
VERTEX
  8
0
 10
696.327549
 20
470.784420
 42
-0.320990
  0
VERTEX
  8
0
 10
697.164079
 20
470.722269
 42
-0.125310
  0
VERTEX
  8
0
 10
697.987257
 20
469.583997
 42
-0.021428
  0
VERTEX
  8
0
 10
698.869860
 20
467.040033
 42
0.124795
  0
VERTEX
  8
0
 10
700.643556
 20
464.077043
 42
0.148618
  0
VERTEX
  8
0
 10
703.510049
 20
462.555403
 42
0.048947
  0
VERTEX
  8
0
 10
709.063621
 20
462.025559
 42
0.003958
  0
VERTEX
  8
0
 10
723.739640
 20
462.181346
 42
0.003242
  0
VERTEX
  8
0
 10
732.973074
 20
462.412371
 42
0.017680
  0
VERTEX
  8
0
 10
737.960393
 20
462.746301
 42
0.031152
  0
VERTEX
  8
0
 10
740.989609
 20
463.249136
 42
0.140778
  0
VERTEX
  8
0
 10
742.540988
 20
464.109791
 42
0.105143
  0
VERTEX
  8
0
 10
743.315037
 20
465.304053
 42
0.009079
  0
VERTEX
  8
0
 10
744.558291
 20
468.737728
 42
0.011648
  0
VERTEX
  8
0
 10
745.883955
 20
472.934764
 42
0.008778
  0
VERTEX
  8
0
 10
747.151533
 20
477.603913
 42
-0.001856
  0
VERTEX
  8
0
 10
748.327054
 20
482.183797
 42
-0.002945
  0
VERTEX
  8
0
 10
749.371305
 20
486.095859
 42
-0.000678
  0
VERTEX
  8
0
 10
750.310467
 20
489.514606
 42
-0.129707
  0
VERTEX
  8
0
 10
750.490692
 20
489.824026
 42
-0.290750
  0
VERTEX
  8
0
 10
750.739395
 20
489.879510
 42
-0.019899
  0
VERTEX
  8
0
 10
751.439625
 20
489.594789
 42
-0.023470
  0
VERTEX
  8
0
 10
752.296626
 20
489.156313
 42
-0.015049
  0
VERTEX
  8
0
 10
753.249580
 20
488.572124
 42
0.126875
  0
VERTEX
  8
0
 10
757.090415
 20
487.266666
 42
0.011402
  0
VERTEX
  8
0
 10
767.328910
 20
486.729303
 42
0.011579
  0
VERTEX
  8
0
 10
777.571877
 20
486.662964
 42
0.122893
  0
VERTEX
  8
0
 10
781.572579
 20
487.732551
 42
0.090559
  0
VERTEX
  8
0
 10
783.938529
 20
489.671076
 42
0.031649
  0
VERTEX
  8
0
 10
786.578103
 20
493.212836
 42
0.031050
  0
VERTEX
  8
0
 10
788.971347
 20
497.440532
 42
0.038265
  0
VERTEX
  8
0
 10
790.636863
 20
501.652733
 42
0.035656
  0
VERTEX
  8
0
 10
791.338570
 20
504.666420
 42
0.027240
  0
VERTEX
  8
0
 10
791.686830
 20
508.035096
 42
0.019237
  0
VERTEX
  8
0
 10
791.730878
 20
512.404715
 42
0.006542
  0
VERTEX
  8
0
 10
791.467575
 20
518.750000
 42
0.000000
  0
VERTEX
  8
0
 10
790.798613
 20
531.000000
 42
0.000000
  0
VERTEX
  8
0
 10
793.149307
 20
531.000789
 42
0.097207
  0
VERTEX
  8
0
 10
796.604034
 20
531.680049
 42
0.022978
  0
VERTEX
  8
0
 10
801.962023
 20
534.162635
 42
0.024495
  0
VERTEX
  8
0
 10
807.227469
 20
537.239422
 42
0.058935
  0
VERTEX
  8
0
 10
810.688666
 20
540.128437
 42
0.021513
  0
VERTEX
  8
0
 10
811.987307
 20
541.625608
 42
0.017393
  0
VERTEX
  8
0
 10
813.252428
 20
543.336539
 42
0.017734
  0
VERTEX
  8
0
 10
814.309943
 20
544.999344
 42
0.042640
  0
VERTEX
  8
0
 10
814.938666
 20
546.315100
 42
0.072743
  0
VERTEX
  8
0
 10
815.375382
 20
548.312024
 42
0.005582
  0
VERTEX
  8
0
 10
815.700039
 20
553.816788
 42
0.007268
  0
VERTEX
  8
0
 10
815.926210
 20
560.624778
 42
0.004668
  0
VERTEX
  8
0
 10
816.000000
 20
568.527587
 42
0.003069
  0
VERTEX
  8
0
 10
815.931840
 20
579.631586
 42
0.017351
  0
VERTEX
  8
0
 10
815.653791
 20
585.546211
 42
0.031850
  0
VERTEX
  8
0
 10
815.058435
 20
589.613252
 42
0.037265
  0
VERTEX
  8
0
 10
813.967503
 20
593.357310
 42
0.029694
  0
VERTEX
  8
0
 10
811.406255
 20
599.133049
 42
0.056368
  0
VERTEX
  8
0
 10
808.582428
 20
603.356187
 42
0.069527
  0
VERTEX
  8
0
 10
805.359529
 20
606.240246
 42
0.079705
  0
VERTEX
  8
0
 10
801.610227
 20
607.969138
 42
-0.015845
  0
VERTEX
  8
0
 10
798.902146
 20
608.820752
 42
-0.108182
  0
VERTEX
  8
0
 10
797.717357
 20
609.550243
 42
-0.157300
  0
VERTEX
  8
0
 10
797.164822
 20
610.582822
 42
-0.044853
  0
VERTEX
  8
0
 10
797.000000
 20
612.416506
 42
0.065859
  0
VERTEX
  8
0
 10
796.762697
 20
614.210288
 42
0.090834
  0
VERTEX
  8
0
 10
796.065934
 20
615.674216
 42
0.060633
  0
VERTEX
  8
0
 10
794.668464
 20
617.184820
 42
0.015467
  0
VERTEX
  8
0
 10
792.054739
 20
619.265070
 42
-0.048206
  0
VERTEX
  8
0
 10
787.961032
 20
622.985306
 42
-0.047117
  0
VERTEX
  8
0
 10
784.620267
 20
627.447509
 42
-0.035399
  0
VERTEX
  8
0
 10
781.488287
 20
633.497064
 42
-0.013378
  0
VERTEX
  8
0
 10
777.952472
 20
642.344457
 42
0.004020
  0
VERTEX
  8
0
 10
776.261689
 20
646.816246
 42
0.002752
  0
VERTEX
  8
0
 10
774.273481
 20
651.866809
 42
0.002774
  0
VERTEX
  8
0
 10
772.303932
 20
656.712161
 42
0.005615
  0
VERTEX
  8
0
 10
770.689674
 20
660.500000
 42
-0.017810
  0
VERTEX
  8
0
 10
765.102467
 20
674.550777
 42
-0.016782
  0
VERTEX
  8
0
 10
760.407632
 20
689.242756
 42
-0.015178
  0
VERTEX
  8
0
 10
756.324885
 20
705.545855
 42
-0.010019
  0
VERTEX
  8
0
 10
752.581436
 20
724.500000
 42
0.009163
  0
VERTEX
  8
0
 10
751.403374
 20
730.519039
 42
0.007091
  0
VERTEX
  8
0
 10
749.907490
 20
737.031250
 42
0.007177
  0
VERTEX
  8
0
 10
748.337216
 20
743.071837
 42
0.017078
  0
VERTEX
  8
0
 10
746.953677
 20
747.500000
 42
-0.016804
  0
VERTEX
  8
0
 10
745.147242
 20
753.270587
 42
-0.031969
  0
VERTEX
  8
0
 10
744.153314
 20
758.030414
 42
-0.020740
  0
VERTEX
  8
0
 10
743.545613
 20
764.058714
 42
-0.003596
  0
VERTEX
  8
0
 10
742.952387
 20
775.500000
 42
0.005214
  0
VERTEX
  8
0
 10
740.805139
 20
814.473301
 42
0.003752
  0
VERTEX
  8
0
 10
737.628055
 20
857.934094
 42
0.003647
  0
VERTEX
  8
0
 10
734.095086
 20
898.082671
 42
0.011988
  0
VERTEX
  8
0
 10
730.935389
 20
924.500000
 42
0.010302
  0
VERTEX
  8
0
 10
727.445110
 20
945.640858
 42
0.010165
  0
VERTEX
  8
0
 10
723.073192
 20
966.714949
 42
0.010570
  0
VERTEX
  8
0
 10
718.390375
 20
985.363487
 42
0.027431
  0
VERTEX
  8
0
 10
714.007750
 20
998.500000
 42
-0.025316
  0
VERTEX
  8
0
 10
711.156001
 20
1006.929015
 42
-0.022584
  0
VERTEX
  8
0
 10
709.044365
 20
1015.929119
 42
-0.014005
  0
VERTEX
  8
0
 10
707.080094
 20
1028.314480
 42
-0.003261
  0
VERTEX
  8
0
 10
704.501480
 20
1049.214862
 42
0.006167
  0
VERTEX
  8
0
 10
700.899722
 20
1077.074707
 42
0.023971
  0
VERTEX
  8
0
 10
697.635463
 20
1094.155059
 42
0.034210
  0
VERTEX
  8
0
 10
693.406659
 20
1107.579772
 42
0.024852
  0
VERTEX
  8
0
 10
686.971297
 20
1121.865493
 42
-0.012023
  0
VERTEX
  8
0
 10
684.505795
 20
1126.983865
 42
-0.019408
  0
VERTEX
  8
0
 10
682.684945
 20
1131.463912
 42
-0.021423
  0
VERTEX
  8
0
 10
681.345875
 20
1135.726383
 42
-0.020239
  0
VERTEX
  8
0
 10
680.347371
 20
1140.169058
 42
0.018642
  0
VERTEX
  8
0
 10
677.594428
 20
1152.603236
 42
0.026139
  0
VERTEX
  8
0
 10
674.153517
 20
1163.440811
 42
0.029768
  0
VERTEX
  8
0
 10
670.118211
 20
1172.496018
 42
0.049310
  0
VERTEX
  8
0
 10
665.556641
 20
1179.500000
 42
-0.017296
  0
VERTEX
  8
0
 10
660.870046
 20
1185.778468
 42
-0.015654
  0
VERTEX
  8
0
 10
656.462776
 20
1192.574346
 42
-0.013130
  0
VERTEX
  8
0
 10
651.850227
 20
1200.672157
 42
-0.006813
  0
VERTEX
  8
0
 10
646.498136
 20
1211.005855
 42
0.003392
  0
VERTEX
  8
0
 10
643.271712
 20
1217.341116
 42
0.003503
  0
VERTEX
  8
0
 10
639.993556
 20
1223.564220
 42
0.003384
  0
VERTEX
  8
0
 10
637.079659
 20
1228.915754
 42
0.014977
  0
VERTEX
  8
0
 10
635.250407
 20
1232.000000
 42
0.046066
  0
VERTEX
  8
0
 10
629.514783
 20
1239.430923
 42
0.008835
  0
VERTEX
  8
0
 10
617.682368
 20
1251.704958
 42
0.009159
  0
VERTEX
  8
0
 10
605.383216
 20
1263.576999
 42
0.040632
  0
VERTEX
  8
0
 10
597.500000
 20
1269.799375
 42
-0.035542
  0
VERTEX
  8
0
 10
586.742119
 20
1278.114718
 42
-0.023860
  0
VERTEX
  8
0
 10
575.654772
 20
1289.012919
 42
-0.020180
  0
VERTEX
  8
0
 10
563.863000
 20
1302.845087
 42
-0.012091
  0
VERTEX
  8
0
 10
550.940097
 20
1320.151136
 42
0.009789
  0
VERTEX
  8
0
 10
544.389051
 20
1329.008896
 42
0.027068
  0
VERTEX
  8
0
 10
539.332283
 20
1334.886122
 42
0.037443
  0
VERTEX
  8
0
 10
534.779060
 20
1338.971720
 42
0.046214
  0
VERTEX
  8
0
 10
529.962110
 20
1342.019330
 42
-0.018343
  0
VERTEX
  8
0
 10
527.953999
 20
1343.138439
 42
-0.072706
  0
VERTEX
  8
0
 10
526.867539
 20
1344.035617
 42
-0.136045
  0
VERTEX
  8
0
 10
526.439303
 20
1344.889316
 42
-0.147541
  0
VERTEX
  8
0
 10
526.530503
 20
1345.812642
 42
0.019311
  0
VERTEX
  8
0
 10
527.503392
 20
1348.454845
 42
0.119087
  0
VERTEX
  8
0
 10
527.614204
 20
1349.888660
 42
0.186057
  0
VERTEX
  8
0
 10
527.032550
 20
1350.886331
 42
0.061961
  0
VERTEX
  8
0
 10
525.566708
 20
1351.787652
 42
-0.067968
  0
VERTEX
  8
0
 10
523.890172
 20
1352.846368
 42
-0.169240
  0
VERTEX
  8
0
 10
523.158967
 20
1354.075903
 42
-0.112467
  0
VERTEX
  8
0
 10
523.199239
 20
1355.843281
 42
-0.022167
  0
VERTEX
  8
0
 10
524.115620
 20
1358.901823
 42
0.014019
  0
VERTEX
  8
0
 10
524.514084
 20
1360.157004
 42
0.020735
  0
VERTEX
  8
0
 10
524.786227
 20
1361.279314
 42
0.016735
  0
VERTEX
  8
0
 10
524.936586
 20
1362.193789
 42
0.232798
  0
VERTEX
  8
0
 10
524.831921
 20
1362.501412
 42
0.235785
  0
VERTEX
  8
0
 10
524.481784
 20
1362.618333
 42
0.004544
  0
VERTEX
  8
0
 10
522.540808
 20
1362.325155
 42
0.009943
  0
VERTEX
  8
0
 10
520.243480
 20
1361.909752
 42
0.006373
  0
VERTEX
  8
0
 10
517.593132
 20
1361.340640
 42
-0.019975
  0
VERTEX
  8
0
 10
512.332659
 20
1360.359896
 42
-0.225570
  0
VERTEX
  8
0
 10
510.360012
 20
1360.968674
 42
-0.160563
  0
VERTEX
  8
0
 10
509.223183
 20
1363.004215
 42
-0.009151
  0
VERTEX
  8
0
 10
507.972078
 20
1370.179491
 42
-0.006527
  0
VERTEX
  8
0
 10
507.324705
 20
1374.731425
 42
-0.042427
  0
VERTEX
  8
0
 10
507.224351
 20
1377.041458
 42
-0.086445
  0
VERTEX
  8
0
 10
507.552900
 20
1378.554329
 42
-0.087536
  0
VERTEX
  8
0
 10
508.372948
 20
1379.859610
 42
0.157712
  0
VERTEX
  8
0
 10
509.659737
 20
1382.720190
 42
0.021964
  0
VERTEX
  8
0
 10
510.093570
 20
1389.289103
 42
0.017960
  0
VERTEX
  8
0
 10
510.003032
 20
1395.806554
 42
0.405380
  0
VERTEX
  8
0
 10
508.750000
 20
1396.975554
 42
0.039565
  0
VERTEX
  8
0
 10
507.543606
 20
1396.856164
 42
0.004888
  0
VERTEX
  8
0
 10
504.944630
 20
1396.363045
 42
0.004570
  0
VERTEX
  8
0
 10
501.349176
 20
1395.610138
 42
0.001722
  0
VERTEX
  8
0
 10
496.331643
 20
1394.493349
 42
-0.156608
  0
VERTEX
  8
0
 10
495.055543
 20
1394.606246
 42
-0.153397
  0
VERTEX
  8
0
 10
494.071136
 20
1395.441059
 42
-0.054694
  0
VERTEX
  8
0
 10
493.086815
 20
1397.459430
 42
-0.006258
  0
VERTEX
  8
0
 10
491.434987
 20
1402.251439
 42
0.000368
  0
VERTEX
  8
0
 10
490.361880
 20
1405.487801
 42
0.000512
  0
VERTEX
  8
0
 10
489.395288
 20
1408.385839
 42
0.000313
  0
VERTEX
  8
0
 10
488.577445
 20
1410.824493
 42
0.006519
  0
VERTEX
  8
0
 10
488.322559
 20
1411.551417
 42
-0.315872
  0
VERTEX
  8
0
 10
488.471376
 20
1412.107190
 42
-0.022197
  0
VERTEX
  8
0
 10
489.822810
 20
1413.140701
 42
-0.025008
  0
VERTEX
  8
0
 10
491.685363
 20
1414.304497
 42
-0.015656
  0
VERTEX
  8
0
 10
493.969215
 20
1415.485286
 42
0.009383
  0
VERTEX
  8
0
 10
496.280553
 20
1416.643776
 42
0.014481
  0
VERTEX
  8
0
 10
498.228457
 20
1417.739370
 42
0.008768
  0
VERTEX
  8
0
 10
499.783239
 20
1418.711641
 42
0.253855
  0
VERTEX
  8
0
 10
500.000000
 20
1419.111065
 42
0.230300
  0
VERTEX
  8
0
 10
499.157953
 20
1420.842257
 42
0.025483
  0
VERTEX
  8
0
 10
495.457289
 20
1423.453191
 42
0.031049
  0
VERTEX
  8
0
 10
491.143801
 20
1425.817480
 42
0.054844
  0
VERTEX
  8
0
 10
487.306673
 20
1427.130678
 42
-0.009981
  0
VERTEX
  8
0
 10
485.273293
 20
1427.628548
 42
-0.015992
  0
VERTEX
  8
0
 10
483.562322
 20
1428.142976
 42
-0.009915
  0
VERTEX
  8
0
 10
482.199502
 20
1428.631007
 42
-0.316796
  0
VERTEX
  8
0
 10
482.011869
 20
1428.909130
 42
-0.053174
  0
VERTEX
  8
0
 10
482.064505
 20
1429.323556
 42
-0.001761
  0
VERTEX
  8
0
 10
482.453903
 20
1430.942057
 42
-0.003337
  0
VERTEX
  8
0
 10
482.933523
 20
1432.849816
 42
-0.002314
  0
VERTEX
  8
0
 10
483.500000
 20
1435.000000
 42
0.000415
  0
VERTEX
  8
0
 10
484.066800
 20
1437.118703
 42
0.000667
  0
VERTEX
  8
0
 10
484.546097
 20
1438.925968
 42
0.000101
  0
VERTEX
  8
0
 10
484.969006
 20
1440.530553
 42
0.043495
  0
VERTEX
  8
0
 10
484.988131
 20
1440.641592
 42
0.351049
  0
VERTEX
  8
0
 10
484.940847
 20
1440.711970
 42
0.002347
  0
VERTEX
  8
0
 10
484.188701
 20
1440.944055
 42
0.007623
  0
VERTEX
  8
0
 10
483.303530
 20
1441.197971
 42
0.004634
  0
VERTEX
  8
0
 10
482.250000
 20
1441.472421
 42
-0.029179
  0
VERTEX
  8
0
 10
477.249640
 20
1443.040690
 42
-0.043369
  0
VERTEX
  8
0
 10
473.118117
 20
1445.031042
 42
-0.051320
  0
VERTEX
  8
0
 10
469.997241
 20
1447.345817
 42
-0.089995
  0
VERTEX
  8
0
 10
468.055862
 20
1449.896567
 42
-0.028743
  0
VERTEX
  8
0
 10
466.666083
 20
1453.063014
 42
-0.008530
  0
VERTEX
  8
0
 10
464.906794
 20
1458.051356
 42
-0.005982
  0
VERTEX
  8
0
 10
463.296240
 20
1463.078570
 42
-0.074656
  0
VERTEX
  8
0
 10
463.000000
 20
1465.051540
 42
-0.282103
  0
VERTEX
  8
0
 10
463.201030
 20
1465.379491
 42
-0.015792
  0
VERTEX
  8
0
 10
464.330299
 20
1465.910281
 42
-0.020499
  0
VERTEX
  8
0
 10
465.793052
 20
1466.472268
 42
-0.013207
  0
VERTEX
  8
0
 10
467.528677
 20
1467.008029
 42
0.009015
  0
VERTEX
  8
0
 10
469.239910
 20
1467.520587
 42
0.016244
  0
VERTEX
  8
0
 10
470.619565
 20
1468.011009
 42
0.011851
  0
VERTEX
  8
0
 10
471.655416
 20
1468.446183
 42
0.525313
  0
VERTEX
  8
0
 10
471.691432
 20
1468.641901
 42
0.154340
  0
VERTEX
  8
0
 10
471.363394
 20
1468.812321
 42
0.002152
  0
VERTEX
  8
0
 10
469.131779
 20
1469.192099
 42
0.005787
  0
VERTEX
  8
0
 10
466.520546
 20
1469.593929
 42
0.003750
  0
VERTEX
  8
0
 10
463.491565
 20
1470.001069
 42
-0.013517
  0
VERTEX
  8
0
 10
460.327566
 20
1470.489451
 42
-0.014929
  0
VERTEX
  8
0
 10
457.298580
 20
1471.135170
 42
-0.014424
  0
VERTEX
  8
0
 10
454.755569
 20
1471.835513
 42
-0.070732
  0
VERTEX
  8
0
 10
453.409922
 20
1472.467064
 42
-0.082592
  0
VERTEX
  8
0
 10
452.412511
 20
1473.386699
 42
-0.025907
  0
VERTEX
  8
0
 10
451.245906
 20
1475.058220
 42
-0.025094
  0
VERTEX
  8
0
 10
450.116131
 20
1477.090588
 42
-0.025322
  0
VERTEX
  8
0
 10
449.199400
 20
1479.219906
 42
0.014712
  0
VERTEX
  8
0
 10
447.986945
 20
1482.209139
 42
0.080847
  0
VERTEX
  8
0
 10
447.042029
 20
1483.663747
 42
0.125925
  0
VERTEX
  8
0
 10
445.887718
 20
1484.424687
 42
0.058101
  0
VERTEX
  8
0
 10
444.118288
 20
1484.813358
 42
-0.035228
  0
VERTEX
  8
0
 10
442.263967
 20
1485.132775
 42
-0.189436
  0
VERTEX
  8
0
 10
441.443370
 20
1485.712980
 42
-0.131913
  0
VERTEX
  8
0
 10
441.077145
 20
1486.823281
 42
-0.014074
  0
VERTEX
  8
0
 10
441.000000
 20
1489.563358
 42
0.012530
  0
VERTEX
  8
0
 10
440.930568
 20
1492.333497
 42
0.136958
  0
VERTEX
  8
0
 10
440.580953
 20
1493.380280
 42
0.211245
  0
VERTEX
  8
0
 10
439.798406
 20
1493.870748
 42
0.035889
  0
VERTEX
  8
0
 10
438.000000
 20
1494.000000
 42
-0.036259
  0
VERTEX
  8
0
 10
436.198207
 20
1494.130834
 42
-0.212966
  0
VERTEX
  8
0
 10
435.416124
 20
1494.626225
 42
-0.135376
  0
VERTEX
  8
0
 10
435.068298
 20
1495.685100
 42
-0.012067
  0
VERTEX
  8
0
 10
435.000000
 20
1498.514698
 42
0.021806
  0
VERTEX
  8
0
 10
434.888794
 20
1501.063360
 42
0.088165
  0
VERTEX
  8
0
 10
434.485807
 20
1502.559627
 42
0.106790
  0
VERTEX
  8
0
 10
433.635180
 20
1503.674556
 42
0.039999
  0
VERTEX
  8
0
 10
432.033202
 20
1504.833615
 42
-0.017605
  0
VERTEX
  8
0
 10
430.452086
 20
1505.873101
 42
-0.122375
  0
VERTEX
  8
0
 10
429.852836
 20
1506.569632
 42
-0.229923
  0
VERTEX
  8
0
 10
429.842814
 20
1507.240584
 42
-0.078648
  0
VERTEX
  8
0
 10
430.402275
 20
1508.068916
 42
0.107682
  0
VERTEX
  8
0
 10
431.017871
 20
1509.104173
 42
0.083996
  0
VERTEX
  8
0
 10
431.219557
 20
1510.400652
 42
0.044382
  0
VERTEX
  8
0
 10
431.021018
 20
1512.340809
 42
0.008874
  0
VERTEX
  8
0
 10
430.300356
 20
1515.748195
 42
0.011537
  0
VERTEX
  8
0
 10
429.403560
 20
1519.271369
 42
0.067572
  0
VERTEX
  8
0
 10
428.648426
 20
1521.021875
 42
0.123317
  0
VERTEX
  8
0
 10
427.669834
 20
1521.996173
 42
0.080541
  0
VERTEX
  8
0
 10
426.181283
 20
1522.585666
 42
-0.016919
  0
VERTEX
  8
0
 10
420.743450
 20
1523.975151
 42
-0.056586
  0
VERTEX
  8
0
 10
417.354136
 20
1525.396378
 42
-0.073865
  0
VERTEX
  8
0
 10
414.868874
 20
1527.315539
 42
-0.044882
  0
VERTEX
  8
0
 10
412.541191
 20
1530.217275
 42
0.024783
  0
VERTEX
  8
0
 10
410.815053
 20
1532.555540
 42
0.054285
  0
VERTEX
  8
0
 10
409.230206
 20
1534.113560
 42
0.059922
  0
VERTEX
  8
0
 10
407.451881
 20
1535.200679
 42
0.036768
  0
VERTEX
  8
0
 10
405.146311
 20
1536.056664
 42
-0.081020
  0
VERTEX
  8
0
 10
402.033345
 20
1537.536204
 42
-0.102512
  0
VERTEX
  8
0
 10
399.840647
 20
1539.838039
 42
-0.057587
  0
VERTEX
  8
0
 10
397.958626
 20
1543.817473
 42
-0.010969
  0
VERTEX
  8
0
 10
395.551326
 20
1551.469904
 42
0.009772
  0
VERTEX
  8
0
 10
394.757633
 20
1554.014186
 42
0.007822
  0
VERTEX
  8
0
 10
393.806780
 20
1556.723114
 42
0.007919
  0
VERTEX
  8
0
 10
392.847928
 20
1559.202223
 42
0.019824
  0
VERTEX
  8
0
 10
392.048903
 20
1560.969904
 42
-0.056607
  0
VERTEX
  8
0
 10
389.657885
 20
1567.498214
 42
-0.014627
  0
VERTEX
  8
0
 10
387.331474
 20
1578.481172
 42
-0.015566
  0
VERTEX
  8
0
 10
385.583514
 20
1590.177020
 42
-0.028688
  0
VERTEX
  8
0
 10
385.008205
 20
1599.775680
 42
0.000000
  0
VERTEX
  8
0
 10
385.000000
 20
1603.051360
 42
0.000000
  0
VERTEX
  8
0
 10
388.250000
 20
1601.408538
 42
0.000000
  0
VERTEX
  8
0
 10
391.500000
 20
1599.765715
 42
0.000000
  0
VERTEX
  8
0
 10
388.111537
 20
1603.323322
 42
0.000000
  0
VERTEX
  8
0
 10
384.723074
 20
1606.880929
 42
0.000000
  0
VERTEX
  8
0
 10
385.891700
 20
1615.690465
 42
0.000465
  0
VERTEX
  8
0
 10
386.355273
 20
1619.210134
 42
0.000569
  0
VERTEX
  8
0
 10
386.781619
 20
1622.499699
 42
0.000473
  0
VERTEX
  8
0
 10
387.134302
 20
1625.266126
 42
0.004094
  0
VERTEX
  8
0
 10
387.280163
 20
1626.500000
 42
0.154757
  0
VERTEX
  8
0
 10
387.063288
 20
1627.583232
 42
0.192950
  0
VERTEX
  8
0
 10
386.274815
 20
1628.227261
 42
0.060727
  0
VERTEX
  8
0
 10
384.463960
 20
1628.561247
 42
0.005892
  0
VERTEX
  8
0
 10
380.000000
 20
1628.781487
 42
-0.010862
  0
VERTEX
  8
0
 10
376.320853
 20
1628.999686
 42
-0.034350
  0
VERTEX
  8
0
 10
373.881087
 20
1629.367510
 42
-0.053398
  0
VERTEX
  8
0
 10
372.248629
 20
1629.917567
 42
-0.124023
  0
VERTEX
  8
0
 10
371.250000
 20
1630.722616
 42
-0.043364
  0
VERTEX
  8
0
 10
370.197951
 20
1632.404935
 42
-0.303813
  0
VERTEX
  8
0
 10
370.305950
 20
1633.318107
 42
-0.182240
  0
VERTEX
  8
0
 10
371.329773
 20
1633.880952
 42
-0.017341
  0
VERTEX
  8
0
 10
374.218154
 20
1634.192502
 42
0.026793
  0
VERTEX
  8
0
 10
376.427752
 20
1634.473164
 42
0.075892
  0
VERTEX
  8
0
 10
377.893357
 20
1634.977480
 42
0.091988
  0
VERTEX
  8
0
 10
378.978366
 20
1635.830679
 42
0.052885
  0
VERTEX
  8
0
 10
379.941520
 20
1637.193301
 42
0.022457
  0
VERTEX
  8
0
 10
380.478589
 20
1638.264556
 42
0.032720
  0
VERTEX
  8
0
 10
380.845063
 20
1639.254958
 42
0.034232
  0
VERTEX
  8
0
 10
381.025255
 20
1640.058682
 42
0.238766
  0
VERTEX
  8
0
 10
380.903709
 20
1640.429624
 42
0.222028
  0
VERTEX
  8
0
 10
380.437650
 20
1640.598921
 42
0.006119
  0
VERTEX
  8
0
 10
378.238258
 20
1640.376526
 42
0.011503
  0
VERTEX
  8
0
 10
375.608859
 20
1640.016661
 42
0.007506
  0
VERTEX
  8
0
 10
372.592375
 20
1639.486323
 42
-0.002976
  0
VERTEX
  8
0
 10
365.826968
 20
1638.233585
 42
-0.083607
  0
VERTEX
  8
0
 10
364.043902
 20
1638.215190
 42
-0.303099
  0
VERTEX
  8
0
 10
363.243776
 20
1638.953301
 42
-0.059344
  0
VERTEX
  8
0
 10
363.000000
 20
1641.000000
 42
-0.031624
  0
VERTEX
  8
0
 10
363.103885
 20
1642.640861
 42
-0.150958
  0
VERTEX
  8
0
 10
363.487438
 20
1643.485842
 42
-0.164369
  0
VERTEX
  8
0
 10
364.260379
 20
1643.927591
 42
-0.039348
  0
VERTEX
  8
0
 10
365.750000
 20
1644.099252
 42
0.105496
  0
VERTEX
  8
0
 10
366.420281
 20
1644.267756
 42
0.610739
  0
VERTEX
  8
0
 10
366.425155
 20
1644.542509
 42
0.052324
  0
VERTEX
  8
0
 10
365.296573
 20
1645.003021
 42
0.006574
  0
VERTEX
  8
0
 10
362.750000
 20
1645.707039
 42
0.000000
  0
VERTEX
  8
0
 10
357.000000
 20
1647.215575
 42
0.000000
  0
VERTEX
  8
0
 10
357.000000
 20
1651.732787
 42
0.028934
  0
VERTEX
  8
0
 10
356.822791
 20
1654.792536
 42
0.288306
  0
VERTEX
  8
0
 10
356.053925
 20
1655.749003
 42
0.146532
  0
VERTEX
  8
0
 10
354.465542
 20
1655.814681
 42
0.006937
  0
VERTEX
  8
0
 10
349.250000
 20
1654.407442
 42
-0.101226
  0
VERTEX
  8
0
 10
347.966547
 20
1654.310162
 42
-0.286611
  0
VERTEX
  8
0
 10
347.300064
 20
1654.853957
 42
-0.076362
  0
VERTEX
  8
0
 10
347.028214
 20
1656.384894
 42
-0.004469
  0
VERTEX
  8
0
 10
346.959962
 20
1661.133369
 42
0.002304
  0
VERTEX
  8
0
 10
346.911485
 20
1665.960123
 42
0.076586
  0
VERTEX
  8
0
 10
346.718876
 20
1667.099084
 42
0.611247
  0
VERTEX
  8
0
 10
346.316389
 20
1667.161192
 42
0.032394
  0
VERTEX
  8
0
 10
345.428025
 20
1665.750000
 42
-0.045231
  0
VERTEX
  8
0
 10
344.559189
 20
1664.445254
 42
-0.084934
  0
VERTEX
  8
0
 10
343.612422
 20
1663.609061
 42
-0.087737
  0
VERTEX
  8
0
 10
342.463501
 20
1663.151534
 42
-0.051031
  0
VERTEX
  8
0
 10
340.982655
 20
1663.000000
 42
0.000000
  0
VERTEX
  8
0
 10
338.029184
 20
1663.000000
 42
0.000000
  0
VERTEX
  8
0
 10
340.116551
 20
1668.250000
 42
0.001118
  0
VERTEX
  8
0
 10
343.299761
 20
1676.308613
 42
0.108471
  0
VERTEX
  8
0
 10
343.492666
 20
1677.520428
 42
0.547476
  0
VERTEX
  8
0
 10
342.961827
 20
1677.817884
 42
0.010499
  0
VERTEX
  8
0
 10
339.666709
 20
1675.965860
 42
-0.064402
  0
VERTEX
  8
0
 10
335.812024
 20
1674.316014
 42
-0.042127
  0
VERTEX
  8
0
 10
331.059503
 20
1673.394185
 42
-0.040525
  0
VERTEX
  8
0
 10
325.979581
 20
1673.260152
 42
-0.045236
  0
VERTEX
  8
0
 10
321.133413
 20
1673.967995
 42
0.000000
  0
VERTEX
  8
0
 10
316.046079
 20
1675.188427
 42
0.000000
  0
VERTEX
  8
0
 10
317.523040
 20
1678.044554
 42
0.005569
  0
VERTEX
  8
0
 10
318.088859
 20
1679.169253
 42
0.007850
  0
VERTEX
  8
0
 10
318.566143
 20
1680.184980
 42
0.004933
  0
VERTEX
  8
0
 10
318.943534
 20
1681.044546
 42
0.101305
  0
VERTEX
  8
0
 10
319.000000
 20
1681.320379
 42
0.305660
  0
VERTEX
  8
0
 10
318.860461
 20
1681.527312
 42
0.006749
  0
VERTEX
  8
0
 10
317.678125
 20
1681.986893
 42
0.012962
  0
VERTEX
  8
0
 10
316.225028
 20
1682.486748
 42
0.008100
  0
VERTEX
  8
0
 10
314.500000
 20
1683.000000
 42
-0.029575
  0
VERTEX
  8
0
 10
311.390216
 20
1684.072566
 42
-0.224742
  0
VERTEX
  8
0
 10
310.375759
 20
1685.189394
 42
-0.120742
  0
VERTEX
  8
0
 10
310.272249
 20
1687.071448
 42
-0.006439
  0
VERTEX
  8
0
 10
311.461348
 20
1692.990448
 42
0.003770
  0
VERTEX
  8
0
 10
311.978389
 20
1695.494817
 42
0.006040
  0
VERTEX
  8
0
 10
312.377654
 20
1697.640478
 42
0.001732
  0
VERTEX
  8
0
 10
312.693662
 20
1699.498895
 42
0.242165
  0
VERTEX
  8
0
 10
312.627242
 20
1699.706091
 42
0.370645
  0
VERTEX
  8
0
 10
312.441713
 20
1699.720126
 42
0.001956
  0
VERTEX
  8
0
 10
310.869044
 20
1698.553352
 42
0.006978
  0
VERTEX
  8
0
 10
309.061663
 20
1697.161696
 42
0.004218
  0
VERTEX
  8
0
 10
306.958116
 20
1695.465643
 42
-0.017382
  0
VERTEX
  8
0
 10
304.441224
 20
1693.543400
 42
-0.029819
  0
VERTEX
  8
0
 10
302.201744
 20
1692.146046
 42
-0.036221
  0
VERTEX
  8
0
 10
300.276101
 20
1691.272624
 42
-0.088583
  0
VERTEX
  8
0
 10
298.749376
 20
1691.000000
 42
-0.047479
  0
VERTEX
  8
0
 10
297.054778
 20
1691.161279
 42
-0.005377
  0
VERTEX
  8
0
 10
293.273997
 20
1691.929755
 42
-0.006472
  0
VERTEX
  8
0
 10
288.786688
 20
1692.953127
 42
-0.005220
  0
VERTEX
  8
0
 10
283.992284
 20
1694.165124
 42
0.000000
  0
VERTEX
  8
0
 10
272.000000
 20
1697.330248
 42
0.000000
  0
VERTEX
  8
0
 10
272.000000
 20
1703.352215
 42
0.000000
  0
VERTEX
  8
0
 10
272.000000
 20
1709.374182
 42
0.000000
  0
VERTEX
  8
0
 10
269.195281
 20
1706.687091
 42
-0.009509
  0
VERTEX
  8
0
 10
268.079050
 20
1705.657664
 42
-0.013519
  0
VERTEX
  8
0
 10
267.045847
 20
1704.789333
 42
-0.009496
  0
VERTEX
  8
0
 10
266.161750
 20
1704.113210
 42
-0.159813
  0
VERTEX
  8
0
 10
265.816601
 20
1704.000000
 42
-0.241030
  0
VERTEX
  8
0
 10
265.530699
 20
1704.146323
 42
-0.019606
  0
VERTEX
  8
0
 10
265.050930
 20
1704.869868
 42
-0.022937
  0
VERTEX
  8
0
 10
264.527689
 20
1705.826652
 42
-0.015470
  0
VERTEX
  8
0
 10
264.016049
 20
1706.961254
 42
0.000000
  0
VERTEX
  8
0
 10
262.789457
 20
1709.922509
 42
0.000000
  0
VERTEX
  8
0
 10
256.923245
 20
1706.961254
 42
-0.003063
  0
VERTEX
  8
0
 10
254.640466
 20
1705.826402
 42
-0.004640
  0
VERTEX
  8
0
 10
252.639641
 20
1704.869868
 42
-0.001869
  0
VERTEX
  8
0
 10
250.917366
 20
1704.073875
 42
-0.107713
  0
VERTEX
  8
0
 10
250.578421
 20
1704.000000
 42
-0.367446
  0
VERTEX
  8
0
 10
250.377805
 20
1704.170443
 42
-0.006572
  0
VERTEX
  8
0
 10
250.152303
 20
1705.671352
 42
-0.012967
  0
VERTEX
  8
0
 10
249.949331
 20
1707.508220
 42
-0.007865
  0
VERTEX
  8
0
 10
249.799904
 20
1709.689709
 42
0.000000
  0
VERTEX
  8
0
 10
249.500000
 20
1715.379418
 42
0.000000
  0
VERTEX
  8
0
 10
246.676310
 20
1711.099796
 42
-0.013976
  0
VERTEX
  8
0
 10
244.964359
 20
1708.656526
 42
-0.092760
  0
VERTEX
  8
0
 10
243.876607
 20
1707.649917
 42
-0.154822
  0
VERTEX
  8
0
 10
242.759039
 20
1707.359218
 42
-0.061093
  0
VERTEX
  8
0
 10
241.176310
 20
1707.638669
 42
0.056041
  0
VERTEX
  8
0
 10
237.892066
 20
1708.252708
 42
0.018500
  0
VERTEX
  8
0
 10
232.979139
 20
1708.429011
 42
0.018539
  0
VERTEX
  8
0
 10
228.061104
 20
1708.241054
 42
0.055100
  0
VERTEX
  8
0
 10
224.750000
 20
1707.620174
 42
-0.021014
  0
VERTEX
  8
0
 10
223.126484
 20
1707.199685
 42
-0.198461
  0
VERTEX
  8
0
 10
222.433350
 20
1707.326116
 42
-0.225828
  0
VERTEX
  8
0
 10
222.082626
 20
1707.892633
 42
-0.027540
  0
VERTEX
  8
0
 10
222.000000
 20
1709.391592
 42
-0.052488
  0
VERTEX
  8
0
 10
222.156917
 20
1710.882275
 42
-0.212024
  0
VERTEX
  8
0
 10
222.681298
 20
1711.605088
 42
-0.119359
  0
VERTEX
  8
0
 10
223.785805
 20
1711.931953
 42
-0.012533
  0
VERTEX
  8
0
 10
226.500000
 20
1712.000000
 42
0.021099
  0
VERTEX
  8
0
 10
229.563459
 20
1712.129329
 42
0.213912
  0
VERTEX
  8
0
 10
230.651933
 20
1712.732268
 42
0.245047
  0
VERTEX
  8
0
 10
230.841923
 20
1713.888629
 42
0.027444
  0
VERTEX
  8
0
 10
229.839485
 20
1716.452947
 42
0.041700
  0
VERTEX
  8
0
 10
228.824562
 20
1718.263652
 42
0.224300
  0
VERTEX
  8
0
 10
227.878628
 20
1718.824608
 42
0.116883
  0
VERTEX
  8
0
 10
226.465983
 20
1718.627357
 42
0.008378
  0
VERTEX
  8
0
 10
222.776733
 20
1717.118622
 42
0.026476
  0
VERTEX
  8
0
 10
220.427323
 20
1715.960753
 42
0.074961
  0
VERTEX
  8
0
 10
218.987644
 20
1714.842303
 42
0.081775
  0
VERTEX
  8
0
 10
218.011915
 20
1713.408369
 42
0.035817
  0
VERTEX
  8
0
 10
217.193828
 20
1711.252602
 42
0.010088
  0
VERTEX
  8
0
 10
216.736828
 20
1709.607236
 42
0.010346
  0
VERTEX
  8
0
 10
216.350687
 20
1707.958467
 42
0.010143
  0
VERTEX
  8
0
 10
216.074590
 20
1706.515686
 42
0.042223
  0
VERTEX
  8
0
 10
216.000000
 20
1705.633980
 42
-0.091552
  0
VERTEX
  8
0
 10
215.796773
 20
1704.533380
 42
-0.301717
  0
VERTEX
  8
0
 10
215.224912
 20
1704.125516
 42
-0.123626
  0
VERTEX
  8
0
 10
214.146007
 20
1704.358321
 42
-0.015198
  0
VERTEX
  8
0
 10
212.000000
 20
1705.500000
 42
0.067226
  0
VERTEX
  8
0
 10
210.611219
 20
1706.062870
 42
0.021247
  0
VERTEX
  8
0
 10
208.417150
 20
1706.526686
 42
0.020480
  0
VERTEX
  8
0
 10
205.861996
 20
1706.847463
 42
0.019569
  0
VERTEX
  8
0
 10
203.250000
 20
1706.964565
 42
0.000000
  0
VERTEX
  8
0
 10
197.000000
 20
1707.000000
 42
0.000000
  0
VERTEX
  8
0
 10
197.000000
 20
1713.000000
 42
0.000000
  0
VERTEX
  8
0
 10
197.000000
 20
1719.000000
 42
0.000000
  0
VERTEX
  8
0
 10
193.636643
 20
1719.000000
 42
0.042353
  0
VERTEX
  8
0
 10
191.572978
 20
1718.824882
 42
0.188063
  0
VERTEX
  8
0
 10
190.548698
 20
1718.209373
 42
0.103804
  0
VERTEX
  8
0
 10
189.885637
 20
1716.840407
 42
0.008768
  0
SEQEND
  0
POLYLINE
  8
0
 66
1
 70
1
  0
VERTEX
  8
0
 10
49.182851
 20
1542.973135
 42
-0.021156
  0
VERTEX
  8
0
 10
51.669643
 20
1540.652070
 42
-0.053728
  0
VERTEX
  8
0
 10
53.201913
 20
1538.718787
 42
-0.057846
  0
VERTEX
  8
0
 10
54.222763
 20
1536.590718
 42
-0.027896
  0
VERTEX
  8
0
 10
55.047718
 20
1533.677378
 42
-0.044601
  0
VERTEX
  8
0
 10
55.876423
 20
1527.388529
 42
-0.028278
  0
VERTEX
  8
0
 10
55.767939
 20
1519.992227
 42
-0.028485
  0
VERTEX
  8
0
 10
54.850361
 20
1512.871938
 42
-0.058194
  0
VERTEX
  8
0
 10
53.180540
 20
1507.500000
 42
-0.083593
  0
VERTEX
  8
0
 10
49.749265
 20
1502.313010
 42
-0.082997
  0
VERTEX
  8
0
 10
44.801122
 20
1498.520421
 42
-0.081771
  0
VERTEX
  8
0
 10
38.820827
 20
1496.504283
 42
-0.077865
  0
VERTEX
  8
0
 10
32.403877
 20
1496.462144
 42
0.000000
  0
VERTEX
  8
0
 10
28.120094
 20
1497.104537
 42
0.000000
  0
VERTEX
  8
0
 10
26.976428
 20
1502.802268
 42
0.000946
  0
VERTEX
  8
0
 10
26.503977
 20
1505.133137
 42
0.000993
  0
VERTEX
  8
0
 10
26.030150
 20
1507.425100
 42
0.000950
  0
VERTEX
  8
0
 10
25.613446
 20
1509.401959
 42
0.004436
  0
VERTEX
  8
0
 10
25.361057
 20
1510.538497
 42
-0.125960
  0
VERTEX
  8
0
 10
25.387101
 20
1511.660724
 42
-0.191094
  0
VERTEX
  8
0
 10
25.971700
 20
1512.427436
 42
-0.076107
  0
VERTEX
  8
0
 10
27.412994
 20
1513.019554
 42
-0.009704
  0
VERTEX
  8
0
 10
30.694676
 20
1513.748141
 42
-0.005086
  0
VERTEX
  8
0
 10
33.287557
 20
1514.243831
 42
-0.003319
  0
VERTEX
  8
0
 10
36.288843
 20
1514.765466
 42
-0.003338
  0
VERTEX
  8
0
 10
39.222330
 20
1515.235175
 42
-0.006370
  0
VERTEX
  8
0
 10
41.586491
 20
1515.566785
 42
0.000000
  0
VERTEX
  8
0
 10
46.672982
 20
1516.214281
 42
0.000000
  0
VERTEX
  8
0
 10
43.836491
 20
1524.655258
 42
-0.033287
  0
VERTEX
  8
0
 10
41.699860
 20
1532.764268
 42
-0.049080
  0
VERTEX
  8
0
 10
41.016626
 20
1540.089618
 42
-0.066556
  0
VERTEX
  8
0
 10
41.745557
 20
1545.338244
 42
-0.340186
  0
VERTEX
  8
0
 10
43.950000
 20
1546.993544
 42
-0.158264
  0
VERTEX
  8
0
 10
44.308547
 20
1546.872468
 42
-0.003882
  0
VERTEX
  8
0
 10
45.714025
 20
1545.809886
 42
-0.008041
  0
VERTEX
  8
0
 10
47.348460
 20
1544.511820
 42
-0.005340
  0
SEQEND
  0
POLYLINE
  8
0
 66
1
 70
1
  0
VERTEX
  8
0
 10
324.126763
 20
1519.273237
 42
-0.252682
  0
VERTEX
  8
0
 10
324.684659
 20
1517.406391
 42
-0.005218
  0
VERTEX
  8
0
 10
322.537167
 20
1507.574415
 42
-0.012031
  0
VERTEX
  8
0
 10
320.144637
 20
1498.186452
 42
-0.044168
  0
VERTEX
  8
0
 10
317.975630
 20
1492.456678
 42
-0.029139
  0
VERTEX
  8
0
 10
316.976532
 20
1490.663889
 42
-0.016453
  0
VERTEX
  8
0
 10
315.571699
 20
1488.608620
 42
-0.016381
  0
VERTEX
  8
0
 10
314.013171
 20
1486.622090
 42
-0.025758
  0
VERTEX
  8
0
 10
312.535866
 20
1485.034763
 42
-0.014375
  0
VERTEX
  8
0
 10
310.426612
 20
1483.104839
 42
-0.092847
  0
VERTEX
  8
0
 10
309.185070
 20
1482.382198
 42
-0.142804
  0
VERTEX
  8
0
 10
308.017471
 20
1482.314095
 42
-0.050567
  0
VERTEX
  8
0
 10
306.415797
 20
1482.856411
 42
-0.063549
  0
VERTEX
  8
0
 10
304.898098
 20
1483.796247
 42
-0.186605
  0
VERTEX
  8
0
 10
304.297409
 20
1484.844282
 42
-0.117480
  0
VERTEX
  8
0
 10
304.422300
 20
1486.356424
 42
-0.018925
  0
VERTEX
  8
0
 10
305.455094
 20
1489.149825
 42
0.135557
  0
VERTEX
  8
0
 10
305.560926
 20
1490.009325
 42
0.171870
  0
VERTEX
  8
0
 10
305.188763
 20
1490.711500
 42
0.088202
  0
VERTEX
  8
0
 10
304.200403
 20
1491.340919
 42
0.019788
  0
VERTEX
  8
0
 10
302.318548
 20
1492.031139
 42
-0.004080
  0
VERTEX
  8
0
 10
300.801071
 20
1492.534235
 42
-0.005083
  0
VERTEX
  8
0
 10
299.399853
 20
1493.027464
 42
-0.004162
  0
VERTEX
  8
0
 10
298.232746
 20
1493.462701
 42
-0.038332
  0
VERTEX
  8
0
 10
297.744783
 20
1493.693556
 42
-0.363811
  0
VERTEX
  8
0
 10
297.600570
 20
1494.083266
 42
-0.023755
  0
VERTEX
  8
0
 10
298.094193
 20
1495.280979
 42
-0.025685
  0
VERTEX
  8
0
 10
298.896922
 20
1496.786715
 42
-0.015375
  0
VERTEX
  8
0
 10
299.994783
 20
1498.492417
 42
0.028473
  0
VERTEX
  8
0
 10
302.024300
 20
1501.834752
 42
0.091036
  0
VERTEX
  8
0
 10
302.809874
 20
1504.310957
 42
0.083286
  0
VERTEX
  8
0
 10
302.699711
 20
1507.025903
 42
0.021401
  0
VERTEX
  8
0
 10
301.611738
 20
1511.294982
 42
0.000000
  0
VERTEX
  8
0
 10
300.223476
 20
1515.907825
 42
0.000000
  0
VERTEX
  8
0
 10
307.361738
 20
1518.427738
 42
-0.032228
  0
VERTEX
  8
0
 10
312.619505
 20
1519.910784
 42
-0.040047
  0
VERTEX
  8
0
 10
317.655454
 20
1520.571429
 42
-0.044541
  0
VERTEX
  8
0
 10
321.810494
 20
1520.410828
 42
-0.165934
  0
SEQEND
  0
POLYLINE
  8
0
 66
1
 70
1
  0
VERTEX
  8
0
 10
293.161930
 20
1500.411734
 42
0.007240
  0
VERTEX
  8
0
 10
293.096228
 20
1495.683218
 42
0.009260
  0
VERTEX
  8
0
 10
293.179440
 20
1491.328389
 42
0.007481
  0
VERTEX
  8
0
 10
293.370430
 20
1487.699933
 42
0.074496
  0
VERTEX
  8
0
 10
293.696275
 20
1486.216824
 42
0.080690
  0
VERTEX
  8
0
 10
294.316470
 20
1485.148588
 42
0.025317
  0
VERTEX
  8
0
 10
295.564356
 20
1483.775514
 42
0.024558
  0
VERTEX
  8
0
 10
297.135175
 20
1482.360126
 42
0.024881
  0
VERTEX
  8
0
 10
298.830605
 20
1481.112144
 42
0.000000
  0
VERTEX
  8
0
 10
303.092519
 20
1478.290641
 42
0.000000
  0
VERTEX
  8
0
 10
300.540086
 20
1476.618222
 42
-0.035880
  0
VERTEX
  8
0
 10
297.229265
 20
1474.773618
 42
-0.049096
  0
VERTEX
  8
0
 10
294.012361
 20
1473.641213
 42
-0.042299
  0
VERTEX
  8
0
 10
290.285998
 20
1473.055860
 42
-0.019071
  0
VERTEX
  8
0
 10
285.336336
 20
1472.891834
 42
-0.022824
  0
VERTEX
  8
0
 10
279.136286
 20
1473.206142
 42
-0.034680
  0
VERTEX
  8
0
 10
273.816947
 20
1474.095299
 42
-0.039368
  0
VERTEX
  8
0
 10
269.793911
 20
1475.400209
 42
-0.173472
  0
VERTEX
  8
0
 10
267.974363
 20
1477.047904
 42
-0.079856
  0
VERTEX
  8
0
 10
266.912176
 20
1480.128603
 42
-0.016009
  0
VERTEX
  8
0
 10
266.095486
 20
1485.897377
 42
-0.017790
  0
VERTEX
  8
0
 10
265.637138
 20
1492.161012
 42
-0.028603
  0
VERTEX
  8
0
 10
265.742683
 20
1497.512459
 42
0.000000
  0
VERTEX
  8
0
 10
266.206018
 20
1503.524918
 42
0.000000
  0
VERTEX
  8
0
 10
276.353009
 20
1507.723137
 42
-0.006416
  0
VERTEX
  8
0
 10
282.743666
 20
1510.271670
 42
-0.019491
  0
VERTEX
  8
0
 10
287.172059
 20
1511.776902
 42
-0.027750
  0
VERTEX
  8
0
 10
290.360076
 20
1512.534089
 42
-0.092801
  0
VERTEX
  8
0
 10
292.500000
 20
1512.518320
 42
-0.332497
  0
VERTEX
  8
0
 10
292.931319
 20
1512.042479
 42
-0.009936
  0
VERTEX
  8
0
 10
293.143394
 20
1509.200824
 42
-0.014430
  0
VERTEX
  8
0
 10
293.240769
 20
1505.422003
 42
-0.006320
  0
SEQEND
  0
POLYLINE
  8
0
 66
1
 70
1
  0
VERTEX
  8
0
 10
618.935090
 20
672.487478
 42
-0.018487
  0
VERTEX
  8
0
 10
620.223989
 20
667.621707
 42
-0.028033
  0
VERTEX
  8
0
 10
620.946802
 20
663.305425
 42
-0.020701
  0
VERTEX
  8
0
 10
621.305017
 20
658.082265
 42
-0.005664
  0
VERTEX
  8
0
 10
621.435090
 20
649.824988
 42
-0.003422
  0
VERTEX
  8
0
 10
621.413921
 20
641.079000
 42
-0.026697
  0
VERTEX
  8
0
 10
621.158886
 20
637.013225
 42
-0.058753
  0
VERTEX
  8
0
 10
620.553844
 20
634.468139
 42
-0.072503
  0
VERTEX
  8
0
 10
619.395470
 20
632.324988
 42
-0.054135
  0
VERTEX
  8
0
 10
617.287602
 20
630.055251
 42
-0.032647
  0
VERTEX
  8
0
 10
614.358915
 20
627.833823
 42
-0.026337
  0
VERTEX
  8
0
 10
611.501930
 20
626.156059
 42
-0.326881
  0
VERTEX
  8
0
 10
610.329112
 20
626.337554
 42
-0.210497
  0
VERTEX
  8
0
 10
609.935334
 20
627.351415
 42
-0.000320
  0
VERTEX
  8
0
 10
610.847022
 20
647.546401
 42
-0.002557
  0
VERTEX
  8
0
 10
611.766485
 20
665.606511
 42
-0.012484
  0
VERTEX
  8
0
 10
612.594101
 20
675.808069
 42
-0.042890
  0
VERTEX
  8
0
 10
613.466634
 20
680.305066
 42
-0.475624
  0
VERTEX
  8
0
 10
614.932412
 20
680.934329
 42
-0.182941
  0
VERTEX
  8
0
 10
616.734470
 20
678.906481
 42
-0.017181
  0
SEQEND
  0
POLYLINE
  8
0
 66
1
 70
1
  0
VERTEX
  8
0
 10
391.078947
 20
1592.416667
 42
0.018894
  0
VERTEX
  8
0
 10
391.137993
 20
1591.670344
 42
0.168741
  0
VERTEX
  8
0
 10
391.279315
 20
1591.378580
 42
0.470617
  0
VERTEX
  8
0
 10
391.461564
 20
1591.395823
 42
0.054073
  0
VERTEX
  8
0
 10
391.683114
 20
1591.812500
 42
0.051402
  0
VERTEX
  8
0
 10
391.839148
 20
1592.359369
 42
0.054150
  0
VERTEX
  8
0
 10
391.876576
 20
1592.916927
 42
0.060344
  0
VERTEX
  8
0
 10
391.797407
 20
1593.402231
 42
0.126455
  0
VERTEX
  8
0
 10
391.604167
 20
1593.729167
 42
0.296942
  0
VERTEX
  8
0
 10
391.385309
 20
1593.775380
 42
0.208169
  0
VERTEX
  8
0
 10
391.200665
 20
1593.592839
 42
0.077125
  0
VERTEX
  8
0
 10
391.089945
 20
1593.112848
 42
0.028489
  0
SEQEND
  0
POLYLINE
  8
0
 66
1
 70
1
  0
VERTEX
  8
0
 10
198.256131
 20
1315.512713
 42
0.007201
  0
VERTEX
  8
0
 10
197.852674
 20
1313.577410
 42
0.011129
  0
VERTEX
  8
0
 10
197.565593
 20
1311.893588
 42
0.005648
  0
VERTEX
  8
0
 10
197.373199
 20
1310.480472
 42
0.231355
  0
VERTEX
  8
0
 10
197.470955
 20
1310.195711
 42
0.560234
  0
VERTEX
  8
0
 10
198.044534
 20
1310.333607
 42
0.012947
  0
VERTEX
  8
0
 10
199.005057
 20
1313.580375
 42
0.017308
  0
VERTEX
  8
0
 10
199.783219
 20
1316.947306
 42
0.102980
  0
VERTEX
  8
0
 10
199.760393
 20
1318.741910
 42
0.486470
  0
VERTEX
  8
0
 10
199.498986
 20
1318.867317
 42
0.170791
  0
VERTEX
  8
0
 10
199.157900
 20
1318.518546
 42
0.040276
  0
VERTEX
  8
0
 10
198.711913
 20
1317.317062
 42
0.013749
  0
SEQEND
  0
ENDSEC
  0
EOF
